SplineFontDB: 3.0
FontName: Condiment-Regular
FullName: Condiment
FamilyName: Condiment
Weight: Book
Copyright: Copyright (c) 2010 Angel Koziupa (sudtipos@sudtipos.com),\nCopyright (c) 2010 Alejandro Paul (sudtipos@sudtipos.com),\nwith Reserved Font Name "Condiment"
Version: 1.001
ItalicAngle: 0
UnderlinePosition: -50
UnderlineWidth: 50
Ascent: 800
Descent: 200
sfntRevision: 0x00010042
LayerCount: 2
Layer: 0 1 "Back"  1
Layer: 1 1 "Fore"  0
XUID: [1021 350 1602481850 5362869]
FSType: 0
OS2Version: 2
OS2_WeightWidthSlopeOnly: 0
OS2_UseTypoMetrics: 1
CreationTime: 1327255584
ModificationTime: 1327255702
PfmFamily: 17
TTFWeight: 400
TTFWidth: 5
LineGap: 0
VLineGap: 0
Panose: 2 0 5 6 0 0 0 2 0 4
OS2TypoAscent: 82
OS2TypoAOffset: 1
OS2TypoDescent: -441
OS2TypoDOffset: 1
OS2TypoLinegap: 0
OS2WinAscent: 0
OS2WinAOffset: 1
OS2WinDescent: 0
OS2WinDOffset: 1
HheadAscent: 0
HheadAOffset: 1
HheadDescent: 0
HheadDOffset: 1
OS2SubXSize: 700
OS2SubYSize: 650
OS2SubXOff: 0
OS2SubYOff: 140
OS2SupXSize: 700
OS2SupYSize: 650
OS2SupXOff: 0
OS2SupYOff: 477
OS2StrikeYSize: 50
OS2StrikeYPos: 250
OS2Vendor: 'SUDT'
OS2CodePages: 20000001.00000000
OS2UnicodeRanges: 80000027.4000004a.00000000.00000000
Lookup: 258 0 0 "'kern' Horizontal Kerning in Latin lookup 0"  {"'kern' Horizontal Kerning in Latin lookup 0 subtable"  } ['kern' ('DFLT' <'dflt' > 'latn' <'dflt' > ) ]
DEI: 91125
TtTable: prep
PUSHW_1
 511
SCANCTRL
PUSHB_1
 4
SCANTYPE
EndTTInstrs
ShortTable: maxp 16
  1
  0
  234
  112
  7
  0
  0
  2
  0
  1
  1
  0
  64
  0
  0
  0
EndShort
LangName: 1033 "" "" "" "AngelKoziupa,AlejandroPaul: Condiment: 2010" "" "Version 1.001" "" "Condiment is a trademark of Angel Koziupa and Alejandro Paul." "Angel Koziupa, Alejandro Paul" "Angel Koziupa, Alejandro Paul" "" "www.sudtipos.com" "www.sudtipos.com" "This Font Software is licensed under the SIL Open Font License,+AA0A-Version 1.1. This license is available with a FAQ at:+AA0A-http://scripts.sil.org/OFL" "http://scripts.sil.org/OFL" 

StartChar: exclam
Encoding: 33 33 4
Width: 276
GlyphClass: 2
Flags: W
LayerCount: 2
Fore
SplineSet
488 653 m 2,0,1
 513 653 513 653 513 640 c 128,-1,2
 513 627 513 627 450 538 c 128,-1,3
 387 449 387 449 307 336 c 128,-1,4
 227 223 227 223 199 173 c 0,5,6
 185 147 185 147 141 147 c 0,7,8
 113 147 113 147 113 155 c 1,9,-1
 119 170 l 1,10,11
 272 406 272 406 369 622 c 1,12,13
 377 634 377 634 410.5 643.5 c 128,-1,14
 444 653 444 653 487 653 c 2,15,-1
 488 653 l 2,0,1
123 22.5 m 128,-1,17
 93 3 93 3 68.5 3 c 128,-1,18
 44 3 44 3 31 12.5 c 128,-1,19
 18 22 18 22 18 38 c 0,20,21
 18 69 18 69 48 88 c 128,-1,22
 78 107 78 107 108 107 c 0,23,24
 151 107 151 107 153 72 c 1,25,16
 153 42 153 42 123 22.5 c 128,-1,17
EndSplineSet
EndChar

StartChar: quotedbl
Encoding: 34 34 5
Width: 308
GlyphClass: 2
Flags: W
LayerCount: 2
Fore
SplineSet
417 698 m 0,0,1
 451 698 451 698 451 664 c 2,2,-1
 451 659 l 1,3,4
 448 631 448 631 392.5 572 c 128,-1,5
 337 513 337 513 314 513 c 0,6,7
 309 513 309 513 309 530.5 c 128,-1,8
 309 548 309 548 322 587.5 c 128,-1,9
 335 627 335 627 335 629 c 0,10,11
 356 698 356 698 417 698 c 0,0,1
564 698 m 0,12,13
 598 698 598 698 598 664 c 2,14,-1
 598 659 l 1,15,16
 595 631 595 631 539.5 572 c 128,-1,17
 484 513 484 513 461 513 c 0,18,19
 456 513 456 513 456 530.5 c 128,-1,20
 456 548 456 548 469 587.5 c 128,-1,21
 482 627 482 627 482 629 c 0,22,23
 503 698 503 698 564 698 c 0,12,13
EndSplineSet
EndChar

StartChar: numbersign
Encoding: 35 35 6
Width: 558
GlyphClass: 2
Flags: W
LayerCount: 2
Fore
SplineSet
399 462 m 1,0,-1
 507 461 l 1,1,-1
 542 521 l 2,2,3
 562 555 562 555 612 555 c 0,4,5
 640 555 640 555 640 544 c 1,6,-1
 633 529 l 1,7,8
 613 498 613 498 591 461 c 1,9,-1
 675 464 l 2,10,11
 688 464 688 464 688 455 c 0,12,13
 688 441 688 441 667 415 c 128,-1,14
 646 389 646 389 615 389 c 2,15,-1
 550 389 l 1,16,-1
 499 300 l 1,17,-1
 581 303 l 2,18,19
 595 303 595 303 595 293 c 0,20,21
 595 280 595 280 573.5 254 c 128,-1,22
 552 228 552 228 522 228 c 2,23,-1
 459 228 l 1,24,-1
 425 169 l 2,25,26
 405 135 405 135 356 135 c 0,27,28
 328 135 328 135 328 146 c 1,29,-1
 334 161 l 1,30,31
 340 170 340 170 354.5 194 c 128,-1,32
 369 218 369 218 376 229 c 1,33,34
 340 230 340 230 267 230 c 1,35,-1
 232 169 l 2,36,37
 212 135 212 135 163 135 c 0,38,39
 135 135 135 135 135 146 c 1,40,-1
 141 161 l 1,41,42
 163 195 163 195 183 230 c 1,43,-1
 99 227 l 2,44,45
 85 227 85 227 85 237 c 0,46,47
 85 250 85 250 106.5 276 c 128,-1,48
 128 302 128 302 158 302 c 2,49,-1
 225 302 l 1,50,51
 231 313 231 313 248.5 343.5 c 128,-1,52
 266 374 266 374 275 391 c 1,53,54
 237 391 237 391 199 389 c 1,55,-1
 194 389 l 2,56,57
 179 389 179 389 179 398 c 0,58,59
 179 412 179 412 200.5 438 c 128,-1,60
 222 464 222 464 252 464 c 2,61,-1
 316 464 l 1,62,63
 344 513 344 513 349 521 c 0,64,65
 369 555 369 555 419 555 c 0,66,67
 447 555 447 555 447 544 c 1,68,-1
 440 529 l 1,69,70
 425 505 425 505 399 462 c 1,0,-1
468 390 m 1,71,72
 431 391 431 391 358 391 c 1,73,-1
 307 300 l 1,74,-1
 417 300 l 1,75,-1
 468 390 l 1,71,72
EndSplineSet
EndChar

StartChar: dollar
Encoding: 36 36 7
Width: 504
GlyphClass: 2
Flags: W
LayerCount: 2
Fore
SplineSet
547 611 m 1,0,-1
 435 417 l 1,1,2
 465 384 465 384 480.5 363.5 c 128,-1,3
 496 343 496 343 512.5 307 c 128,-1,4
 529 271 529 271 529 235 c 0,5,6
 529 134 529 134 445.5 65 c 128,-1,7
 362 -4 362 -4 231 -4 c 0,8,9
 217 -4 217 -4 197 -2 c 1,10,-1
 189 -16 l 1,11,12
 172 -43 172 -43 143.5 -43 c 128,-1,13
 115 -43 115 -43 115 -32 c 0,14,15
 115 -26 115 -26 119 -21 c 2,16,-1
 138 10 l 1,17,-1
 112 20 l 1,18,19
 108 20 108 20 103 17 c 0,20,21
 60 -2 60 -2 22 -2 c 128,-1,22
 -16 -2 -16 -2 -16 16 c 128,-1,23
 -16 34 -16 34 19.5 103 c 128,-1,24
 55 172 55 172 104 237.5 c 128,-1,25
 153 303 153 303 183 303 c 1,26,27
 188 304 188 304 193 304 c 0,28,29
 211 304 211 304 211 293 c 0,30,31
 211 292 211 292 198 270 c 0,32,33
 159 204 159 204 159 141 c 0,34,35
 159 104 159 104 181 81 c 1,36,-1
 341 361 l 1,37,38
 311 394 311 394 297 410.5 c 128,-1,39
 283 427 283 427 268 456 c 128,-1,40
 253 485 253 485 253 510 c 0,41,42
 253 559 253 559 282 595.5 c 128,-1,43
 311 632 311 632 356 650 c 0,44,45
 440 684 440 684 517 684 c 2,46,-1
 524 684 l 1,47,-1
 535 702 l 2,48,49
 552 729 552 729 581.5 729 c 128,-1,50
 611 729 611 729 611 719 c 1,51,-1
 605 707 l 1,52,-1
 586 677 l 1,53,-1
 622 668 l 1,54,55
 628 668 628 668 631 670 c 0,56,57
 661 686 661 686 694 686 c 128,-1,58
 727 686 727 686 727 670 c 0,59,60
 727 643 727 643 663.5 549.5 c 128,-1,61
 600 456 600 456 568 456 c 0,62,63
 542 456 542 456 542 467 c 0,64,65
 542 469 542 469 549 481 c 0,66,67
 570 517 570 517 570 569 c 0,68,69
 570 594 570 594 547 611 c 1,0,-1
231 57 m 1,70,71
 236 56 236 56 255.5 56 c 128,-1,72
 275 56 275 56 302.5 63.5 c 128,-1,73
 330 71 330 71 357 87 c 128,-1,74
 384 103 384 103 401 135 c 128,-1,75
 418 167 418 167 418 213.5 c 128,-1,76
 418 260 418 260 378 316 c 1,77,-1
 231 57 l 1,70,71
386.5 574 m 128,-1,79
 373 554 373 554 373 526 c 128,-1,80
 373 498 373 498 398 463 c 1,81,-1
 491 626 l 1,82,83
 457 624 457 624 428.5 609 c 128,-1,78
 400 594 400 594 386.5 574 c 128,-1,79
EndSplineSet
EndChar

StartChar: percent
Encoding: 37 37 8
Width: 577
GlyphClass: 2
Flags: W
LayerCount: 2
Fore
SplineSet
401 -7 m 0,0,1
 366 -7 366 -7 346 11.5 c 128,-1,2
 326 30 326 30 326 63 c 0,3,4
 326 147 326 147 398.5 228 c 128,-1,5
 471 309 471 309 550 309 c 0,6,7
 586 309 586 309 606 290.5 c 128,-1,8
 626 272 626 272 626 239 c 0,9,10
 626 159 626 159 554.5 76 c 128,-1,11
 483 -7 483 -7 401 -7 c 0,0,1
562 242 m 0,12,13
 562 279 562 279 534 279 c 0,14,15
 491 279 491 279 441.5 201.5 c 128,-1,16
 392 124 392 124 392 62 c 0,17,18
 392 26 392 26 420 26 c 0,19,20
 463 26 463 26 512.5 103 c 128,-1,21
 562 180 562 180 562 242 c 0,12,13
113 17 m 0,22,23
 92 -6 92 -6 59.5 -6 c 128,-1,24
 27 -6 27 -6 27 5 c 0,25,26
 27 10 27 10 33 17 c 1,27,-1
 64 46 l 1,28,29
 595 589 595 589 674 673 c 0,30,31
 696 697 696 697 728.5 697 c 128,-1,32
 761 697 761 697 761 686 c 0,33,34
 761 681 761 681 754 674 c 2,35,-1
 723 645 l 1,36,37
 208 119 208 119 113 17 c 0,22,23
244 388 m 0,38,39
 209 388 209 388 189 406.5 c 128,-1,40
 169 425 169 425 169 458 c 0,41,42
 169 542 169 542 241.5 623 c 128,-1,43
 314 704 314 704 393 704 c 0,44,45
 429 704 429 704 449 685.5 c 128,-1,46
 469 667 469 667 469 634 c 0,47,48
 469 554 469 554 397.5 471 c 128,-1,49
 326 388 326 388 244 388 c 0,38,39
405 637 m 0,50,51
 405 674 405 674 377 674 c 0,52,53
 334 674 334 674 284.5 596.5 c 128,-1,54
 235 519 235 519 235 457 c 0,55,56
 235 421 235 421 263 421 c 0,57,58
 306 421 306 421 355.5 498 c 128,-1,59
 405 575 405 575 405 637 c 0,50,51
EndSplineSet
EndChar

StartChar: ampersand
Encoding: 38 38 9
Width: 528
GlyphClass: 2
Flags: W
LayerCount: 2
Fore
SplineSet
480 217 m 1,0,-1
 512 223 l 1,1,2
 521 223 521 223 521 206 c 128,-1,3
 521 189 521 189 512 171 c 128,-1,4
 503 153 503 153 492 144 c 0,5,6
 463 120 463 120 463 108 c 0,7,8
 463 85 463 85 474 45.5 c 128,-1,9
 485 6 485 6 488.5 3 c 128,-1,10
 492 0 492 0 492 -5 c 128,-1,11
 492 -10 492 -10 486.5 -16 c 128,-1,12
 481 -22 481 -22 475 -22 c 0,13,14
 398 -22 398 -22 374 14 c 0,15,16
 368 22 368 22 366 34 c 1,17,18
 362 40 362 40 355 40 c 1,19,-1
 346 38 l 1,20,21
 274 -1 274 -1 211.5 -1 c 128,-1,22
 149 -1 149 -1 103 27.5 c 128,-1,23
 57 56 57 56 57 117.5 c 128,-1,24
 57 179 57 179 85 232.5 c 128,-1,25
 113 286 113 286 157 324 c 0,26,27
 243 397 243 397 333 426 c 1,28,29
 345 428 345 428 345 443 c 0,30,31
 345 504 345 504 351 525 c 1,32,33
 362 580 362 580 420.5 630.5 c 128,-1,34
 479 681 479 681 573 681 c 0,35,36
 651 681 651 681 676 644 c 0,37,38
 684 631 684 631 684 608.5 c 128,-1,39
 684 586 684 586 667.5 558 c 128,-1,40
 651 530 651 530 618 506 c 0,41,42
 568 470 568 470 535 454 c 128,-1,43
 502 438 502 438 498 435 c 128,-1,44
 494 432 494 432 483 423 c 128,-1,45
 472 414 472 414 464 404 c 0,46,47
 441 376 441 376 441 335 c 128,-1,48
 441 294 441 294 443 269.5 c 128,-1,49
 445 245 445 245 446 240 c 128,-1,50
 447 235 447 235 455.5 226 c 128,-1,51
 464 217 464 217 480 217 c 1,0,-1
326 350 m 0,52,53
 286 350 286 350 229.5 288 c 128,-1,54
 173 226 173 226 173 163 c 0,55,56
 173 126 173 126 194 103 c 0,57,58
 203 93 203 93 223 84.5 c 128,-1,59
 243 76 243 76 274 76 c 128,-1,60
 305 76 305 76 332 94 c 128,-1,61
 359 112 359 112 359 126 c 2,62,-1
 359 127 l 1,63,64
 345 234 345 234 344 331 c 0,65,66
 344 350 344 350 326 350 c 0,52,53
540 528 m 128,-1,68
 579 565 579 565 579 594.5 c 128,-1,69
 579 624 579 624 543.5 624 c 128,-1,70
 508 624 508 624 479 588.5 c 128,-1,71
 450 553 450 553 450 515 c 0,72,73
 450 491 450 491 475.5 491 c 128,-1,67
 501 491 501 491 540 528 c 128,-1,68
EndSplineSet
EndChar

StartChar: quotesingle
Encoding: 39 39 10
Width: 158
GlyphClass: 2
Flags: W
LayerCount: 2
Fore
SplineSet
417 698 m 0,0,1
 451 698 451 698 451 664 c 2,2,-1
 451 659 l 1,3,4
 448 631 448 631 392.5 572 c 128,-1,5
 337 513 337 513 314 513 c 0,6,7
 309 513 309 513 309 530.5 c 128,-1,8
 309 548 309 548 322 587.5 c 128,-1,9
 335 627 335 627 335 629 c 0,10,11
 356 698 356 698 417 698 c 0,0,1
EndSplineSet
EndChar

StartChar: parenleft
Encoding: 40 40 11
Width: 256
GlyphClass: 2
Flags: W
LayerCount: 2
Fore
SplineSet
133 -44 m 2,0,1
 133 -56 133 -56 117 -58 c 1,2,3
 81 -58 81 -58 72 -22 c 1,4,5
 66 7 66 7 66 57 c 0,6,7
 66 144 66 144 97.5 243.5 c 128,-1,8
 129 343 129 343 180 428.5 c 128,-1,9
 231 514 231 514 290 585.5 c 128,-1,10
 349 657 349 657 410 698 c 128,-1,11
 471 739 471 739 512 739 c 128,-1,12
 553 739 553 739 553 729 c 0,13,14
 553 724 553 724 545 719 c 0,15,16
 455 656 455 656 387 577.5 c 128,-1,17
 319 499 319 499 240 346 c 0,18,19
 132 136 132 136 132 -14 c 1,20,-1
 133 -44 l 2,0,1
EndSplineSet
EndChar

StartChar: parenright
Encoding: 41 41 12
Width: 267
GlyphClass: 2
Flags: W
LayerCount: 2
Fore
SplineSet
326 725 m 2,0,1
 326 737 326 737 343.5 738 c 128,-1,2
 361 739 361 739 372 730.5 c 128,-1,3
 383 722 383 722 388 702 c 0,4,5
 394 674 394 674 394 624 c 0,6,7
 394 518 394 518 345.5 393 c 128,-1,8
 297 268 297 268 227.5 170.5 c 128,-1,9
 158 73 158 73 79.5 7.5 c 128,-1,10
 1 -58 1 -58 -57 -58 c 0,11,12
 -93 -58 -93 -58 -93 -48 c 0,13,14
 -93 -43 -93 -43 -85 -38 c 0,15,16
 5 25 5 25 73 103.5 c 128,-1,17
 141 182 141 182 219 334 c 0,18,19
 327 544 327 544 327 694 c 1,20,-1
 326 725 l 2,0,1
EndSplineSet
EndChar

StartChar: asterisk
Encoding: 42 42 13
Width: 235
GlyphClass: 2
Flags: W
LayerCount: 2
Fore
SplineSet
355 555 m 0,0,1
 347 555 347 555 334 522.5 c 128,-1,2
 321 490 321 490 305 490 c 0,3,4
 279 490 279 490 276 500 c 2,5,-1
 275 504 l 1,6,7
 275 512 275 512 290.5 533.5 c 128,-1,8
 306 555 306 555 306 564.5 c 128,-1,9
 306 574 306 574 298 574 c 128,-1,10
 290 574 290 574 262 562.5 c 128,-1,11
 234 551 234 551 226 551 c 0,12,13
 215 551 215 551 215 565 c 0,14,15
 215 590 215 590 237 596 c 1,16,17
 287 604 287 604 294 609.5 c 128,-1,18
 301 615 301 615 301 623 c 128,-1,19
 301 631 301 631 280 646 c 128,-1,20
 259 661 259 661 259 671 c 128,-1,21
 259 681 259 681 271.5 689 c 128,-1,22
 284 697 284 697 294 697 c 0,23,24
 300 697 300 697 314 674 c 128,-1,25
 328 651 328 651 339 651 c 128,-1,26
 350 651 350 651 356 661.5 c 128,-1,27
 362 672 362 672 366 685 c 0,28,29
 376 719 376 719 403 719 c 128,-1,30
 430 719 430 719 430 708 c 0,31,32
 430 701 430 701 414 677.5 c 128,-1,33
 398 654 398 654 398 645 c 128,-1,34
 398 636 398 636 406.5 636 c 128,-1,35
 415 636 415 636 440.5 643 c 128,-1,36
 466 650 466 650 477 650 c 128,-1,37
 488 650 488 650 488 641 c 0,38,39
 488 606 488 606 471 606 c 2,40,-1
 464 606 l 2,41,42
 401 606 401 606 401 584 c 0,43,44
 401 571 401 571 420.5 553 c 128,-1,45
 440 535 440 535 440 529 c 128,-1,46
 440 523 440 523 429.5 514.5 c 128,-1,47
 419 506 419 506 406 506 c 0,48,49
 399 506 399 506 383 530.5 c 128,-1,50
 367 555 367 555 355 555 c 0,0,1
EndSplineSet
EndChar

StartChar: plus
Encoding: 43 43 14
Width: 538
GlyphClass: 2
Flags: W
LayerCount: 2
Fore
SplineSet
570 324 m 2,0,-1
 411 325 l 1,1,-1
 409 325 l 1,2,3
 374 260 374 260 330 185 c 0,4,5
 310 151 310 151 260 151 c 0,6,7
 232 151 232 151 232 162 c 1,8,-1
 239 177 l 1,9,10
 268 222 268 222 328 326 c 1,11,-1
 274 326 l 1,12,-1
 148 323 l 2,13,14
 134 323 134 323 134 333 c 0,15,16
 134 346 134 346 155.5 372 c 128,-1,17
 177 398 177 398 207 398 c 2,18,-1
 368 397 l 1,19,20
 403 462 403 462 447 537 c 0,21,22
 467 571 467 571 516 571 c 0,23,24
 545 571 545 571 545 560 c 1,25,-1
 538 545 l 1,26,27
 494 477 494 477 450 396 c 1,28,-1
 523 395 l 2,29,30
 574 395 574 395 601 397 c 128,-1,31
 628 399 628 399 629 399 c 0,32,33
 643 399 643 399 643 389 c 0,34,35
 643 376 643 376 621.5 350 c 128,-1,36
 600 324 600 324 570 324 c 2,0,-1
EndSplineSet
EndChar

StartChar: comma
Encoding: 44 44 15
Width: 211
GlyphClass: 2
Flags: W
LayerCount: 2
Fore
SplineSet
163 65 m 0,0,1
 163 11 163 11 118.5 -30 c 128,-1,2
 74 -71 74 -71 35 -71 c 0,3,4
 19 -71 19 -71 19 -64 c 1,5,-1
 21 -59 l 1,6,7
 65 -34 65 -34 65 -11 c 0,8,9
 65 -2 65 -2 59 -2 c 1,10,11
 29 5 29 5 29 30.5 c 128,-1,12
 29 56 29 56 55 79 c 128,-1,13
 81 102 81 102 115 102 c 0,14,15
 163 102 163 102 163 65 c 0,0,1
EndSplineSet
EndChar

StartChar: hyphen
Encoding: 45 45 16
Width: 454
GlyphClass: 2
Flags: W
LayerCount: 2
Fore
SplineSet
382 140 m 2,0,1
 382 140 382 140 78 139 c 0,2,3
 65 139 65 139 65 149 c 0,4,5
 65 162 65 162 86 186.5 c 128,-1,6
 107 211 107 211 137 211 c 2,7,-1
 440 211 l 2,8,9
 454 211 454 211 454 202 c 0,10,11
 454 188 454 188 433.5 164 c 128,-1,12
 413 140 413 140 382 140 c 2,0,1
EndSplineSet
EndChar

StartChar: period
Encoding: 46 46 17
Width: 197
GlyphClass: 2
Flags: W
LayerCount: 2
Fore
SplineSet
40 79.5 m 128,-1,1
 66 102 66 102 94 102 c 0,2,3
 149 102 149 102 149 67 c 0,4,5
 149 41 149 41 123 19 c 128,-1,6
 97 -3 97 -3 68 -3 c 0,7,8
 14 -3 14 -3 14 33 c 0,9,0
 14 57 14 57 40 79.5 c 128,-1,1
EndSplineSet
EndChar

StartChar: slash
Encoding: 47 47 18
Width: 380
GlyphClass: 2
Flags: W
LayerCount: 2
Fore
SplineSet
-19 -52 m 0,0,1
 -48 -52 -48 -52 -48 -40 c 0,2,3
 -48 -34 -48 -34 -41 -26 c 1,4,5
 -28 -16 -28 -16 279.5 298.5 c 128,-1,6
 587 613 587 613 671 703 c 0,7,8
 696 729 696 729 755 729 c 0,9,10
 785 729 785 729 785 717 c 0,11,12
 785 712 785 712 778 704 c 0,13,14
 747 672 747 672 475 396.5 c 128,-1,15
 203 121 203 121 67 -26 c 0,16,17
 42 -52 42 -52 -19 -52 c 0,0,1
EndSplineSet
EndChar

StartChar: zero
Encoding: 48 48 19
Width: 561
GlyphClass: 2
Flags: W
LayerCount: 2
Fore
SplineSet
381.5 30.5 m 128,-1,1
 307 -9 307 -9 231 -9 c 128,-1,2
 155 -9 155 -9 114.5 32.5 c 128,-1,3
 74 74 74 74 74 149 c 0,4,5
 74 201 74 201 95.5 270.5 c 128,-1,6
 117 340 117 340 159 414 c 128,-1,7
 201 488 201 488 255.5 550.5 c 128,-1,8
 310 613 310 613 385 653.5 c 128,-1,9
 460 694 460 694 536 694 c 128,-1,10
 612 694 612 694 653 652.5 c 128,-1,11
 694 611 694 611 694 536 c 0,12,13
 694 482 694 482 672 411.5 c 128,-1,14
 650 341 650 341 607.5 267.5 c 128,-1,15
 565 194 565 194 510.5 132 c 128,-1,0
 456 70 456 70 381.5 30.5 c 128,-1,1
531.5 339.5 m 128,-1,17
 586 459 586 459 586 550 c 128,-1,18
 586 641 586 641 520 641 c 128,-1,19
 454 641 454 641 374 554 c 128,-1,20
 294 467 294 467 240 347 c 128,-1,21
 186 227 186 227 186 138.5 c 128,-1,22
 186 50 186 50 254 50 c 0,23,24
 318 50 318 50 397.5 135 c 128,-1,16
 477 220 477 220 531.5 339.5 c 128,-1,17
EndSplineSet
EndChar

StartChar: one
Encoding: 49 49 20
Width: 261
GlyphClass: 2
Flags: W
LayerCount: 2
Fore
SplineSet
162 38 m 2,0,-1
 163 26 l 1,1,2
 163 -5 163 -5 77.5 -5 c 128,-1,3
 -8 -5 -8 -5 -8 19 c 1,4,-1
 -3 30 l 1,5,6
 28 53 28 53 110 183 c 128,-1,7
 192 313 192 313 286 491 c 1,8,9
 295 512 295 512 295 528.5 c 128,-1,10
 295 545 295 545 276.5 551.5 c 128,-1,11
 258 558 258 558 239.5 559 c 128,-1,12
 221 560 221 560 221 567 c 0,13,14
 221 600 221 600 319.5 645 c 128,-1,15
 418 690 418 690 480 690 c 0,16,17
 510 690 510 690 510 674 c 0,18,19
 510 662 510 662 497 649 c 1,20,21
 456 596 456 596 317.5 359 c 128,-1,22
 179 122 179 122 167 67 c 0,23,24
 162 44 162 44 162 38 c 2,0,-1
EndSplineSet
EndChar

StartChar: two
Encoding: 50 50 21
Width: 537
GlyphClass: 2
Flags: W
LayerCount: 2
Fore
SplineSet
239 1 m 1,0,-1
 49 -3 l 2,1,2
 7 -3 7 -3 7 11 c 0,3,4
 7 15 7 15 8 18 c 0,5,6
 28 89 28 89 95 162.5 c 128,-1,7
 162 236 162 236 242 295 c 128,-1,8
 322 354 322 354 399.5 407 c 128,-1,9
 477 460 477 460 529 507 c 128,-1,10
 581 554 581 554 581 587 c 0,11,12
 581 604 581 604 570 614 c 1,13,14
 553 627 553 627 533 627 c 0,15,16
 480 627 480 627 428.5 600 c 128,-1,17
 377 573 377 573 352 546 c 2,18,-1
 326 519 l 1,19,20
 302 501 302 501 285.5 501 c 128,-1,21
 269 501 269 501 269 511 c 2,22,-1
 269 512 l 1,23,24
 270 527 270 527 330.5 614.5 c 128,-1,25
 391 702 391 702 416 704 c 1,26,27
 462 704 462 704 491 681 c 1,28,29
 531 697 531 697 617 697 c 0,30,31
 630 697 630 697 651 690 c 128,-1,32
 672 683 672 683 686 675 c 128,-1,33
 700 667 700 667 711.5 650 c 128,-1,34
 723 633 723 633 723 611 c 0,35,36
 723 563 723 563 670.5 506 c 128,-1,37
 618 449 618 449 542.5 396 c 128,-1,38
 467 343 467 343 391.5 290.5 c 128,-1,39
 316 238 316 238 263.5 184.5 c 128,-1,40
 211 131 211 131 211 89 c 0,41,42
 211 59 211 59 267 59 c 0,43,44
 303 59 303 59 340.5 74.5 c 128,-1,45
 378 90 378 90 406 112 c 0,46,47
 463 155 463 155 493 194 c 2,48,-1
 505 210 l 1,49,50
 522 227 522 227 540 227 c 128,-1,51
 558 227 558 227 558 217 c 1,52,53
 555 191 555 191 494.5 94 c 128,-1,54
 434 -3 434 -3 407 -3 c 2,55,-1
 239 1 l 1,0,-1
EndSplineSet
EndChar

StartChar: three
Encoding: 51 51 22
Width: 509
GlyphClass: 2
Flags: W
LayerCount: 2
Fore
SplineSet
427 283 m 0,0,1
 427 308 427 308 412 325.5 c 128,-1,2
 397 343 397 343 372 351 c 0,3,4
 328 365 328 365 281 365 c 0,5,6
 269 365 269 365 269 375 c 0,7,8
 269 393 269 393 286.5 410.5 c 128,-1,9
 304 428 304 428 320 428 c 0,10,11
 443 428 443 428 510.5 476 c 128,-1,12
 578 524 578 524 582 575 c 1,13,14
 582 629 582 629 522 629 c 0,15,16
 461 629 461 629 414 600 c 0,17,18
 372 573 372 573 356 554 c 2,19,-1
 349 546 l 1,20,21
 337 530 337 530 317.5 530 c 128,-1,22
 298 530 298 530 298 539 c 2,23,-1
 298 541 l 1,24,25
 299 555 299 555 347 625.5 c 128,-1,26
 395 696 395 696 418 698 c 1,27,-1
 425 698 l 2,28,29
 467 698 467 698 491 677 c 1,30,31
 508 693 508 693 592 693 c 0,32,33
 641 693 641 693 669 662 c 128,-1,34
 697 631 697 631 697 591 c 128,-1,35
 697 551 697 551 674 515 c 128,-1,36
 651 479 651 479 618 459.5 c 128,-1,37
 585 440 585 440 552 426.5 c 128,-1,38
 519 413 519 413 495.5 403.5 c 128,-1,39
 472 394 472 394 471 387 c 1,40,-1
 471 386 l 2,41,42
 471 378 471 378 482 370.5 c 128,-1,43
 493 363 493 363 506 356 c 128,-1,44
 519 349 519 349 530 327 c 128,-1,45
 541 305 541 305 541 272 c 0,46,47
 541 195 541 195 490.5 129 c 128,-1,48
 440 63 440 63 366 28 c 128,-1,49
 292 -7 292 -7 213.5 -7 c 128,-1,50
 135 -7 135 -7 89 0 c 128,-1,51
 43 7 43 7 32 16 c 128,-1,52
 21 25 21 25 21 38 c 2,53,-1
 21 40 l 1,54,55
 22 55 22 55 48 108 c 128,-1,56
 74 161 74 161 113 213 c 128,-1,57
 152 265 152 265 181 265 c 0,58,59
 196 265 196 265 196 257 c 0,60,61
 196 255 196 255 195 254 c 0,62,63
 158 180 158 180 158 121 c 0,64,65
 158 51 158 51 223 51 c 0,66,67
 292 51 292 51 359.5 123.5 c 128,-1,68
 427 196 427 196 427 283 c 0,0,1
EndSplineSet
EndChar

StartChar: four
Encoding: 52 52 23
Width: 519
GlyphClass: 2
Flags: W
LayerCount: 2
Fore
SplineSet
724 649 m 1,0,1
 703 622 703 622 628 494.5 c 128,-1,2
 553 367 553 367 486 246 c 1,3,4
 533 248 533 248 540 249 c 1,5,-1
 541 249 l 2,6,7
 551 249 551 249 551 236 c 128,-1,8
 551 223 551 223 533.5 201 c 128,-1,9
 516 179 516 179 490 179 c 2,10,-1
 449 179 l 1,11,12
 408 104 408 104 399 81.5 c 128,-1,13
 390 59 390 59 384.5 43.5 c 128,-1,14
 379 28 379 28 377 23 c 0,15,16
 370 5 370 5 357 0 c 128,-1,17
 344 -5 344 -5 305 -5 c 0,18,19
 236 -5 236 -5 236 16 c 0,20,21
 236 23 236 23 258 53 c 1,22,23
 292 103 292 103 338 177 c 1,24,-1
 314 177 l 2,25,26
 91 177 91 177 91 219 c 128,-1,27
 91 261 91 261 189 361.5 c 128,-1,28
 287 462 287 462 400.5 552 c 128,-1,29
 514 642 514 642 562 666.5 c 128,-1,30
 610 691 610 691 678 691 c 0,31,32
 726 691 726 691 731.5 685.5 c 128,-1,33
 737 680 737 680 737 674 c 128,-1,34
 737 668 737 668 724 649 c 1,0,1
537 538 m 0,35,36
 537 551 537 551 525 551 c 0,37,38
 494 551 494 551 424 496 c 128,-1,39
 354 441 354 441 296.5 375.5 c 128,-1,40
 239 310 239 310 239 282 c 0,41,42
 239 251 239 251 379 245 c 1,43,44
 440 347 440 347 534 524 c 0,45,46
 537 531 537 531 537 538 c 0,35,36
EndSplineSet
EndChar

StartChar: five
Encoding: 53 53 24
Width: 476
GlyphClass: 2
Flags: W
LayerCount: 2
Fore
SplineSet
671 699 m 0,0,1
 683 699 683 699 683 682.5 c 128,-1,2
 683 666 683 666 658 627 c 128,-1,3
 633 588 633 588 616 579 c 0,4,5
 606 573 606 573 587 573 c 128,-1,6
 568 573 568 573 525.5 577 c 128,-1,7
 483 581 483 581 456.5 581 c 128,-1,8
 430 581 430 581 407 569.5 c 128,-1,9
 384 558 384 558 369 542 c 0,10,11
 337 507 337 507 326 480 c 1,12,-1
 321 469 l 1,13,14
 321 454 321 454 336 454 c 0,15,16
 341 454 341 454 363.5 457.5 c 128,-1,17
 386 461 386 461 401 461 c 128,-1,18
 416 461 416 461 434 456.5 c 128,-1,19
 452 452 452 452 475 441 c 128,-1,20
 498 430 498 430 513.5 405.5 c 128,-1,21
 529 381 529 381 529 345 c 128,-1,22
 529 309 529 309 513.5 262 c 128,-1,23
 498 215 498 215 467.5 168 c 128,-1,24
 437 121 437 121 396 81.5 c 128,-1,25
 355 42 355 42 299 17.5 c 128,-1,26
 243 -7 243 -7 182 -7 c 0,27,28
 21 -7 21 -7 21 39 c 0,29,30
 21 54 21 54 47 107.5 c 128,-1,31
 73 161 73 161 112.5 213 c 128,-1,32
 152 265 152 265 181 265 c 0,33,34
 196 265 196 265 196 257 c 0,35,36
 196 256 196 256 192 248 c 128,-1,37
 188 240 188 240 182.5 226 c 128,-1,38
 177 212 177 212 171 196 c 0,39,40
 157 159 157 159 157 123 c 0,41,42
 157 57 157 57 221 57 c 0,43,44
 263 57 263 57 309 100.5 c 128,-1,45
 355 144 355 144 384.5 207 c 128,-1,46
 414 270 414 270 414 325 c 0,47,48
 414 398 414 398 310 398 c 0,49,50
 263 398 263 398 228 388 c 1,51,-1
 215 385 l 1,52,53
 203 385 203 385 203 395 c 2,54,-1
 203 398 l 1,55,56
 204 413 204 413 287.5 546 c 128,-1,57
 371 679 371 679 388 679 c 1,58,59
 401 687 401 687 462.5 687 c 128,-1,60
 524 687 524 687 584 683 c 1,61,62
 614 699 614 699 671 699 c 0,0,1
EndSplineSet
EndChar

StartChar: six
Encoding: 54 54 25
Width: 504
GlyphClass: 2
Flags: W
LayerCount: 2
Fore
SplineSet
260 47 m 0,0,1
 319 47 319 47 378 121 c 128,-1,2
 437 195 437 195 437 288 c 0,3,4
 437 325 437 325 417.5 353.5 c 128,-1,5
 398 382 398 382 358 382 c 128,-1,6
 318 382 318 382 291 366 c 128,-1,7
 264 350 264 350 252 331 c 0,8,9
 230 295 230 295 212.5 240 c 128,-1,10
 195 185 195 185 195 140 c 0,11,12
 195 47 195 47 260 47 c 0,0,1
503 162.5 m 128,-1,14
 462 88 462 88 388.5 37 c 128,-1,15
 315 -14 315 -14 239 -14 c 128,-1,16
 163 -14 163 -14 123.5 28.5 c 128,-1,17
 84 71 84 71 84 130.5 c 128,-1,18
 84 190 84 190 106.5 262 c 128,-1,19
 129 334 129 334 173 409.5 c 128,-1,20
 217 485 217 485 273.5 549.5 c 128,-1,21
 330 614 330 614 406.5 655 c 128,-1,22
 483 696 483 696 562 696 c 0,23,24
 612 696 612 696 635 683 c 0,25,26
 639 681 639 681 642.5 681 c 128,-1,27
 646 681 646 681 656 684 c 0,28,29
 683 694 683 694 710.5 694 c 128,-1,30
 738 694 738 694 738 681 c 0,31,32
 738 657 738 657 690 583 c 128,-1,33
 642 509 642 509 610 489 c 1,34,35
 600 484 600 484 593 484 c 0,36,37
 573 484 573 484 573 496 c 0,38,39
 573 497 573 497 578 508 c 0,40,41
 591 541 591 541 591 586 c 0,42,43
 591 607 591 607 576 620.5 c 128,-1,44
 561 634 561 634 528.5 634 c 128,-1,45
 496 634 496 634 445 597.5 c 128,-1,46
 394 561 394 561 359.5 516.5 c 128,-1,47
 325 472 325 472 325 453.5 c 128,-1,48
 325 435 325 435 339 435 c 1,49,-1
 367 440 l 2,50,51
 395 445 395 445 413 445 c 128,-1,52
 431 445 431 445 444 443 c 128,-1,53
 457 441 457 441 475.5 432.5 c 128,-1,54
 494 424 494 424 508 410 c 0,55,56
 544 376 544 376 544 306.5 c 128,-1,13
 544 237 544 237 503 162.5 c 128,-1,14
EndSplineSet
EndChar

StartChar: seven
Encoding: 55 55 26
Width: 299
GlyphClass: 2
Flags: W
LayerCount: 2
Fore
SplineSet
65 -7 m 0,0,1
 48 -7 48 -7 38 -2.5 c 128,-1,2
 28 2 28 2 26 6 c 2,3,-1
 24 11 l 1,4,5
 24 60 24 60 70 133 c 128,-1,6
 116 206 116 206 182 277 c 128,-1,7
 248 348 248 348 313.5 414.5 c 128,-1,8
 379 481 379 481 425 532.5 c 128,-1,9
 471 584 471 584 471 599.5 c 128,-1,10
 471 615 471 615 454.5 621.5 c 128,-1,11
 438 628 438 628 417.5 628 c 128,-1,12
 397 628 397 628 365 617 c 128,-1,13
 333 606 333 606 308 590 c 0,14,15
 264 562 264 562 232 530 c 2,16,-1
 221 519 l 2,17,18
 202 501 202 501 185.5 501 c 128,-1,19
 169 501 169 501 169 512 c 0,20,21
 170 527 170 527 231.5 616.5 c 128,-1,22
 293 706 293 706 318 708 c 1,23,24
 361 708 361 708 385 687 c 1,25,26
 425 693 425 693 495 693 c 0,27,28
 643 693 643 693 643 659 c 0,29,30
 643 614 643 614 528 510 c 0,31,32
 418 411 418 411 302 286 c 0,33,34
 248 227 248 227 204.5 155 c 128,-1,35
 161 83 161 83 147 17 c 1,36,37
 151 -7 151 -7 65 -7 c 0,0,1
EndSplineSet
EndChar

StartChar: eight
Encoding: 56 56 27
Width: 551
GlyphClass: 2
Flags: W
LayerCount: 2
Fore
SplineSet
525 381 m 0,0,1
 525 371 525 371 535 361 c 0,2,3
 575 317 575 317 575 267 c 0,4,5
 575 144 575 144 482.5 70 c 128,-1,6
 390 -4 390 -4 257 -4 c 0,7,8
 210 -4 210 -4 174 9 c 128,-1,9
 138 22 138 22 119 39.5 c 128,-1,10
 100 57 100 57 88 78 c 0,11,12
 70 111 70 111 70 138 c 0,13,14
 70 230 70 230 129 284.5 c 128,-1,15
 188 339 188 339 291 376 c 0,16,17
 321 387 321 387 321 405 c 0,18,19
 321 412 321 412 315 420 c 0,20,21
 289 450 289 450 289 492 c 0,22,23
 289 558 289 558 368.5 624.5 c 128,-1,24
 448 691 448 691 567 691 c 0,25,26
 613 691 613 691 651 677 c 0,27,28
 725 650 725 650 725 575 c 0,29,30
 725 511 725 511 677 470.5 c 128,-1,31
 629 430 629 430 548 403 c 0,32,33
 525 395 525 395 525 381 c 0,0,1
272 57 m 0,34,35
 349 57 349 57 401.5 106 c 128,-1,36
 454 155 454 155 454 231 c 0,37,38
 454 265 454 265 429 304.5 c 128,-1,39
 404 344 404 344 375 344 c 0,40,41
 329 344 329 344 260 296 c 0,42,43
 228 274 228 274 205 234.5 c 128,-1,44
 182 195 182 195 182 150 c 128,-1,45
 182 105 182 105 206 81 c 128,-1,46
 230 57 230 57 272 57 c 0,34,35
585 489 m 128,-1,48
 620 517 620 517 620 556 c 128,-1,49
 620 595 620 595 596.5 614 c 128,-1,50
 573 633 573 633 535.5 633 c 128,-1,51
 498 633 498 633 470 620 c 128,-1,52
 442 607 442 607 429 589 c 0,53,54
 404 554 404 554 404 536 c 0,55,56
 404 489 404 489 449 444 c 1,57,58
 455 435 455 435 465.5 435 c 128,-1,59
 476 435 476 435 485 438 c 0,60,47
 550 461 550 461 585 489 c 128,-1,48
EndSplineSet
EndChar

StartChar: nine
Encoding: 57 57 28
Width: 551
GlyphClass: 2
Flags: W
LayerCount: 2
Fore
SplineSet
224 526.5 m 128,-1,1
 265 599 265 599 338 648 c 128,-1,2
 411 697 411 697 486.5 697 c 128,-1,3
 562 697 562 697 602 654.5 c 128,-1,4
 642 612 642 612 642 552.5 c 128,-1,5
 642 493 642 493 621.5 421.5 c 128,-1,6
 601 350 601 350 559 274 c 128,-1,7
 517 198 517 198 461.5 133.5 c 128,-1,8
 406 69 406 69 327.5 28 c 128,-1,9
 249 -13 249 -13 164 -13 c 0,10,11
 114 -13 114 -13 91 0 c 0,12,13
 87 2 87 2 82 2 c 1,14,-1
 60 -4 l 2,15,16
 37 -11 37 -11 12 -11 c 128,-1,17
 -13 -11 -13 -11 -13 2 c 0,18,19
 -13 30 -13 30 44.5 114.5 c 128,-1,20
 102 199 102 199 130 199 c 2,21,-1
 135 199 l 2,22,23
 153 199 153 199 153 187 c 0,24,25
 153 186 153 186 148 174 c 0,26,27
 134 137 134 137 134 97 c 0,28,29
 134 76 134 76 149.5 62.5 c 128,-1,30
 165 49 165 49 192 49 c 0,31,32
 257 49 257 49 328.5 123 c 128,-1,33
 400 197 400 197 400 240 c 0,34,35
 400 255 400 255 385 255 c 0,36,37
 376 255 376 255 367 251 c 1,38,39
 335 246 335 246 315.5 246 c 128,-1,40
 296 246 296 246 283 248 c 128,-1,41
 270 250 270 250 251.5 258.5 c 128,-1,42
 233 267 233 267 218 281 c 0,43,44
 183 315 183 315 183 384.5 c 128,-1,0
 183 454 183 454 224 526.5 c 128,-1,1
466 636 m 0,45,46
 406 636 406 636 348 566 c 128,-1,47
 290 496 290 496 290 404 c 0,48,49
 290 367 290 367 309.5 338 c 128,-1,50
 329 309 329 309 369 309 c 0,51,52
 444 309 444 309 475 360 c 0,53,54
 533 458 533 458 533 547 c 128,-1,55
 533 636 533 636 466 636 c 0,45,46
EndSplineSet
EndChar

StartChar: colon
Encoding: 58 58 29
Width: 229
GlyphClass: 2
Flags: W
LayerCount: 2
Fore
SplineSet
45 79.5 m 128,-1,1
 71 102 71 102 99 102 c 0,2,3
 154 102 154 102 154 67 c 0,4,5
 154 41 154 41 128 19 c 128,-1,6
 102 -3 102 -3 74 -3 c 0,7,8
 19 -3 19 -3 19 33 c 0,9,0
 19 57 19 57 45 79.5 c 128,-1,1
195 340.5 m 128,-1,11
 221 363 221 363 248 363 c 0,12,13
 303 363 303 363 303 328 c 0,14,15
 303 302 303 302 277 280 c 128,-1,16
 251 258 251 258 223 258 c 128,-1,17
 195 258 195 258 182 268 c 128,-1,18
 169 278 169 278 169 298 c 128,-1,10
 169 318 169 318 195 340.5 c 128,-1,11
EndSplineSet
EndChar

StartChar: semicolon
Encoding: 59 59 30
Width: 238
GlyphClass: 2
Flags: W
LayerCount: 2
Fore
SplineSet
163 65 m 0,0,1
 163 11 163 11 118.5 -30 c 128,-1,2
 74 -71 74 -71 35 -71 c 0,3,4
 19 -71 19 -71 19 -64 c 1,5,-1
 21 -59 l 1,6,7
 65 -34 65 -34 65 -11 c 0,8,9
 65 -2 65 -2 59 -2 c 1,10,11
 29 5 29 5 29 30.5 c 128,-1,12
 29 56 29 56 55 79 c 128,-1,13
 81 102 81 102 115 102 c 0,14,15
 163 102 163 102 163 65 c 0,0,1
204 340.5 m 128,-1,17
 230 363 230 363 258 363 c 0,18,19
 312 363 312 363 312 328 c 0,20,21
 312 302 312 302 286 280 c 128,-1,22
 260 258 260 258 232 258 c 128,-1,23
 204 258 204 258 191 268 c 128,-1,24
 178 278 178 278 178 298 c 128,-1,16
 178 318 178 318 204 340.5 c 128,-1,17
EndSplineSet
EndChar

StartChar: less
Encoding: 60 60 31
Width: 554
GlyphClass: 2
Flags: W
LayerCount: 2
Fore
SplineSet
642 461 m 0,0,1
 655 461 655 461 655 452 c 0,2,3
 655 429 655 429 639 408.5 c 128,-1,4
 623 388 623 388 602 383 c 0,5,6
 292 306 292 306 292 270 c 0,7,8
 292 259 292 259 344 243 c 128,-1,9
 396 227 396 227 447.5 209.5 c 128,-1,10
 499 192 499 192 499 177 c 0,11,12
 499 159 499 159 485 139 c 128,-1,13
 471 119 471 119 455 119 c 1,14,-1
 444 123 l 1,15,16
 289 185 289 185 198 204 c 0,17,18
 163 212 163 212 136.5 217.5 c 128,-1,19
 110 223 110 223 101.5 226.5 c 128,-1,20
 93 230 93 230 93 238 c 0,21,22
 93 272 93 272 148 301 c 0,23,24
 205 330 205 330 399.5 395.5 c 128,-1,25
 594 461 594 461 642 461 c 0,0,1
EndSplineSet
EndChar

StartChar: equal
Encoding: 61 61 32
Width: 632
GlyphClass: 2
Flags: W
LayerCount: 2
Fore
SplineSet
616 461 m 1,0,-1
 724 464 l 2,1,2
 737 464 737 464 737 455 c 0,3,4
 737 441 737 441 715.5 415 c 128,-1,5
 694 389 694 389 664 389 c 2,6,-1
 370 391 l 1,7,-1
 243 389 l 2,8,9
 228 389 228 389 228 398 c 0,10,11
 228 412 228 412 249 438 c 128,-1,12
 270 464 270 464 301 464 c 2,13,-1
 616 461 l 1,0,-1
501 300 m 1,14,-1
 630 302 l 2,15,16
 644 302 644 302 644 293 c 0,17,18
 644 280 644 280 622.5 254 c 128,-1,19
 601 228 601 228 571 228 c 2,20,-1
 277 230 l 1,21,-1
 148 227 l 2,22,23
 134 227 134 227 134 237 c 0,24,25
 134 250 134 250 155.5 276 c 128,-1,26
 177 302 177 302 207 302 c 2,27,-1
 501 300 l 1,14,-1
EndSplineSet
EndChar

StartChar: greater
Encoding: 62 62 33
Width: 565
GlyphClass: 2
Flags: W
LayerCount: 2
Fore
SplineSet
72 130 m 0,0,1
 59 130 59 130 59 140 c 0,2,3
 59 160 59 160 75.5 181 c 128,-1,4
 92 202 92 202 109.5 206.5 c 128,-1,5
 127 211 127 211 158 218.5 c 128,-1,6
 189 226 189 226 207 230.5 c 128,-1,7
 225 235 225 235 254 242.5 c 128,-1,8
 283 250 283 250 300.5 255 c 128,-1,9
 318 260 318 260 340.5 267 c 128,-1,10
 363 274 363 274 376.5 279.5 c 128,-1,11
 390 285 390 285 403 292 c 0,12,13
 428 304 428 304 428 315 c 0,14,15
 428 330 428 330 374.5 347.5 c 128,-1,16
 321 365 321 365 267.5 382 c 128,-1,17
 214 399 214 399 214 413 c 0,18,19
 214 431 214 431 228 451 c 128,-1,20
 242 471 242 471 258 471 c 1,21,-1
 270 467 l 1,22,23
 407 411 407 411 479 391.5 c 128,-1,24
 551 372 551 372 577.5 364.5 c 128,-1,25
 604 357 604 357 612.5 352 c 128,-1,26
 621 347 621 347 621 337 c 128,-1,27
 621 327 621 327 608 309 c 128,-1,28
 595 291 595 291 553.5 270 c 128,-1,29
 512 249 512 249 316.5 189.5 c 128,-1,30
 121 130 121 130 72 130 c 0,0,1
EndSplineSet
EndChar

StartChar: question
Encoding: 63 63 34
Width: 389
GlyphClass: 2
Flags: W
LayerCount: 2
Fore
SplineSet
550.5 615 m 128,-1,1
 571 592 571 592 571 546 c 128,-1,2
 571 500 571 500 540 459 c 128,-1,3
 509 418 509 418 461.5 391.5 c 128,-1,4
 414 365 414 365 363.5 341 c 128,-1,5
 313 317 313 317 267.5 279.5 c 128,-1,6
 222 242 222 242 202 193 c 0,7,8
 193 170 193 170 142 170 c 0,9,10
 124 170 124 170 117.5 173 c 128,-1,11
 111 176 111 176 111 186 c 1,12,13
 133 241 133 241 175.5 284 c 128,-1,14
 218 327 218 327 262.5 354 c 128,-1,15
 307 381 307 381 349 406 c 0,16,17
 444 464 444 464 444 541 c 0,18,19
 444 565 444 565 423 575 c 128,-1,20
 402 585 402 585 374 585 c 128,-1,21
 346 585 346 585 312 568 c 128,-1,22
 278 551 278 551 260 534 c 2,23,-1
 241 517 l 2,24,25
 217 495 217 495 197.5 495 c 128,-1,26
 178 495 178 495 178 504.5 c 128,-1,27
 178 514 178 514 226 583 c 128,-1,28
 274 652 274 652 294 652 c 0,29,30
 305 652 305 652 324 642.5 c 128,-1,31
 343 633 343 633 347 633 c 128,-1,32
 351 633 351 633 359 635 c 1,33,34
 378 651 378 651 458 651 c 0,35,36
 484 651 484 651 507 644.5 c 128,-1,0
 530 638 530 638 550.5 615 c 128,-1,1
107 107 m 0,37,38
 151 107 151 107 153 72 c 1,39,40
 153 42 153 42 123 22.5 c 128,-1,41
 93 3 93 3 63 3 c 0,42,43
 20 3 20 3 18 38 c 1,44,-1
 18 39 l 2,45,46
 18 68 18 68 48.5 87.5 c 128,-1,47
 79 107 79 107 107 107 c 0,37,38
EndSplineSet
EndChar

StartChar: at
Encoding: 64 64 35
Width: 932
GlyphClass: 2
Flags: W
LayerCount: 2
Fore
SplineSet
277 -204 m 0,0,1
 164 -204 164 -204 106 -131.5 c 128,-1,2
 48 -59 48 -59 48 47 c 0,3,4
 48 177 48 177 126.5 293.5 c 128,-1,5
 205 410 205 410 331 478.5 c 128,-1,6
 457 547 457 547 593 547 c 0,7,8
 684 547 684 547 754.5 522.5 c 128,-1,9
 825 498 825 498 866 457 c 0,10,11
 950 375 950 375 950 265 c 0,12,13
 950 184 950 184 925 116.5 c 128,-1,14
 900 49 900 49 861 5 c 128,-1,15
 822 -39 822 -39 772 -70 c 0,16,17
 679 -127 679 -127 584 -127 c 0,18,19
 522 -127 522 -127 494 -101.5 c 128,-1,20
 466 -76 466 -76 466 -35 c 0,21,22
 466 -18 466 -18 473 3 c 128,-1,23
 480 24 480 24 480 27 c 0,24,25
 480 34 480 34 471.5 34 c 128,-1,26
 463 34 463 34 424 11.5 c 128,-1,27
 385 -11 385 -11 349.5 -11 c 128,-1,28
 314 -11 314 -11 298 6 c 0,29,30
 274 31 274 31 274 57.5 c 128,-1,31
 274 84 274 84 281.5 109 c 128,-1,32
 289 134 289 134 310.5 165 c 128,-1,33
 332 196 332 196 364.5 221.5 c 128,-1,34
 397 247 397 247 453.5 264.5 c 128,-1,35
 510 282 510 282 580 283 c 0,36,37
 597 283 597 283 597 301 c 0,38,39
 597 309 597 309 593 317 c 128,-1,40
 589 325 589 325 570.5 333 c 128,-1,41
 552 341 552 341 526 341 c 128,-1,42
 500 341 500 341 474 333.5 c 128,-1,43
 448 326 448 326 446 326 c 0,44,45
 436 326 436 326 436 336.5 c 128,-1,46
 436 347 436 347 450.5 362 c 128,-1,47
 465 377 465 377 500 390 c 128,-1,48
 535 403 535 403 581 403 c 0,49,50
 706 403 706 403 706 320 c 0,51,52
 706 280 706 280 684.5 230.5 c 128,-1,53
 663 181 663 181 636.5 142 c 128,-1,54
 610 103 610 103 588.5 57.5 c 128,-1,55
 567 12 567 12 567 -19 c 0,56,57
 567 -67 567 -67 621 -67 c 0,58,59
 656 -67 656 -67 695 -46 c 128,-1,60
 734 -25 734 -25 768.5 13.5 c 128,-1,61
 803 52 803 52 826 115 c 128,-1,62
 849 178 849 178 849 253 c 0,63,64
 849 347 849 347 775.5 415 c 128,-1,65
 702 483 702 483 578 483 c 0,66,67
 491 483 491 483 417.5 453 c 128,-1,68
 344 423 344 423 296 376.5 c 128,-1,69
 248 330 248 330 214 273 c 0,70,71
 150 166 150 166 150 69 c 0,72,73
 150 -131 150 -131 378 -131 c 0,74,75
 399 -131 399 -131 399 -140 c 0,76,77
 399 -169 399 -169 350 -191 c 0,78,79
 320 -204 320 -204 277 -204 c 0,0,1
568 207 m 0,80,81
 568 215 568 215 554 219.5 c 128,-1,82
 540 224 540 224 529 224 c 0,83,84
 459 224 459 224 420 181 c 128,-1,85
 381 138 381 138 381 105 c 128,-1,86
 381 72 381 72 412 72 c 0,87,88
 462 72 462 72 515 125.5 c 128,-1,89
 568 179 568 179 568 207 c 0,80,81
EndSplineSet
EndChar

StartChar: A
Encoding: 65 65 36
Width: 579
GlyphClass: 2
Flags: W
LayerCount: 2
Fore
SplineSet
107 252 m 0,0,1
 100 252 100 252 98 261 c 1,2,3
 98 278 98 278 122 300 c 128,-1,4
 146 322 146 322 160.5 328 c 128,-1,5
 175 334 175 334 257 336 c 1,6,-1
 271 352 l 1,7,8
 575 703 575 703 693 703 c 1,9,10
 703 704 703 704 716 704 c 0,11,12
 785 704 785 704 785 671 c 0,13,14
 785 665 785 665 772 639 c 2,15,-1
 727 549 l 2,16,17
 695 485 695 485 665 419 c 0,18,19
 503 62 503 62 477 -49 c 1,20,21
 477 -57 477 -57 456.5 -57 c 128,-1,22
 436 -57 436 -57 407 -34.5 c 128,-1,23
 378 -12 378 -12 378 5 c 0,24,25
 378 36 378 36 427 122 c 128,-1,26
 476 208 476 208 476 234 c 0,27,28
 476 269 476 269 340 269 c 0,29,30
 320 269 320 269 278 267 c 1,31,-1
 240 217 l 1,32,33
 170 123 170 123 106 -16 c 0,34,35
 95 -41 95 -41 39 -41 c 128,-1,36
 -17 -41 -17 -41 -17 -25 c 0,37,38
 -17 -14 -17 -14 45.5 71.5 c 128,-1,39
 108 157 108 157 194 261 c 1,40,41
 179 259 179 259 156 257 c 128,-1,42
 133 255 133 255 120.5 253.5 c 128,-1,43
 108 252 108 252 107 252 c 0,0,1
580.5 476 m 128,-1,45
 600 524 600 524 600 541 c 128,-1,46
 600 558 600 558 583 558 c 0,47,48
 553 558 553 558 484 494.5 c 128,-1,49
 415 431 415 431 334 336 c 1,50,-1
 443 334 l 2,51,52
 483 334 483 334 522 381 c 128,-1,44
 561 428 561 428 580.5 476 c 128,-1,45
EndSplineSet
EndChar

StartChar: B
Encoding: 66 66 37
Width: 568
GlyphClass: 2
Flags: W
LayerCount: 2
Fore
SplineSet
383 3.5 m 128,-1,1
 312 -22 312 -22 245 -22 c 128,-1,2
 178 -22 178 -22 149.5 -15.5 c 128,-1,3
 121 -9 121 -9 116 -9 c 0,4,5
 106 -9 106 -9 96 -15 c 1,6,7
 64 -44 64 -44 19 -44 c 128,-1,8
 -26 -44 -26 -44 -26 -28 c 0,9,10
 -26 -17 -26 -17 43.5 103 c 128,-1,11
 113 223 113 223 197.5 370 c 128,-1,12
 282 517 282 517 306.5 572 c 128,-1,13
 331 627 331 627 331 667 c 2,14,-1
 331 675 l 2,15,16
 331 702 331 702 486 702 c 0,17,18
 628 702 628 702 668 687 c 0,19,20
 720 667 720 667 733 634 c 0,21,22
 741 614 741 614 741 586 c 0,23,24
 741 541 741 541 708 501 c 0,25,26
 647 429 647 429 550 406 c 0,27,28
 513 397 513 397 506 391 c 128,-1,29
 499 385 499 385 499 378.5 c 128,-1,30
 499 372 499 372 513.5 362.5 c 128,-1,31
 528 353 528 353 545.5 342 c 128,-1,32
 563 331 563 331 577.5 306 c 128,-1,33
 592 281 592 281 592 242.5 c 128,-1,34
 592 204 592 204 567.5 157 c 128,-1,35
 543 110 543 110 498.5 69.5 c 128,-1,0
 454 29 454 29 383 3.5 c 128,-1,1
456.5 195 m 128,-1,37
 473 231 473 231 473 255.5 c 128,-1,38
 473 280 473 280 465.5 297.5 c 128,-1,39
 458 315 458 315 448 324 c 128,-1,40
 438 333 438 333 424 338 c 0,41,42
 403 346 403 346 382 346 c 2,43,-1
 372 346 l 2,44,45
 359 346 359 346 359 355 c 0,46,47
 359 376 359 376 374.5 399.5 c 128,-1,48
 390 423 390 423 410 423 c 0,49,50
 491 423 491 423 555 477 c 128,-1,51
 619 531 619 531 619 592 c 0,52,53
 619 645 619 645 549 645 c 0,54,55
 491 645 491 645 468 617 c 0,56,57
 405 539 405 539 286 326.5 c 128,-1,58
 167 114 167 114 167 77 c 0,59,60
 167 62 167 62 183.5 51 c 128,-1,61
 200 40 200 40 243.5 40 c 128,-1,62
 287 40 287 40 334.5 64.5 c 128,-1,63
 382 89 382 89 411 124 c 128,-1,36
 440 159 440 159 456.5 195 c 128,-1,37
EndSplineSet
EndChar

StartChar: C
Encoding: 67 67 38
Width: 495
GlyphClass: 2
Flags: W
LayerCount: 2
Fore
SplineSet
234 -24 m 0,0,1
 69 -24 69 -24 69 144 c 0,2,3
 69 193 69 193 92.5 263 c 128,-1,4
 116 333 116 333 162 408.5 c 128,-1,5
 208 484 208 484 266 549 c 128,-1,6
 324 614 324 614 402 656 c 128,-1,7
 480 698 480 698 559 698 c 0,8,9
 596 698 596 698 616 689.5 c 128,-1,10
 636 681 636 681 637.5 681 c 128,-1,11
 639 681 639 681 662.5 691 c 128,-1,12
 686 701 686 701 718.5 701 c 128,-1,13
 751 701 751 701 751 682.5 c 128,-1,14
 751 664 751 664 712.5 602 c 128,-1,15
 674 540 674 540 620 483 c 128,-1,16
 566 426 566 426 534 426 c 1,17,18
 530 425 530 425 524 425 c 0,19,20
 505 425 505 425 505 436 c 0,21,22
 505 438 505 438 519 458.5 c 128,-1,23
 533 479 533 479 547 513.5 c 128,-1,24
 561 548 561 548 561 569 c 128,-1,25
 561 590 561 590 559 599 c 128,-1,26
 557 608 557 608 545.5 620 c 128,-1,27
 534 632 534 632 514 632 c 0,28,29
 460 632 460 632 385.5 550 c 128,-1,30
 311 468 311 468 257.5 357.5 c 128,-1,31
 204 247 204 247 204 170 c 0,32,33
 204 78 204 78 288 78 c 0,34,35
 388 78 388 78 482 207 c 1,36,37
 486 215 486 215 490.5 215 c 128,-1,38
 495 215 495 215 497.5 214.5 c 128,-1,39
 500 214 500 214 504.5 208.5 c 128,-1,40
 509 203 509 203 509 188 c 128,-1,41
 509 173 509 173 488.5 138 c 128,-1,42
 468 103 468 103 434 66 c 128,-1,43
 400 29 400 29 346 2.5 c 128,-1,44
 292 -24 292 -24 234 -24 c 0,0,1
EndSplineSet
EndChar

StartChar: D
Encoding: 68 68 39
Width: 598
GlyphClass: 2
Flags: W
LayerCount: 2
Fore
SplineSet
232 -23 m 0,0,1
 179 -23 179 -23 164 -19.5 c 128,-1,2
 149 -16 149 -16 138.5 -13.5 c 128,-1,3
 128 -11 128 -11 125 -10 c 128,-1,4
 122 -9 122 -9 116 -9 c 0,5,6
 104 -9 104 -9 94 -15 c 1,7,8
 59 -44 59 -44 2 -44 c 0,9,10
 -28 -44 -28 -44 -28 -30.5 c 128,-1,11
 -28 -17 -28 -17 41.5 103 c 128,-1,12
 111 223 111 223 195.5 370 c 128,-1,13
 280 517 280 517 304.5 572 c 128,-1,14
 329 627 329 627 329 667 c 2,15,-1
 329 675 l 2,16,17
 329 704 329 704 496 704 c 0,18,19
 744 704 744 704 744 535 c 0,20,21
 744 413 744 413 661 266 c 0,22,23
 618 189 618 189 560 125 c 128,-1,24
 502 61 502 61 415.5 19 c 128,-1,25
 329 -23 329 -23 232 -23 c 0,0,1
617.5 453.5 m 128,-1,27
 637 516 637 516 637 558.5 c 128,-1,28
 637 601 637 601 612.5 623 c 128,-1,29
 588 645 588 645 530 645 c 0,30,31
 490 645 490 645 466 617 c 1,32,33
 403 538 403 538 284 325.5 c 128,-1,34
 165 113 165 113 165 77 c 0,35,36
 165 37 165 37 250 37 c 0,37,38
 310 37 310 37 371 79 c 128,-1,39
 432 121 432 121 478 184.5 c 128,-1,40
 524 248 524 248 561 319.5 c 128,-1,26
 598 391 598 391 617.5 453.5 c 128,-1,27
EndSplineSet
EndChar

StartChar: E
Encoding: 69 69 40
Width: 551
GlyphClass: 2
Flags: W
LayerCount: 2
Fore
SplineSet
466 330 m 1,0,-1
 381 333 l 1,1,2
 318 333 318 333 284 292 c 0,3,4
 260 262 260 262 220.5 194 c 128,-1,5
 181 126 181 126 181 86 c 0,6,7
 181 49 181 49 254 49 c 0,8,9
 299 49 299 49 350 66 c 0,10,11
 453 100 453 100 513 196 c 1,12,13
 520 205 520 205 537 205 c 128,-1,14
 554 205 554 205 554 185.5 c 128,-1,15
 554 166 554 166 522 104 c 128,-1,16
 490 42 490 42 465 11 c 0,17,18
 452 -5 452 -5 414.5 -7 c 128,-1,19
 377 -9 377 -9 300 -9 c 2,20,-1
 202 -9 l 1,21,-1
 145 -8 l 1,22,-1
 118 -6 l 2,23,24
 117 -6 117 -6 111 -6 c 128,-1,25
 105 -6 105 -6 96 -15 c 0,26,27
 63 -44 63 -44 2 -44 c 0,28,29
 -27 -44 -27 -44 -27 -31 c 2,30,-1
 -27 -28 l 2,31,32
 -27 -17 -27 -17 42.5 102.5 c 128,-1,33
 112 222 112 222 197 369 c 128,-1,34
 282 516 282 516 306 570.5 c 128,-1,35
 330 625 330 625 330 664 c 2,36,-1
 330 675 l 2,37,38
 330 692 330 692 543 692 c 0,39,40
 613 692 613 692 665 690 c 1,41,42
 680 707 680 707 742 707 c 0,43,44
 768 707 768 707 768 694 c 0,45,46
 768 671 768 671 722.5 601.5 c 128,-1,47
 677 532 677 532 643 507 c 0,48,49
 632 498 632 498 615 498 c 128,-1,50
 598 498 598 498 598 505 c 0,51,52
 598 508 598 508 601 513 c 0,53,54
 617 544 617 544 617 583 c 0,55,56
 617 638 617 638 541 638 c 0,57,58
 495 638 495 638 468.5 614 c 128,-1,59
 442 590 442 590 416 547 c 128,-1,60
 390 504 390 504 377.5 473 c 128,-1,61
 365 442 365 442 365 434 c 0,62,63
 365 410 365 410 388.5 404.5 c 128,-1,64
 412 399 412 399 482 399 c 1,65,-1
 556 402 l 2,66,67
 566 402 566 402 566 394.5 c 128,-1,68
 566 387 566 387 555.5 369.5 c 128,-1,69
 545 352 545 352 534 345 c 0,70,71
 512 330 512 330 466 330 c 1,0,-1
EndSplineSet
EndChar

StartChar: F
Encoding: 70 70 41
Width: 416
GlyphClass: 2
Flags: W
LayerCount: 2
Fore
SplineSet
453 330 m 1,0,-1
 367 333 l 1,1,2
 304 333 304 333 271 292 c 1,3,4
 218 223 218 223 161.5 111.5 c 128,-1,5
 105 0 105 0 83 -16 c 0,6,7
 47 -44 47 -44 -9 -44 c 0,8,9
 -39 -44 -39 -44 -39 -31 c 2,10,-1
 -39 -28 l 2,11,12
 -39 -17 -39 -17 30.5 102.5 c 128,-1,13
 100 222 100 222 184.5 369 c 128,-1,14
 269 516 269 516 293.5 571 c 128,-1,15
 318 626 318 626 318 665 c 2,16,-1
 318 675 l 2,17,18
 318 692 318 692 531 692 c 0,19,20
 601 692 601 692 653 690 c 1,21,22
 668 707 668 707 729 707 c 0,23,24
 756 707 756 707 756 694 c 0,25,26
 756 670 756 670 707.5 597.5 c 128,-1,27
 659 525 659 525 626 504 c 1,28,29
 612 497 612 497 599 497 c 128,-1,30
 586 497 586 497 586 505 c 0,31,32
 586 506 586 506 591 516 c 0,33,34
 605 544 605 544 605 583 c 0,35,36
 605 638 605 638 528 638 c 0,37,38
 482 638 482 638 455.5 614 c 128,-1,39
 429 590 429 590 403 547 c 128,-1,40
 377 504 377 504 364.5 473 c 128,-1,41
 352 442 352 442 352 430.5 c 128,-1,42
 352 419 352 419 363 409 c 128,-1,43
 374 399 374 399 470 399 c 0,44,45
 513 399 513 399 528 400.5 c 128,-1,46
 543 402 543 402 544 402 c 0,47,48
 553 402 553 402 553 395 c 0,49,50
 553 391 553 391 552 389 c 0,51,52
 538 355 538 355 518.5 342.5 c 128,-1,53
 499 330 499 330 453 330 c 1,0,-1
EndSplineSet
EndChar

StartChar: G
Encoding: 71 71 42
Width: 514
GlyphClass: 2
Flags: W
LayerCount: 2
Fore
SplineSet
407 -6 m 0,0,1
 393 -6 393 -6 382.5 7 c 128,-1,2
 372 20 372 20 369 33 c 2,3,-1
 366 46 l 2,4,5
 363 57 363 57 351.5 57 c 128,-1,6
 340 57 340 57 331 50 c 0,7,8
 237 -24 237 -24 156 -24 c 0,9,10
 52 -24 52 -24 52 115 c 0,11,12
 52 164 52 164 77.5 237 c 128,-1,13
 103 310 103 310 151 389.5 c 128,-1,14
 199 469 199 469 259.5 538.5 c 128,-1,15
 320 608 320 608 399.5 653 c 128,-1,16
 479 698 479 698 558 698 c 0,17,18
 601 698 601 698 628 683 c 0,19,20
 632 681 632 681 637 681 c 128,-1,21
 642 681 642 681 647 684 c 0,22,23
 672 701 672 701 711 701 c 128,-1,24
 750 701 750 701 750 682 c 0,25,26
 750 658 750 658 700 587 c 0,27,28
 622 476 622 476 572 476 c 0,29,30
 559 476 559 476 554.5 478 c 128,-1,31
 550 480 550 480 550 486 c 128,-1,32
 550 492 550 492 556 506 c 0,33,34
 576 548 576 548 576 575.5 c 128,-1,35
 576 603 576 603 565.5 617.5 c 128,-1,36
 555 632 555 632 522 632 c 0,37,38
 462 632 462 632 379.5 541.5 c 128,-1,39
 297 451 297 451 238 332.5 c 128,-1,40
 179 214 179 214 179 137 c 0,41,42
 179 72 179 72 233 72 c 0,43,44
 275 72 275 72 328.5 115 c 128,-1,45
 382 158 382 158 416.5 207.5 c 128,-1,46
 451 257 451 257 451 278.5 c 128,-1,47
 451 300 451 300 430 308.5 c 128,-1,48
 409 317 409 317 349 317 c 0,49,50
 337 317 337 317 337 326 c 0,51,52
 337 343 337 343 356.5 361 c 128,-1,53
 376 379 376 379 394 381 c 0,54,55
 466 386 466 386 545.5 386 c 128,-1,56
 625 386 625 386 625 372 c 0,57,58
 625 360 625 360 611.5 335 c 128,-1,59
 598 310 598 310 589.5 294.5 c 128,-1,60
 581 279 581 279 564.5 251.5 c 128,-1,61
 548 224 548 224 538 208 c 128,-1,62
 528 192 528 192 507.5 159.5 c 128,-1,63
 487 127 487 127 475 107 c 128,-1,64
 463 87 463 87 445.5 54 c 128,-1,65
 428 21 428 21 420 7.5 c 128,-1,66
 412 -6 412 -6 407 -6 c 0,0,1
EndSplineSet
EndChar

StartChar: H
Encoding: 72 72 43
Width: 549
GlyphClass: 2
Flags: W
LayerCount: 2
Fore
SplineSet
360 662 m 2,0,-1
 360 675 l 2,1,2
 360 701 360 701 467 701 c 0,3,4
 521 701 521 701 521 681 c 0,5,6
 521 673 521 673 513 665 c 1,7,8
 475 613 475 613 351 402 c 1,9,-1
 475 401 l 2,10,11
 516 401 516 401 550 434 c 1,12,13
 567 452 567 452 580.5 467.5 c 128,-1,14
 594 483 594 483 611 512 c 128,-1,15
 628 541 628 541 638 558 c 0,16,17
 652 583 652 583 687 654 c 1,18,19
 687 659 687 659 694.5 666.5 c 128,-1,20
 702 674 702 674 712.5 679.5 c 128,-1,21
 723 685 723 685 745 689 c 128,-1,22
 767 693 767 693 797 693 c 128,-1,23
 827 693 827 693 827 680 c 0,24,25
 827 674 827 674 822.5 666.5 c 128,-1,26
 818 659 818 659 770.5 586 c 128,-1,27
 723 513 723 513 675 434.5 c 128,-1,28
 627 356 627 356 573.5 264 c 128,-1,29
 520 172 520 172 486.5 96 c 128,-1,30
 453 20 453 20 453 -15 c 1,31,32
 447 -32 447 -32 428 -32 c 0,33,34
 373 -32 373 -32 352 -23 c 128,-1,35
 331 -14 331 -14 331 4 c 0,36,37
 331 35 331 35 397.5 149 c 128,-1,38
 464 263 464 263 464 287.5 c 128,-1,39
 464 312 464 312 444 324 c 128,-1,40
 424 336 424 336 377 336 c 128,-1,41
 330 336 330 336 312 335 c 1,42,43
 278 280 278 280 234 194 c 128,-1,44
 190 108 190 108 160 53 c 128,-1,45
 130 -2 130 -2 112 -16 c 0,46,47
 75 -44 75 -44 21 -44 c 0,48,49
 -10 -44 -10 -44 -10 -28 c 0,50,51
 -10 -19 -10 -19 16.5 25.5 c 128,-1,52
 43 70 43 70 102 165.5 c 128,-1,53
 161 261 161 261 204 333 c 1,54,-1
 143 330 l 2,55,56
 128 330 128 330 128 338 c 0,57,58
 128 355 128 355 149.5 372 c 128,-1,59
 171 389 171 389 185 394 c 128,-1,60
 199 399 199 399 243 401 c 1,61,62
 280 464 280 464 338 576 c 1,63,64
 360 624 360 624 360 662 c 2,0,-1
EndSplineSet
EndChar

StartChar: I
Encoding: 73 73 44
Width: 247
GlyphClass: 2
Flags: W
LayerCount: 2
Fore
SplineSet
163 50 m 0,0,1
 163 30 163 30 165.5 20 c 128,-1,2
 168 10 168 10 168 5 c 0,3,4
 168 -18 168 -18 70.5 -18 c 128,-1,5
 -27 -18 -27 -18 -27 5 c 1,6,-1
 -21 17 l 1,7,8
 13 37 13 37 115 202.5 c 128,-1,9
 217 368 217 368 322 576 c 0,10,11
 344 620 344 620 344 659 c 2,12,-1
 344 675 l 2,13,14
 344 701 344 701 451 701 c 0,15,16
 505 701 505 701 505 681 c 0,17,18
 505 673 505 673 497 665 c 1,19,20
 429 577 429 577 296 335.5 c 128,-1,21
 163 94 163 94 163 50 c 0,0,1
EndSplineSet
EndChar

StartChar: J
Encoding: 74 74 45
Width: 504
GlyphClass: 2
Flags: W
LayerCount: 2
Fore
SplineSet
208 50 m 0,0,1
 284 50 284 50 366 181 c 0,2,3
 479 363 479 363 586 576 c 0,4,5
 608 621 608 621 608 662 c 2,6,-1
 608 675 l 2,7,8
 608 701 608 701 715 701 c 0,9,10
 769 701 769 701 769 681 c 0,11,12
 769 673 769 673 751.5 651.5 c 128,-1,13
 734 630 734 630 652.5 492.5 c 128,-1,14
 571 355 571 355 547.5 311.5 c 128,-1,15
 524 268 524 268 503.5 228.5 c 128,-1,16
 483 189 483 189 472.5 169.5 c 128,-1,17
 462 150 462 150 446.5 121.5 c 128,-1,18
 431 93 431 93 421 80.5 c 128,-1,19
 411 68 411 68 395.5 50 c 128,-1,20
 380 32 380 32 366 24.5 c 128,-1,21
 352 17 352 17 333.5 7.5 c 128,-1,22
 315 -2 315 -2 293 -5 c 0,23,24
 234 -13 234 -13 188.5 -13 c 128,-1,25
 143 -13 143 -13 113 4 c 0,26,27
 109 6 109 6 103.5 6 c 128,-1,28
 98 6 98 6 94 3 c 0,29,30
 67 -14 67 -14 29 -14 c 128,-1,31
 -9 -14 -9 -14 -9 5 c 0,32,33
 -9 34 -9 34 67.5 155.5 c 128,-1,34
 144 277 144 277 195 304 c 1,35,36
 206 311 206 311 225 311 c 128,-1,37
 244 311 244 311 244 300 c 0,38,39
 244 298 244 298 223 264 c 128,-1,40
 202 230 202 230 181.5 182.5 c 128,-1,41
 161 135 161 135 161 107.5 c 128,-1,42
 161 80 161 80 173.5 65 c 128,-1,43
 186 50 186 50 208 50 c 0,0,1
EndSplineSet
EndChar

StartChar: K
Encoding: 75 75 46
Width: 514
GlyphClass: 2
Flags: W
LayerCount: 2
Fore
SplineSet
459 15 m 1,0,-1
 460 -6 l 2,1,2
 460 -22 460 -22 412 -22 c 0,3,4
 327 -22 327 -22 327 12 c 0,5,6
 327 43 327 43 378 163.5 c 128,-1,7
 429 284 429 284 429 311 c 0,8,9
 429 361 429 361 351 361 c 2,10,-1
 317 361 l 1,11,-1
 270 278 l 2,12,13
 238 222 238 222 201 147 c 128,-1,14
 164 72 164 72 143 36 c 128,-1,15
 122 0 122 0 102 -16 c 0,16,17
 67 -44 67 -44 10 -44 c 0,18,19
 -16 -44 -16 -44 -19 -35 c 0,20,21
 -20 -32 -20 -32 -20 -25 c 128,-1,22
 -20 -18 -20 -18 9 30.5 c 128,-1,23
 38 79 38 79 99.5 178.5 c 128,-1,24
 161 278 161 278 207 357 c 1,25,-1
 138 354 l 2,26,27
 131 354 131 354 128 362 c 1,28,29
 128 379 128 379 146 394.5 c 128,-1,30
 164 410 164 410 179 415.5 c 128,-1,31
 194 421 194 421 245 423 c 1,32,33
 294 510 294 510 328 576 c 1,34,35
 350 627 350 627 350 666 c 2,36,-1
 350 675 l 2,37,38
 350 701 350 701 456 701 c 0,39,40
 510 701 510 701 510 681 c 0,41,42
 510 673 510 673 487.5 644 c 128,-1,43
 465 615 465 615 352 422 c 1,44,45
 382 423 382 423 409 435 c 128,-1,46
 436 447 436 447 495 502 c 128,-1,47
 554 557 554 557 639 661 c 0,48,49
 641 665 641 665 647 671.5 c 128,-1,50
 653 678 653 678 684.5 688.5 c 128,-1,51
 716 699 716 699 771.5 699 c 128,-1,52
 827 699 827 699 827 681 c 0,53,54
 827 675 827 675 739 613 c 0,55,56
 475 427 475 427 475 397 c 0,57,58
 475 384 475 384 507 361 c 128,-1,59
 539 338 539 338 539 315 c 0,60,61
 539 314 539 314 499 192.5 c 128,-1,62
 459 71 459 71 459 15 c 1,0,-1
EndSplineSet
EndChar

StartChar: L
Encoding: 76 76 47
Width: 523
GlyphClass: 2
Flags: W
LayerCount: 2
Fore
SplineSet
130 -7 m 1,0,-1
 116 -6 l 2,1,2
 102 -6 102 -6 95 -15 c 1,3,4
 61 -44 61 -44 3 -44 c 0,5,6
 -27 -44 -27 -44 -27 -31 c 2,7,-1
 -27 -28 l 2,8,9
 -27 -17 -27 -17 42.5 102.5 c 128,-1,10
 112 222 112 222 196.5 369 c 128,-1,11
 281 516 281 516 305.5 571 c 128,-1,12
 330 626 330 626 330 662 c 2,13,-1
 330 675 l 2,14,15
 330 701 330 701 437 701 c 0,16,17
 491 701 491 701 491 681 c 0,18,19
 491 673 491 673 483 665 c 1,20,21
 403 535 403 535 271 294 c 1,22,-1
 257 269 l 2,23,24
 243 244 243 244 237 233.5 c 128,-1,25
 231 223 231 223 218.5 197.5 c 128,-1,26
 206 172 206 172 200 156 c 0,27,28
 183 111 183 111 183 86 c 0,29,30
 183 49 183 49 249 49 c 2,31,-1
 256 49 l 2,32,33
 297 49 297 49 346 66 c 0,34,35
 442 100 442 100 502 196 c 1,36,37
 506 205 506 205 524.5 205 c 128,-1,38
 543 205 543 205 543 189 c 0,39,40
 543 165 543 165 511 103 c 128,-1,41
 479 41 479 41 453 11 c 1,42,43
 440 -7 440 -7 403 -7 c 1,44,45
 366 -9 366 -9 243 -9 c 1,46,-1
 130 -7 l 1,0,-1
EndSplineSet
EndChar

StartChar: M
Encoding: 77 77 48
Width: 719
GlyphClass: 2
Flags: W
LayerCount: 2
Fore
SplineSet
385 107 m 0,0,1
 372 83 372 83 341.5 83 c 128,-1,2
 311 83 311 83 301.5 91.5 c 128,-1,3
 292 100 292 100 292 136.5 c 128,-1,4
 292 173 292 173 331 306.5 c 128,-1,5
 370 440 370 440 370 460.5 c 128,-1,6
 370 481 370 481 362 481 c 0,7,8
 350 481 350 481 332 460.5 c 128,-1,9
 314 440 314 440 302 420 c 2,10,-1
 290 399 l 1,11,12
 226 295 226 295 173.5 190.5 c 128,-1,13
 121 86 121 86 96.5 37.5 c 128,-1,14
 72 -11 72 -11 54 -24 c 128,-1,15
 36 -37 36 -37 2.5 -37 c 128,-1,16
 -31 -37 -31 -37 -31 -22 c 2,17,-1
 -31 -19 l 2,18,19
 -31 -9 -31 -9 21 74 c 0,20,21
 213 379 213 379 310 572 c 0,22,23
 333 618 333 618 333 658 c 2,24,-1
 333 670 l 2,25,26
 333 688 333 688 374.5 699 c 128,-1,27
 416 710 416 710 443 710 c 2,28,-1
 476 710 l 2,29,30
 518 710 518 710 538 694 c 0,31,32
 547 688 547 688 547 678 c 128,-1,33
 547 668 547 668 507.5 539.5 c 128,-1,34
 468 411 468 411 468 385 c 128,-1,35
 468 359 468 359 476 359 c 0,36,37
 501 359 501 359 564 420.5 c 128,-1,38
 627 482 627 482 708 568 c 1,39,40
 774 640 774 640 834 692 c 0,41,42
 847 704 847 704 865 706 c 0,43,44
 904 712 904 712 948.5 712 c 128,-1,45
 993 712 993 712 993 692 c 0,46,47
 993 688 993 688 992.5 686 c 128,-1,48
 992 684 992 684 955 625.5 c 128,-1,49
 918 567 918 567 865 480.5 c 128,-1,50
 812 394 812 394 759 301.5 c 128,-1,51
 706 209 706 209 669 125.5 c 128,-1,52
 632 42 632 42 632 3 c 1,53,54
 623 -14 623 -14 604 -14 c 0,55,56
 505 -14 505 -14 505 21 c 0,57,58
 505 102 505 102 706 410 c 0,59,60
 732 449 732 449 732 459 c 128,-1,61
 732 469 732 469 717 469 c 0,62,63
 679 469 679 469 557 333.5 c 128,-1,64
 435 198 435 198 385 107 c 0,0,1
EndSplineSet
EndChar

StartChar: N
Encoding: 78 78 49
Width: 547
GlyphClass: 2
Flags: W
LayerCount: 2
Fore
SplineSet
322.5 246 m 128,-1,1
 355 425 355 425 355 443.5 c 128,-1,2
 355 462 355 462 344.5 462 c 128,-1,3
 334 462 334 462 316 441 c 128,-1,4
 298 420 298 420 286 400 c 2,5,-1
 273 379 l 2,6,7
 193 248 193 248 92 32 c 0,8,9
 72 -12 72 -12 54 -24.5 c 128,-1,10
 36 -37 36 -37 2.5 -37 c 128,-1,11
 -31 -37 -31 -37 -31 -22 c 2,12,-1
 -31 -19 l 2,13,14
 -31 -6 -31 -6 20 76 c 0,15,16
 215 389 215 389 305 571 c 0,17,18
 328 617 328 617 328 654 c 2,19,-1
 328 670 l 2,20,21
 328 677 328 677 333.5 684.5 c 128,-1,22
 339 692 339 692 368 700.5 c 128,-1,23
 397 709 397 709 448 709 c 0,24,25
 525 709 525 709 525 680 c 0,26,27
 525 671 525 671 484 486 c 128,-1,28
 443 301 443 301 443 262.5 c 128,-1,29
 443 224 443 224 451 224 c 0,30,31
 463 224 463 224 476 237 c 128,-1,32
 489 250 489 250 496 262 c 2,33,-1
 503 275 l 1,34,35
 567 380 567 380 618 483.5 c 128,-1,36
 669 587 669 587 693 636 c 128,-1,37
 717 685 717 685 735 698 c 1,38,39
 761 713 761 713 801 713 c 128,-1,40
 841 713 841 713 841 701 c 2,41,-1
 841 699 l 2,42,43
 841 692 841 692 788 615 c 128,-1,44
 735 538 735 538 647.5 398.5 c 128,-1,45
 560 259 560 259 495 132 c 1,46,47
 467 67 467 67 467 28 c 0,48,49
 467 16 467 16 462.5 10 c 128,-1,50
 458 4 458 4 431.5 -1.5 c 128,-1,51
 405 -7 405 -7 377 -7 c 2,52,-1
 345 -7 l 2,53,54
 334 -7 334 -7 318 -2 c 0,55,56
 290 6 290 6 290 23 c 0,57,0
 290 67 290 67 322.5 246 c 128,-1,1
EndSplineSet
EndChar

StartChar: O
Encoding: 79 79 50
Width: 602
GlyphClass: 2
Flags: W
LayerCount: 2
Fore
SplineSet
747 539 m 0,0,1
 747 483 747 483 724.5 411 c 128,-1,2
 702 339 702 339 658 264 c 128,-1,3
 614 189 614 189 556.5 125.5 c 128,-1,4
 499 62 499 62 420.5 21.5 c 128,-1,5
 342 -19 342 -19 258.5 -19 c 128,-1,6
 175 -19 175 -19 127 27.5 c 128,-1,7
 79 74 79 74 79 156 c 0,8,9
 79 212 79 212 101.5 284 c 128,-1,10
 124 356 124 356 168 431 c 128,-1,11
 212 506 212 506 269.5 569 c 128,-1,12
 327 632 327 632 405.5 672.5 c 128,-1,13
 484 713 484 713 567.5 713 c 128,-1,14
 651 713 651 713 699 667 c 128,-1,15
 747 621 747 621 747 539 c 0,0,1
629 548 m 0,16,17
 629 658 629 658 549 658 c 0,18,19
 482 658 482 658 399.5 573 c 128,-1,20
 317 488 317 488 259.5 367.5 c 128,-1,21
 202 247 202 247 202 152 c 0,22,23
 202 42 202 42 282 42 c 0,24,25
 348 42 348 42 431 127 c 128,-1,26
 514 212 514 212 571.5 332.5 c 128,-1,27
 629 453 629 453 629 548 c 0,16,17
EndSplineSet
EndChar

StartChar: P
Encoding: 80 80 51
Width: 528
GlyphClass: 2
Flags: W
LayerCount: 2
Fore
SplineSet
741 451 m 128,-1,1
 712 397 712 397 675.5 363.5 c 128,-1,2
 639 330 639 330 570 306 c 128,-1,3
 501 282 501 282 408 282 c 128,-1,4
 315 282 315 282 279 261 c 128,-1,5
 243 240 243 240 209 180 c 1,6,7
 184 138 184 138 158.5 83 c 128,-1,8
 133 28 133 28 126 6 c 128,-1,9
 119 -16 119 -16 88 -29.5 c 128,-1,10
 57 -43 57 -43 30 -44 c 2,11,-1
 2 -46 l 1,12,13
 -28 -46 -28 -46 -28 -33 c 2,14,-1
 -28 -30 l 2,15,16
 -28 -19 -28 -19 41.5 101 c 128,-1,17
 111 221 111 221 195.5 368 c 128,-1,18
 280 515 280 515 304.5 570 c 128,-1,19
 329 625 329 625 329 663 c 2,20,-1
 329 673 l 2,21,22
 329 689 329 689 397.5 697.5 c 128,-1,23
 466 706 466 706 545 706 c 0,24,25
 671 706 671 706 720.5 671.5 c 128,-1,26
 770 637 770 637 770 571 c 128,-1,0
 770 505 770 505 741 451 c 128,-1,1
377 482.5 m 128,-1,28
 314 378 314 378 314 365.5 c 128,-1,29
 314 353 314 353 328 349 c 128,-1,30
 342 345 342 345 395.5 345 c 128,-1,31
 449 345 449 345 499.5 364 c 128,-1,32
 550 383 550 383 579 410 c 128,-1,33
 608 437 608 437 627 470 c 0,34,35
 659 526 659 526 659 561 c 128,-1,36
 659 596 659 596 649.5 613.5 c 128,-1,37
 640 631 640 631 622 638 c 0,38,39
 592 649 592 649 543.5 649 c 128,-1,40
 495 649 495 649 467.5 618 c 128,-1,27
 440 587 440 587 377 482.5 c 128,-1,28
EndSplineSet
EndChar

StartChar: Q
Encoding: 81 81 52
Width: 602
GlyphClass: 2
Flags: W
LayerCount: 2
Fore
SplineSet
261 -19 m 0,0,1
 177 -19 177 -19 129 27.5 c 128,-1,2
 81 74 81 74 81 156 c 0,3,4
 81 212 81 212 103.5 284 c 128,-1,5
 126 356 126 356 170 431 c 128,-1,6
 214 506 214 506 271.5 569 c 128,-1,7
 329 632 329 632 407.5 672.5 c 128,-1,8
 486 713 486 713 569.5 713 c 128,-1,9
 653 713 653 713 701 667 c 128,-1,10
 749 621 749 621 749 530 c 128,-1,11
 749 439 749 439 680 303.5 c 128,-1,12
 611 168 611 168 511 92 c 0,13,14
 471 61 471 61 471 43 c 0,15,16
 471 38 471 38 475 25.5 c 128,-1,17
 479 13 479 13 479 0 c 0,18,19
 479 -34 479 -34 455.5 -71 c 128,-1,20
 432 -108 432 -108 404 -108 c 1,21,-1
 401 -105 l 1,22,23
 399 -99 399 -99 397 -88 c 0,24,25
 386 -10 386 -10 343 -10 c 1,26,-1
 330 -12 l 1,27,28
 303 -19 303 -19 261 -19 c 0,0,1
407 282 m 0,29,30
 414 282 414 282 416 272 c 0,31,32
 416 268 416 268 419.5 241 c 128,-1,33
 423 214 423 214 426.5 200.5 c 128,-1,34
 430 187 430 187 434 177 c 0,35,36
 443 154 443 154 457 154 c 0,37,38
 478 154 478 154 519.5 218 c 128,-1,39
 561 282 561 282 596 378.5 c 128,-1,40
 631 475 631 475 631 548 c 0,41,42
 631 658 631 658 551 658 c 0,43,44
 485 658 485 658 402 573 c 128,-1,45
 319 488 319 488 261.5 367.5 c 128,-1,46
 204 247 204 247 204 152 c 0,47,48
 204 131 204 131 207.5 110.5 c 128,-1,49
 211 90 211 90 230.5 66 c 128,-1,50
 250 42 250 42 284 42 c 0,51,52
 345 42 345 42 345 65 c 0,53,54
 345 75 345 75 334 94 c 128,-1,55
 323 113 323 113 323 139 c 0,56,57
 323 187 323 187 355.5 234.5 c 128,-1,58
 388 282 388 282 407 282 c 0,29,30
EndSplineSet
EndChar

StartChar: R
Encoding: 82 82 53
Width: 541
GlyphClass: 2
Flags: W
LayerCount: 2
Fore
SplineSet
482 30 m 1,0,-1
 484 0 l 1,1,2
 484 -16 484 -16 436 -16 c 0,3,4
 352 -16 352 -16 352 16 c 128,-1,5
 352 48 352 48 396.5 154 c 128,-1,6
 441 260 441 260 441 286 c 0,7,8
 441 339 441 339 376 339 c 1,9,-1
 360 338 l 2,10,11
 348 338 348 338 348 347 c 0,12,13
 348 366 348 366 362.5 385.5 c 128,-1,14
 377 405 377 405 399 405 c 0,15,16
 490 405 490 405 562 459 c 128,-1,17
 634 513 634 513 634 573 c 0,18,19
 634 616 634 616 607.5 633 c 128,-1,20
 581 650 581 650 535 650 c 128,-1,21
 489 650 489 650 465 622 c 1,22,23
 406 548 406 548 275.5 312.5 c 128,-1,24
 145 77 145 77 129 23 c 1,25,26
 120 -2 120 -2 82.5 -14 c 128,-1,27
 45 -26 45 -26 9.5 -26 c 128,-1,28
 -26 -26 -26 -26 -26 -12 c 2,29,-1
 -26 -10 l 2,30,31
 -26 1 -26 1 43 118 c 128,-1,32
 112 235 112 235 195.5 378.5 c 128,-1,33
 279 522 279 522 303.5 577 c 128,-1,34
 328 632 328 632 328 670 c 2,35,-1
 328 680 l 2,36,37
 328 707 328 707 480 707 c 0,38,39
 643 707 643 707 695 674 c 0,40,41
 717 660 717 660 732.5 633 c 128,-1,42
 748 606 748 606 748 564 c 128,-1,43
 748 522 748 522 714 479 c 128,-1,44
 680 436 680 436 641.5 415.5 c 128,-1,45
 603 395 603 395 565 386 c 128,-1,46
 527 377 527 377 508 371 c 128,-1,47
 489 365 489 365 489 352 c 0,48,49
 489 344 489 344 503.5 332.5 c 128,-1,50
 518 321 518 321 533 305 c 128,-1,51
 548 289 548 289 548 271 c 128,-1,52
 548 253 548 253 515 167.5 c 128,-1,53
 482 82 482 82 482 30 c 1,0,-1
EndSplineSet
EndChar

StartChar: S
Encoding: 83 83 54
Width: 528
GlyphClass: 2
Flags: W
LayerCount: 2
Fore
SplineSet
555 234 m 0,0,1
 555 128 555 128 467.5 56.5 c 128,-1,2
 380 -15 380 -15 244 -15 c 0,3,4
 169 -15 169 -15 130 7 c 0,5,6
 126 9 126 9 121 9 c 128,-1,7
 116 9 116 9 84 -2 c 128,-1,8
 52 -13 52 -13 19.5 -13 c 128,-1,9
 -13 -13 -13 -13 -13 6 c 0,10,11
 -13 32 -13 32 50 141.5 c 128,-1,12
 113 251 113 251 162 289 c 0,13,14
 183 305 183 305 203 305 c 128,-1,15
 223 305 223 305 223 294 c 0,16,17
 223 292 223 292 209.5 269.5 c 128,-1,18
 196 247 196 247 182.5 210 c 128,-1,19
 169 173 169 173 169 146.5 c 128,-1,20
 169 120 169 120 174.5 102 c 128,-1,21
 180 84 180 84 202.5 65.5 c 128,-1,22
 225 47 225 47 257.5 47 c 128,-1,23
 290 47 290 47 318.5 55 c 128,-1,24
 347 63 347 63 375 80 c 128,-1,25
 403 97 403 97 421 130 c 128,-1,26
 439 163 439 163 439 206.5 c 128,-1,27
 439 250 439 250 412 295 c 128,-1,28
 385 340 385 340 353 371.5 c 128,-1,29
 321 403 321 403 294 443.5 c 128,-1,30
 267 484 267 484 267 522.5 c 128,-1,31
 267 561 267 561 287.5 594 c 128,-1,32
 308 627 308 627 338.5 646.5 c 128,-1,33
 369 666 369 666 408 679 c 0,34,35
 474 701 474 701 525 701 c 128,-1,36
 576 701 576 701 600.5 696.5 c 128,-1,37
 625 692 625 692 637.5 688 c 128,-1,38
 650 684 650 684 653 684 c 128,-1,39
 656 684 656 684 661 687 c 0,40,41
 691 704 691 704 726 704 c 128,-1,42
 761 704 761 704 761 687 c 0,43,44
 761 659 761 659 694.5 561.5 c 128,-1,45
 628 464 628 464 595 464 c 0,46,47
 568 464 568 464 568 476 c 0,48,49
 568 478 568 478 575 490 c 0,50,51
 597 530 597 530 597 581 c 0,52,53
 597 609 597 609 573 624.5 c 128,-1,54
 549 640 549 640 523.5 640 c 128,-1,55
 498 640 498 640 471.5 632 c 128,-1,56
 445 624 445 624 418.5 600 c 128,-1,57
 392 576 392 576 392 542.5 c 128,-1,58
 392 509 392 509 417.5 472.5 c 128,-1,59
 443 436 443 436 473.5 405.5 c 128,-1,60
 504 375 504 375 529.5 328.5 c 128,-1,61
 555 282 555 282 555 234 c 0,0,1
EndSplineSet
EndChar

StartChar: T
Encoding: 84 84 55
Width: 383
GlyphClass: 2
Flags: W
LayerCount: 2
Fore
SplineSet
705 713 m 0,0,1
 719 713 719 713 719 693.5 c 128,-1,2
 719 674 719 674 680 603 c 128,-1,3
 641 532 641 532 615 496 c 1,4,5
 599 472 599 472 577.5 472 c 128,-1,6
 556 472 556 472 556 486 c 1,7,-1
 557 495 l 1,8,9
 570 544 570 544 570 578 c 0,10,11
 570 630 570 630 542 630 c 0,12,13
 530 630 530 630 518 621.5 c 128,-1,14
 506 613 506 613 500 604 c 2,15,-1
 494 595 l 1,16,17
 480 572 480 572 325 309 c 0,18,19
 290 249 290 249 253 172.5 c 128,-1,20
 216 96 216 96 193 52.5 c 128,-1,21
 170 9 170 9 147 -9.5 c 128,-1,22
 124 -28 124 -28 72.5 -28 c 128,-1,23
 21 -28 21 -28 21 -11 c 2,24,-1
 21 -8 l 2,25,26
 21 2 21 2 74 86 c 0,27,28
 269 393 269 393 369 588 c 0,29,30
 378 606 378 606 378 614 c 0,31,32
 378 627 378 627 361 627 c 0,33,34
 306 627 306 627 193 503 c 1,35,36
 182 483 182 483 142 483 c 0,37,38
 133 483 133 483 133 492 c 0,39,40
 133 499 133 499 146 521 c 2,41,-1
 166 557 l 1,42,43
 254 711 254 711 281 711 c 0,44,45
 333 711 333 711 359 691 c 1,46,47
 429 693 429 693 488 693 c 128,-1,48
 547 693 547 693 605 691 c 1,49,50
 655 713 655 713 705 713 c 0,0,1
EndSplineSet
EndChar

StartChar: U
Encoding: 85 85 56
Width: 503
GlyphClass: 2
Flags: W
LayerCount: 2
Fore
SplineSet
217 -25 m 0,0,1
 145 -25 145 -25 97.5 9 c 128,-1,2
 50 43 50 43 50 105 c 0,3,4
 50 145 50 145 89.5 223.5 c 128,-1,5
 129 302 129 302 197.5 416 c 128,-1,6
 266 530 266 530 295.5 588.5 c 128,-1,7
 325 647 325 647 325 684 c 0,8,9
 325 694 325 694 331 700 c 0,10,11
 345 714 345 714 427 714 c 0,12,13
 481 714 481 714 481 693 c 0,14,15
 481 683 481 683 474 676 c 1,16,17
 419 599 419 599 305 402 c 128,-1,18
 191 205 191 205 191 151 c 0,19,20
 191 72 191 72 263 72 c 0,21,22
 328 72 328 72 364 106 c 1,23,24
 391 133 391 133 409 162 c 0,25,26
 449 223 449 223 513 353.5 c 128,-1,27
 577 484 577 484 627.5 585.5 c 128,-1,28
 678 687 678 687 698.5 703.5 c 128,-1,29
 719 720 719 720 770.5 720 c 128,-1,30
 822 720 822 720 822 708 c 0,31,32
 822 700 822 700 804.5 679 c 128,-1,33
 787 658 787 658 753 606 c 128,-1,34
 719 554 719 554 674.5 482 c 128,-1,35
 630 410 630 410 597 355 c 128,-1,36
 564 300 564 300 519.5 224.5 c 128,-1,37
 475 149 475 149 467 136 c 0,38,39
 373 -25 373 -25 217 -25 c 0,0,1
EndSplineSet
EndChar

StartChar: V
Encoding: 86 86 57
Width: 420
GlyphClass: 2
Flags: W
LayerCount: 2
Fore
SplineSet
219 666 m 1,0,-1
 217 687 l 1,1,2
 217 713 217 713 311 713 c 0,3,4
 368 713 368 713 368 683 c 0,5,6
 368 664 368 664 294 441.5 c 128,-1,7
 220 219 220 219 220 197 c 128,-1,8
 220 175 220 175 240 175 c 0,9,10
 256 175 256 175 264 183 c 2,11,-1
 274 193 l 2,12,13
 276 195 276 195 282 201.5 c 128,-1,14
 288 208 288 208 291 211 c 0,15,16
 331 251 331 251 460.5 424.5 c 128,-1,17
 590 598 590 598 633 683 c 0,18,19
 644 705 644 705 658 712 c 0,20,21
 683 724 683 724 746 726 c 1,22,-1
 766 726 l 2,23,24
 818 726 818 726 818 709 c 0,25,26
 818 702 818 702 809 693 c 0,27,28
 713 600 713 600 505.5 365 c 128,-1,29
 298 130 298 130 255 56 c 0,30,31
 240 30 240 30 227 17 c 128,-1,32
 214 4 214 4 179 -6.5 c 128,-1,33
 144 -17 144 -17 91.5 -17 c 128,-1,34
 39 -17 39 -17 39 7 c 1,35,-1
 42 18 l 1,36,37
 74 111 74 111 131 303.5 c 128,-1,38
 188 496 188 496 209 588 c 1,39,40
 219 648 219 648 219 666 c 1,0,-1
EndSplineSet
EndChar

StartChar: W
Encoding: 87 87 58
Width: 747
GlyphClass: 2
Flags: W
LayerCount: 2
Fore
SplineSet
219 664 m 1,0,-1
 218 686 l 1,1,2
 218 713 218 713 311 713 c 0,3,4
 369 713 369 713 369 684 c 0,5,6
 369 679 369 679 367 677 c 1,7,8
 360 638 360 638 288 428 c 128,-1,9
 216 218 216 218 216 196.5 c 128,-1,10
 216 175 216 175 236 175 c 0,11,12
 251 175 251 175 259 183 c 0,13,14
 273 197 273 197 294 218 c 128,-1,15
 315 239 315 239 409 369.5 c 128,-1,16
 503 500 503 500 560 595 c 1,17,18
 579 633 579 633 686 633 c 0,19,20
 713 633 713 633 713 616 c 1,21,-1
 706 597 l 1,22,23
 676 536 676 536 625 382 c 128,-1,24
 574 228 574 228 574 201.5 c 128,-1,25
 574 175 574 175 594 175 c 0,26,27
 609 175 609 175 617 183 c 0,28,29
 631 197 631 197 645 211 c 0,30,31
 682 248 682 248 807.5 422.5 c 128,-1,32
 933 597 933 597 977 683 c 0,33,34
 988 705 988 705 1002 712 c 0,35,36
 1027 724 1027 724 1090 726 c 1,37,-1
 1110 726 l 2,38,39
 1162 726 1162 726 1162 709 c 0,40,41
 1162 702 1162 702 1153 693 c 0,42,43
 1055 600 1055 600 865.5 377.5 c 128,-1,44
 676 155 676 155 608 56 c 0,45,46
 594 35 594 35 586 26 c 128,-1,47
 578 17 578 17 560 5 c 0,48,49
 526 -17 526 -17 441 -17 c 0,50,51
 392 -17 392 -17 392 7 c 1,52,-1
 395 18 l 2,53,54
 401 37 401 37 417 82 c 128,-1,55
 433 127 433 127 444 158 c 128,-1,56
 455 189 455 189 468 226 c 0,57,58
 493 301 493 301 493 318 c 128,-1,59
 493 335 493 335 478 335 c 0,60,61
 462 335 462 335 442 311 c 0,62,63
 363 217 363 217 250 56 c 0,64,65
 231 29 231 29 220 17.5 c 128,-1,66
 209 6 209 6 174 -5.5 c 128,-1,67
 139 -17 139 -17 86.5 -17 c 128,-1,68
 34 -17 34 -17 34 7 c 1,69,-1
 37 18 l 1,70,71
 72 119 72 119 130.5 309 c 128,-1,72
 189 499 189 499 210 588 c 1,73,74
 219 639 219 639 219 664 c 1,0,-1
EndSplineSet
EndChar

StartChar: X
Encoding: 88 88 59
Width: 537
GlyphClass: 2
Flags: W
LayerCount: 2
Fore
SplineSet
369 223 m 1,0,-1
 370 245 l 2,1,2
 370 265 370 265 354 265 c 0,3,4
 341 265 341 265 321 249 c 1,5,6
 264 199 264 199 201 132.5 c 128,-1,7
 138 66 138 66 117.5 38 c 128,-1,8
 97 10 97 10 90.5 3.5 c 128,-1,9
 84 -3 84 -3 55 -14 c 128,-1,10
 26 -25 26 -25 -12.5 -25 c 128,-1,11
 -51 -25 -51 -25 -51 -13 c 0,12,13
 -51 12 -51 12 342 344 c 1,14,15
 377 372 377 372 379 417 c 0,16,17
 383 491 383 491 383 527 c 0,18,19
 383 628 383 628 366 679 c 2,20,-1
 361 694 l 1,21,22
 361 711 361 711 435 711 c 0,23,24
 471 711 471 711 486 699.5 c 128,-1,25
 501 688 501 688 501 657 c 128,-1,26
 501 626 501 626 494 526 c 1,27,28
 494 499 494 499 513 499 c 0,29,30
 523 499 523 499 536 510 c 0,31,32
 668 627 668 627 691.5 657 c 128,-1,33
 715 687 715 687 730 694 c 0,34,35
 760 706 760 706 814 708 c 1,36,-1
 831 708 l 2,37,38
 880 708 880 708 880 692 c 0,39,40
 880 683 880 683 866 675 c 0,41,42
 739 603 739 603 531 433 c 0,43,44
 526 430 526 430 518.5 424.5 c 128,-1,45
 511 419 511 419 498 398 c 128,-1,46
 485 377 485 377 483 352 c 0,47,48
 476 226 476 226 476 144 c 0,49,50
 476 50 476 50 490 22 c 0,51,52
 494 14 494 14 494 9 c 0,53,54
 494 -6 494 -6 463.5 -12.5 c 128,-1,55
 433 -19 433 -19 405 -19 c 128,-1,56
 377 -19 377 -19 369 -7 c 128,-1,57
 361 5 361 5 361 42 c 128,-1,58
 361 79 361 79 369 223 c 1,0,-1
EndSplineSet
EndChar

StartChar: Y
Encoding: 89 89 60
Width: 355
GlyphClass: 2
Flags: W
LayerCount: 2
Fore
SplineSet
192 514 m 1,0,-1
 191 620 l 2,1,2
 191 662 191 662 185 674 c 128,-1,3
 179 686 179 686 179 694 c 0,4,5
 179 714 179 714 257.5 714 c 128,-1,6
 336 714 336 714 336 677 c 0,7,8
 336 652 336 652 319.5 556.5 c 128,-1,9
 303 461 303 461 302 425.5 c 128,-1,10
 301 390 301 390 321 390 c 0,11,12
 333 390 333 390 348 403 c 0,13,14
 409 457 409 457 485 539.5 c 128,-1,15
 561 622 561 622 586 654.5 c 128,-1,16
 611 687 611 687 628 694 c 0,17,18
 664 708 664 708 714 710 c 1,19,-1
 731 710 l 2,20,21
 788 710 788 710 788 692 c 0,22,23
 788 682 788 682 771 672 c 0,24,25
 707 635 707 635 550.5 504 c 128,-1,26
 394 373 394 373 322 296 c 0,27,28
 293 265 293 265 224 136.5 c 128,-1,29
 155 8 155 8 130 -9 c 1,30,31
 107 -29 107 -29 62 -29 c 128,-1,32
 17 -29 17 -29 17 -12 c 2,33,-1
 17 -9 l 2,34,35
 17 -2 17 -2 50 53 c 0,36,37
 157 228 157 228 170 273 c 0,38,39
 192 345 192 345 192 514 c 1,0,-1
EndSplineSet
EndChar

StartChar: Z
Encoding: 90 90 61
Width: 579
GlyphClass: 2
Flags: W
LayerCount: 2
Fore
SplineSet
795 654 m 0,0,1
 795 606 795 606 585 444 c 0,2,3
 498 377 498 377 410.5 309 c 128,-1,4
 323 241 323 241 261.5 179.5 c 128,-1,5
 200 118 200 118 200 85 c 0,6,7
 200 67 200 67 223 60.5 c 128,-1,8
 246 54 246 54 275 54 c 128,-1,9
 304 54 304 54 350.5 73 c 128,-1,10
 397 92 397 92 434 119 c 0,11,12
 513 178 513 178 550 219 c 2,13,-1
 567 238 l 1,14,15
 588 255 588 255 603 255 c 2,16,-1
 605 255 l 2,17,18
 621 255 621 255 621 245 c 0,19,20
 619 221 619 221 540.5 98.5 c 128,-1,21
 462 -24 462 -24 436 -27 c 1,22,-1
 425 -27 l 2,23,24
 365 -27 365 -27 335 -4 c 1,25,26
 239 -13 239 -13 212 -13 c 0,27,28
 79 -13 79 -13 31.5 -5 c 128,-1,29
 -16 3 -16 3 -16 29 c 0,30,31
 -16 64 -16 64 46.5 131 c 128,-1,32
 109 198 109 198 198.5 270 c 128,-1,33
 288 342 288 342 378 411 c 128,-1,34
 468 480 468 480 531 532.5 c 128,-1,35
 594 585 594 585 595 600 c 1,36,-1
 595 601 l 2,37,38
 595 628 595 628 540.5 628 c 128,-1,39
 486 628 486 628 431 599.5 c 128,-1,40
 376 571 376 571 313 519 c 0,41,42
 290 501 290 501 275.5 501 c 128,-1,43
 261 501 261 501 261 512 c 0,44,45
 262 523 262 523 310 597 c 128,-1,46
 358 671 358 671 389 697 c 0,47,48
 402 709 402 709 421 709 c 0,49,50
 463 709 463 709 490 687 c 1,51,52
 556 693 556 693 639 693 c 0,53,54
 795 693 795 693 795 654 c 0,0,1
EndSplineSet
EndChar

StartChar: bracketleft
Encoding: 91 91 62
Width: 268
GlyphClass: 2
Flags: W
LayerCount: 2
Fore
SplineSet
575 753 m 1,0,1
 585 750 585 750 585 743.5 c 128,-1,2
 585 737 585 737 565 727 c 128,-1,3
 545 717 545 717 533.5 709 c 128,-1,4
 522 701 522 701 496.5 670 c 128,-1,5
 471 639 471 639 441 588 c 2,6,-1
 181 135 l 2,7,8
 106 6 106 6 106 -32 c 2,9,-1
 106 -41 l 2,10,11
 106 -76 106 -76 98 -76 c 0,12,13
 83 -76 83 -76 66 -37.5 c 128,-1,14
 49 1 49 1 49 41 c 0,15,16
 49 60 49 60 57.5 77.5 c 128,-1,17
 66 95 66 95 71 105.5 c 128,-1,18
 76 116 76 116 86 132 c 128,-1,19
 96 148 96 148 102 157 c 0,20,21
 125 196 125 196 149.5 233.5 c 128,-1,22
 174 271 174 271 215 344 c 128,-1,23
 256 417 256 417 303 503.5 c 128,-1,24
 350 590 350 590 365 617 c 128,-1,25
 380 644 380 644 384.5 651.5 c 128,-1,26
 389 659 389 659 406.5 678.5 c 128,-1,27
 424 698 424 698 444.5 713 c 128,-1,28
 465 728 465 728 500 740.5 c 128,-1,29
 535 753 535 753 575 753 c 1,0,1
EndSplineSet
EndChar

StartChar: backslash
Encoding: 92 92 63
Width: 357
GlyphClass: 2
Flags: W
LayerCount: 2
Fore
SplineSet
337 -35 m 0,0,1
 337 -56 337 -56 305 -56 c 2,2,-1
 295 -56 l 2,3,4
 248 -56 248 -56 245 -30 c 0,5,6
 240 17 240 17 158 538 c 2,7,-1
 132 703 l 2,8,9
 131 705 131 705 131 708 c 0,10,11
 131 729 131 729 162 729 c 2,12,-1
 173 729 l 2,13,14
 221 729 221 729 222 703 c 0,15,16
 224 669 224 669 271.5 354 c 128,-1,17
 319 39 319 39 336 -30 c 0,18,19
 337 -32 337 -32 337 -35 c 0,0,1
EndSplineSet
EndChar

StartChar: bracketright
Encoding: 93 93 64
Width: 309
GlyphClass: 2
Flags: W
LayerCount: 2
Fore
SplineSet
-52 -76 m 1,0,1
 -62 -73 -62 -73 -62 -66.5 c 128,-1,2
 -62 -60 -62 -60 -42 -50 c 128,-1,3
 -22 -40 -22 -40 -10.5 -32 c 128,-1,4
 1 -24 1 -24 26.5 7 c 128,-1,5
 52 38 52 38 82 89 c 2,6,-1
 342 542 l 2,7,8
 417 671 417 671 417 709 c 2,9,-1
 417 718 l 2,10,11
 417 753 417 753 425 753 c 0,12,13
 440 753 440 753 457 714.5 c 128,-1,14
 474 676 474 676 474 636 c 0,15,16
 474 617 474 617 465.5 599.5 c 128,-1,17
 457 582 457 582 452 571.5 c 128,-1,18
 447 561 447 561 437 545 c 128,-1,19
 427 529 427 529 422 520 c 0,20,21
 398 481 398 481 373.5 443.5 c 128,-1,22
 349 406 349 406 308 333 c 128,-1,23
 267 260 267 260 220 173.5 c 128,-1,24
 173 87 173 87 158 60 c 128,-1,25
 143 33 143 33 138.5 25.5 c 128,-1,26
 134 18 134 18 116.5 -1.5 c 128,-1,27
 99 -21 99 -21 78.5 -36 c 128,-1,28
 58 -51 58 -51 23 -63.5 c 128,-1,29
 -12 -76 -12 -76 -52 -76 c 1,0,1
EndSplineSet
EndChar

StartChar: asciicircum
Encoding: 94 94 65
Width: 279
GlyphClass: 2
Flags: W
LayerCount: 2
Fore
SplineSet
271 233 m 1,0,-1
 248 143 l 1,1,2
 248 130 248 130 239 130 c 0,3,4
 219 130 219 130 198 171 c 0,5,6
 195 177 195 177 190 177 c 128,-1,7
 185 177 185 177 179 173 c 0,8,9
 125 137 125 137 95 137 c 128,-1,10
 65 137 65 137 65 145 c 0,11,12
 65 148 65 148 76 158 c 0,13,14
 122 205 122 205 133 220.5 c 128,-1,15
 144 236 144 236 149 239.5 c 128,-1,16
 154 243 154 243 166.5 243 c 128,-1,17
 179 243 179 243 193 229 c 0,18,19
 198 225 198 225 203 225 c 128,-1,20
 208 225 208 225 223.5 234.5 c 128,-1,21
 239 244 239 244 261 244 c 1,22,23
 271 243 271 243 271 233 c 1,0,-1
EndSplineSet
EndChar

StartChar: underscore
Encoding: 95 95 66
Width: 538
GlyphClass: 2
Flags: W
LayerCount: 2
Fore
SplineSet
356 -3 m 1,0,-1
 484 -1 l 2,1,2
 498 -1 498 -1 498 -10 c 0,3,4
 498 -24 498 -24 484.5 -40 c 128,-1,5
 471 -56 471 -56 440 -56 c 1,6,7
 365 -52 365 -52 237 -52 c 1,8,-1
 17 -57 l 2,9,10
 4 -57 4 -57 4 -47 c 0,11,12
 4 -34 4 -34 18 -17.5 c 128,-1,13
 32 -1 32 -1 62 -1 c 2,14,-1
 356 -3 l 1,0,-1
EndSplineSet
EndChar

StartChar: grave
Encoding: 96 96 67
Width: 400
GlyphClass: 2
Flags: W
LayerCount: 2
Fore
SplineSet
321 542 m 128,-1,1
 342 554 342 554 350.5 554 c 128,-1,2
 359 554 359 554 362.5 551.5 c 128,-1,3
 366 549 366 549 367.5 546.5 c 128,-1,4
 369 544 369 544 372 537 c 2,5,-1
 378 526 l 2,6,7
 388 508 388 508 403 486 c 0,8,9
 436 439 436 439 436 435 c 128,-1,10
 436 431 436 431 426 431 c 2,11,-1
 419 431 l 1,12,13
 395 435 395 435 347.5 466.5 c 128,-1,14
 300 498 300 498 300 514 c 128,-1,0
 300 530 300 530 321 542 c 128,-1,1
EndSplineSet
EndChar

StartChar: a
Encoding: 97 97 68
Width: 400
GlyphClass: 2
Flags: W
LayerCount: 2
Fore
SplineSet
250 35 m 1,0,-1
 252 56 l 2,1,2
 252 64 252 64 246 64 c 0,3,4
 237 64 237 64 209.5 38 c 128,-1,5
 182 12 182 12 140.5 -14.5 c 128,-1,6
 99 -41 99 -41 57.5 -41 c 128,-1,7
 16 -41 16 -41 16 20 c 0,8,9
 16 96 16 96 82 195 c 0,10,11
 116 245 116 245 160.5 287.5 c 128,-1,12
 205 330 205 330 269 357.5 c 128,-1,13
 333 385 333 385 403 385 c 0,14,15
 440 385 440 385 466 365.5 c 128,-1,16
 492 346 492 346 492 317.5 c 128,-1,17
 492 289 492 289 475 289 c 0,18,19
 466 289 466 289 451 300 c 0,20,21
 423 319 423 319 363 319 c 0,22,23
 284 319 284 319 213.5 247.5 c 128,-1,24
 143 176 143 176 143 106 c 0,25,26
 143 97 143 97 148.5 89 c 128,-1,27
 154 81 154 81 164 81 c 0,28,29
 194 81 194 81 241 122.5 c 128,-1,30
 288 164 288 164 333 242 c 1,31,32
 336 251 336 251 355 259 c 128,-1,33
 374 267 374 267 400 267 c 1,34,35
 437 264 437 264 437 251 c 0,36,37
 437 250 437 250 429.5 238.5 c 128,-1,38
 422 227 422 227 403 197 c 128,-1,39
 384 167 384 167 349.5 98.5 c 128,-1,40
 315 30 315 30 309 -10 c 0,41,42
 308 -22 308 -22 299 -22 c 0,43,44
 250 -22 250 -22 250 35 c 1,0,-1
EndSplineSet
EndChar

StartChar: b
Encoding: 98 98 69
Width: 433
GlyphClass: 2
Flags: W
LayerCount: 2
Fore
SplineSet
178 -23 m 0,0,1
 152 -23 152 -23 127.5 -14.5 c 128,-1,2
 103 -6 103 -6 99 -6 c 0,3,4
 88 -6 88 -6 73 -29 c 0,5,6
 53 -61 53 -61 -2 -61 c 0,7,8
 -35 -61 -35 -61 -35 -45 c 1,9,-1
 -34 -41 l 1,10,11
 452 799 452 799 461 818 c 1,12,13
 485 862 485 862 573 862 c 0,14,15
 603 862 603 862 603 846 c 0,16,17
 603 837 603 837 556 772 c 0,18,19
 380 534 380 534 285 349 c 0,20,21
 283 345 283 345 283 339 c 0,22,23
 283 330 283 330 291 330 c 128,-1,24
 299 330 299 330 318 344 c 0,25,26
 373 384 373 384 429 384 c 0,27,28
 488 384 488 384 488 311 c 0,29,30
 488 272 488 272 464 216.5 c 128,-1,31
 440 161 440 161 400 107 c 128,-1,32
 360 53 360 53 300 15 c 128,-1,33
 240 -23 240 -23 178 -23 c 0,0,1
214 34 m 0,34,35
 269 34 269 34 327 123.5 c 128,-1,36
 385 213 385 213 385 275 c 0,37,38
 385 302 385 302 363 302 c 0,39,40
 330 302 330 302 277.5 256.5 c 128,-1,41
 225 211 225 211 187 160 c 128,-1,42
 149 109 149 109 149 90 c 1,43,44
 150 84 150 84 153 74.5 c 128,-1,45
 156 65 156 65 172.5 49.5 c 128,-1,46
 189 34 189 34 214 34 c 0,34,35
EndSplineSet
EndChar

StartChar: c
Encoding: 99 99 70
Width: 340
GlyphClass: 2
Flags: W
LayerCount: 2
Fore
SplineSet
316 365 m 1,0,-1
 333 364 l 2,1,2
 350 364 350 364 360 381 c 1,3,4
 368 403 368 403 419 402.5 c 128,-1,5
 470 402 470 402 470 381 c 0,6,7
 470 378 470 378 447 355 c 128,-1,8
 424 332 424 332 391 289.5 c 128,-1,9
 358 247 358 247 340 204 c 0,10,11
 338 198 338 198 324.5 198 c 128,-1,12
 311 198 311 198 303 210.5 c 128,-1,13
 295 223 295 223 295 237.5 c 128,-1,14
 295 252 295 252 298.5 263 c 128,-1,15
 302 274 302 274 302 279 c 0,16,17
 302 298 302 298 281 298 c 0,18,19
 223 298 223 298 178 231.5 c 128,-1,20
 133 165 133 165 133 110 c 0,21,22
 133 37 133 37 204 37 c 0,23,24
 247 37 247 37 279 57 c 1,25,26
 286 63 286 63 293 63 c 0,27,28
 304 63 304 63 304 52 c 0,29,30
 304 26 304 26 257 -8.5 c 128,-1,31
 210 -43 210 -43 144.5 -43 c 128,-1,32
 79 -43 79 -43 54.5 -10.5 c 128,-1,33
 30 22 30 22 30 61.5 c 128,-1,34
 30 101 30 101 51.5 151 c 128,-1,35
 73 201 73 201 108.5 249.5 c 128,-1,36
 144 298 144 298 200 331.5 c 128,-1,37
 256 365 256 365 316 365 c 1,0,-1
EndSplineSet
EndChar

StartChar: d
Encoding: 100 100 71
Width: 406
GlyphClass: 2
Flags: W
LayerCount: 2
Fore
SplineSet
330 218.5 m 128,-1,1
 370 271 370 271 370 284.5 c 128,-1,2
 370 298 370 298 358 307 c 128,-1,3
 346 316 346 316 321 316 c 0,4,5
 263 316 263 316 199 237 c 128,-1,6
 135 158 135 158 135 102 c 0,7,8
 135 72 135 72 156 72 c 0,9,10
 184 72 184 72 237 119 c 128,-1,0
 290 166 290 166 330 218.5 c 128,-1,1
294 -26 m 2,11,-1
 292 -26 l 2,12,13
 244 -26 244 -26 244 28 c 1,14,-1
 246 48 l 1,15,-1
 239 58 l 1,16,17
 233 58 233 58 224 51 c 1,18,19
 138 -32 138 -32 73 -32 c 0,20,21
 53 -32 53 -32 36.5 -16.5 c 128,-1,22
 20 -1 20 -1 20 37 c 0,23,24
 20 113 20 113 86 212 c 0,25,26
 190 369 190 369 348 369 c 0,27,28
 370 369 370 369 388.5 362.5 c 128,-1,29
 407 356 407 356 411.5 356 c 128,-1,30
 416 356 416 356 428 371.5 c 128,-1,31
 440 387 440 387 505 498 c 0,32,33
 656 755 656 755 682 808 c 0,34,35
 704 852 704 852 793 852 c 0,36,37
 820 852 820 852 820 836 c 0,38,39
 820 830 820 830 777.5 774 c 128,-1,40
 735 718 735 718 656.5 603 c 128,-1,41
 578 488 578 488 511 367 c 1,42,43
 338 91 338 91 305 -14 c 0,44,45
 301 -26 301 -26 294 -26 c 2,11,-1
EndSplineSet
EndChar

StartChar: e
Encoding: 101 101 72
Width: 346
GlyphClass: 2
Flags: W
LayerCount: 2
Fore
SplineSet
142 -57 m 0,0,1
 84 -57 84 -57 57 -22.5 c 128,-1,2
 30 12 30 12 30 62.5 c 128,-1,3
 30 113 30 113 52 168.5 c 128,-1,4
 74 224 74 224 112.5 276 c 128,-1,5
 151 328 151 328 213.5 363.5 c 128,-1,6
 276 399 276 399 348 399 c 0,7,8
 381 399 381 399 398 378.5 c 128,-1,9
 415 358 415 358 415 330 c 0,10,11
 415 272 415 272 374 222 c 128,-1,12
 333 172 333 172 283 146 c 128,-1,13
 233 120 233 120 194.5 116.5 c 128,-1,14
 156 113 156 113 143 102 c 128,-1,15
 130 91 130 91 130 58 c 128,-1,16
 130 25 130 25 145 8 c 128,-1,17
 160 -9 160 -9 175 -15 c 128,-1,18
 190 -21 190 -21 190 -27 c 0,19,20
 190 -41 190 -41 175 -49 c 128,-1,21
 160 -57 160 -57 142 -57 c 0,0,1
318 305 m 0,22,23
 318 336 318 336 290 336 c 0,24,25
 250 336 250 336 201.5 280 c 128,-1,26
 153 224 153 224 153 179 c 0,27,28
 153 168 153 168 170 168 c 0,29,30
 211 168 211 168 264.5 210 c 128,-1,31
 318 252 318 252 318 305 c 0,22,23
EndSplineSet
EndChar

StartChar: f
Encoding: 102 102 73
Width: 386
GlyphClass: 2
Flags: W
LayerCount: 2
Fore
SplineSet
354 360 m 1,0,-1
 469 366 l 1,1,2
 480 365 480 365 480 355 c 2,3,-1
 480 354 l 2,4,5
 480 331 480 331 444 321 c 1,6,7
 424 321 424 321 388 308.5 c 128,-1,8
 352 296 352 296 342 290 c 0,9,10
 316 277 316 277 316 265 c 128,-1,11
 316 253 316 253 344 234 c 0,12,13
 354 228 354 228 363 210 c 128,-1,14
 372 192 372 192 372 164 c 0,15,16
 372 100 372 100 311.5 -20 c 128,-1,17
 251 -140 251 -140 167.5 -255 c 128,-1,18
 84 -370 84 -370 -10.5 -456 c 128,-1,19
 -105 -542 -105 -542 -165 -542 c 0,20,21
 -182 -542 -182 -542 -191 -534 c 128,-1,22
 -200 -526 -200 -526 -201.5 -518 c 128,-1,23
 -203 -510 -203 -510 -203 -496 c 0,24,25
 -203 -436 -203 -436 -99 -221.5 c 128,-1,26
 5 -7 5 -7 168 265 c 0,27,28
 170 269 170 269 170 273 c 0,29,30
 170 297 170 297 119 297 c 0,31,32
 110 297 110 297 110 307 c 0,33,34
 110 324 110 324 146 347 c 0,35,36
 156 354 156 354 180 354 c 2,37,-1
 196 354 l 2,38,39
 218 354 218 354 223 362 c 0,40,41
 336 565 336 565 449.5 708.5 c 128,-1,42
 563 852 563 852 627 852 c 0,43,44
 668 852 668 852 668 801 c 0,45,46
 668 736 668 736 620 650.5 c 128,-1,47
 572 565 572 565 508.5 506 c 128,-1,48
 445 447 445 447 402 447 c 0,49,50
 391 447 391 447 391 453 c 0,51,52
 391 462 391 462 404 471 c 0,53,54
 459 508 459 508 510 589 c 128,-1,55
 561 670 561 670 561 704 c 0,56,57
 561 715 561 715 553 715 c 0,58,59
 515 715 515 715 418.5 569.5 c 128,-1,60
 322 424 322 424 322 383 c 0,61,62
 322 360 322 360 354 360 c 1,0,-1
228 223 m 0,63,64
 217 223 217 223 206 206 c 0,65,66
 108 38 108 38 35 -123.5 c 128,-1,67
 -38 -285 -38 -285 -38 -338 c 2,68,-1
 -38 -339 l 2,69,70
 -38 -359 -38 -359 -23 -359 c 0,71,72
 -5 -359 -5 -359 43 -307.5 c 128,-1,73
 91 -256 91 -256 142 -183.5 c 128,-1,74
 193 -111 193 -111 232.5 -20 c 128,-1,75
 272 71 272 71 272 138 c 0,76,77
 272 223 272 223 228 223 c 0,63,64
EndSplineSet
EndChar

StartChar: g
Encoding: 103 103 74
Width: 426
GlyphClass: 2
Flags: W
LayerCount: 2
Fore
SplineSet
-103 -503 m 0,0,1
 -60 -503 -60 -503 32.5 -364.5 c 128,-1,2
 125 -226 125 -226 197 -88 c 128,-1,3
 269 50 269 50 269 64.5 c 128,-1,4
 269 79 269 79 261 79 c 128,-1,5
 253 79 253 79 234 63.5 c 128,-1,6
 215 48 215 48 193.5 29 c 128,-1,7
 172 10 172 10 138.5 -5.5 c 128,-1,8
 105 -21 105 -21 72 -21 c 0,9,10
 31 -21 31 -21 31 40 c 0,11,12
 31 89 31 89 58 150.5 c 128,-1,13
 85 212 85 212 132 269.5 c 128,-1,14
 179 327 179 327 255 366 c 128,-1,15
 331 405 331 405 418 405 c 0,16,17
 440 405 440 405 466 397 c 0,18,19
 518 381 518 381 518 339 c 0,20,21
 518 309 518 309 501 309 c 0,22,23
 496 309 496 309 484 316 c 0,24,25
 448 340 448 340 373 340 c 128,-1,26
 298 340 298 340 227.5 265.5 c 128,-1,27
 157 191 157 191 157 120 c 0,28,29
 157 95 157 95 178 95 c 0,30,31
 210 95 210 95 266.5 140.5 c 128,-1,32
 323 186 323 186 379 275 c 1,33,34
 382 289 382 289 425 289 c 128,-1,35
 468 289 468 289 468 274 c 0,36,37
 468 263 468 263 398.5 130.5 c 128,-1,38
 329 -2 329 -2 281 -87.5 c 128,-1,39
 233 -173 233 -173 165.5 -277 c 128,-1,40
 98 -381 98 -381 38 -456 c 128,-1,41
 -22 -531 -22 -531 -87 -582.5 c 128,-1,42
 -152 -634 -152 -634 -203 -634 c 0,43,44
 -245 -634 -245 -634 -245 -564 c 128,-1,45
 -245 -494 -245 -494 -204 -408.5 c 128,-1,46
 -163 -323 -163 -323 -105.5 -251.5 c 128,-1,47
 -48 -180 -48 -180 17 -130 c 128,-1,48
 82 -80 82 -80 126 -80 c 2,49,-1
 129 -80 l 2,50,51
 141 -80 141 -80 141 -87 c 128,-1,52
 141 -94 141 -94 129 -100 c 0,53,54
 91 -119 91 -119 32.5 -184.5 c 128,-1,55
 -26 -250 -26 -250 -73.5 -335 c 128,-1,56
 -121 -420 -121 -420 -121 -478 c 2,57,-1
 -121 -479 l 2,58,59
 -121 -503 -121 -503 -103 -503 c 0,0,1
EndSplineSet
EndChar

StartChar: h
Encoding: 104 104 75
Width: 468
GlyphClass: 2
Flags: W
LayerCount: 2
Fore
SplineSet
466 370 m 0,0,1
 509 370 509 370 509 320 c 128,-1,2
 509 270 509 270 474 194 c 1,3,4
 423 87 423 87 358 9 c 0,5,6
 327 -28 327 -28 280 -28 c 0,7,8
 265 -28 265 -28 265 -20 c 1,9,-1
 269 -9 l 1,10,11
 316 60 316 60 352.5 133.5 c 128,-1,12
 389 207 389 207 389 240 c 0,13,14
 389 246 389 246 385.5 250 c 128,-1,15
 382 254 382 254 374 255 c 1,16,17
 333 255 333 255 263.5 188 c 128,-1,18
 194 121 194 121 143.5 53 c 128,-1,19
 93 -15 93 -15 78.5 -41.5 c 128,-1,20
 64 -68 64 -68 49 -73.5 c 128,-1,21
 34 -79 34 -79 0 -79 c 128,-1,22
 -34 -79 -34 -79 -34 -67 c 0,23,24
 -34 -63 -34 -63 -24.5 -48 c 128,-1,25
 -15 -33 -15 -33 47.5 87 c 128,-1,26
 110 207 110 207 179.5 331.5 c 128,-1,27
 249 456 249 456 331.5 586 c 128,-1,28
 414 716 414 716 496.5 798.5 c 128,-1,29
 579 881 579 881 640 881 c 0,30,31
 687 881 687 881 687 826 c 0,32,33
 687 720 687 720 590.5 599 c 128,-1,34
 494 478 494 478 414 441 c 0,35,36
 396 433 396 433 376.5 433 c 128,-1,37
 357 433 357 433 357 442 c 1,38,-1
 363 452 l 1,39,40
 461 520 461 520 518.5 609 c 128,-1,41
 576 698 576 698 576 734 c 0,42,43
 576 746 576 746 573 750.5 c 128,-1,44
 570 755 570 755 559 755 c 0,45,46
 523 755 523 755 441.5 638 c 128,-1,47
 360 521 360 521 295 397 c 128,-1,48
 230 273 230 273 230 246 c 0,49,50
 230 235 230 235 237.5 235 c 128,-1,51
 245 235 245 235 258 245 c 1,52,53
 273 259 273 259 296.5 280 c 128,-1,54
 320 301 320 301 375.5 335.5 c 128,-1,55
 431 370 431 370 466 370 c 0,0,1
EndSplineSet
EndChar

StartChar: i
Encoding: 105 105 76
Width: 206
GlyphClass: 2
Flags: W
LayerCount: 2
Fore
SplineSet
72 -51 m 0,0,1
 58 -51 58 -51 41 -33.5 c 128,-1,2
 24 -16 24 -16 24 9 c 0,3,4
 24 23 24 23 89.5 150.5 c 128,-1,5
 155 278 155 278 157 323 c 0,6,7
 157 337 157 337 175 349 c 1,8,9
 207 368 207 368 270 368 c 0,10,11
 282 368 282 368 295.5 363.5 c 128,-1,12
 309 359 309 359 309 351 c 0,13,14
 309 347 309 347 306 344 c 0,15,16
 268 296 268 296 195 171 c 128,-1,17
 122 46 122 46 85 -32 c 1,18,19
 80 -51 80 -51 72 -51 c 0,0,1
291 424 m 0,20,21
 247 424 247 424 245 459 c 1,22,-1
 245 460 l 2,23,24
 245 490 245 490 274.5 509 c 128,-1,25
 304 528 304 528 333 528 c 0,26,27
 377 528 377 528 379 493 c 1,28,29
 379 463 379 463 350 443.5 c 128,-1,30
 321 424 321 424 291 424 c 0,20,21
EndSplineSet
EndChar

StartChar: j
Encoding: 106 106 77
Width: 233
GlyphClass: 2
Flags: W
LayerCount: 2
Fore
SplineSet
264 368 m 0,0,1
 276 368 276 368 289.5 363 c 128,-1,2
 303 358 303 358 303 350 c 0,3,4
 303 348 303 348 301 344 c 0,5,6
 269 297 269 297 198.5 167.5 c 128,-1,7
 128 38 128 38 55 -90 c 128,-1,8
 -18 -218 -18 -218 -102.5 -347.5 c 128,-1,9
 -187 -477 -187 -477 -274.5 -557.5 c 128,-1,10
 -362 -638 -362 -638 -435 -638 c 0,11,12
 -475 -638 -475 -638 -474.5 -563.5 c 128,-1,13
 -474 -489 -474 -489 -431.5 -401.5 c 128,-1,14
 -389 -314 -389 -314 -330.5 -245.5 c 128,-1,15
 -272 -177 -272 -177 -206.5 -130.5 c 128,-1,16
 -141 -84 -141 -84 -95 -84 c 0,17,18
 -83 -84 -83 -84 -83 -91 c 256,19,20
 -83 -98 -83 -98 -96 -104 c 0,21,22
 -134 -123 -134 -123 -193.5 -188.5 c 128,-1,23
 -253 -254 -253 -254 -301.5 -339 c 128,-1,24
 -350 -424 -350 -424 -350 -482 c 0,25,26
 -350 -507 -350 -507 -333 -507 c 0,27,28
 -235 -507 -235 -507 46 60 c 1,29,30
 145 243 145 243 150 323 c 0,31,32
 150 337 150 337 168 349 c 1,33,34
 200 368 200 368 264 368 c 0,0,1
374 493 m 0,35,36
 374 463 374 463 345 443.5 c 128,-1,37
 316 424 316 424 285 424 c 0,38,39
 240 424 240 424 240 460 c 0,40,41
 240 490 240 490 270 509 c 128,-1,42
 300 528 300 528 324.5 528 c 128,-1,43
 349 528 349 528 361.5 518.5 c 128,-1,44
 374 509 374 509 374 493 c 0,35,36
EndSplineSet
EndChar

StartChar: k
Encoding: 107 107 78
Width: 450
GlyphClass: 2
Flags: W
LayerCount: 2
Fore
SplineSet
386 -122 m 1,0,1
 386 -128 386 -128 376 -130 c 1,2,3
 330 -130 330 -130 294 -33 c 128,-1,4
 258 64 258 64 258 136 c 0,5,6
 258 147 258 147 269 150 c 0,7,8
 310 164 310 164 364.5 203 c 128,-1,9
 419 242 419 242 419 285 c 0,10,11
 419 299 419 299 405 299 c 0,12,13
 343 299 343 299 232.5 190.5 c 128,-1,14
 122 82 122 82 76 -4 c 0,15,16
 72 -13 72 -13 60.5 -13 c 128,-1,17
 49 -13 49 -13 34.5 7 c 128,-1,18
 20 27 20 27 20 48 c 128,-1,19
 20 69 20 69 27 84 c 0,20,21
 128 288 128 288 217.5 436 c 128,-1,22
 307 584 307 584 372 671.5 c 128,-1,23
 437 759 437 759 508 820.5 c 128,-1,24
 579 882 579 882 633 882 c 0,25,26
 680 882 680 882 680 826 c 0,27,28
 680 752 680 752 627 664.5 c 128,-1,29
 574 577 574 577 510 518 c 0,30,31
 419 433 419 433 369 433 c 0,32,33
 350 433 350 433 350 443 c 1,34,-1
 356 452 l 1,35,36
 454 520 454 520 511.5 609 c 128,-1,37
 569 698 569 698 569 734 c 0,38,39
 569 755 569 755 552 755 c 0,40,41
 516 755 516 755 437.5 648 c 128,-1,42
 359 541 359 541 297.5 426 c 128,-1,43
 236 311 236 311 236 284 c 0,44,45
 236 271 236 271 248 271 c 0,46,47
 257 271 257 271 269.5 282 c 128,-1,48
 282 293 282 293 305 310.5 c 128,-1,49
 328 328 328 328 389 357 c 128,-1,50
 450 386 450 386 498.5 386 c 128,-1,51
 547 386 547 386 547 340 c 0,52,53
 547 302 547 302 518 267 c 128,-1,54
 489 232 489 232 454 211 c 128,-1,55
 419 190 419 190 389 168.5 c 128,-1,56
 359 147 359 147 358 133 c 0,57,58
 356 105 356 105 356 82 c 128,-1,59
 356 59 356 59 359 26.5 c 128,-1,60
 362 -6 362 -6 366 -31 c 1,61,62
 374 -70 374 -70 383 -110 c 2,63,-1
 386 -122 l 1,0,1
EndSplineSet
EndChar

StartChar: l
Encoding: 108 108 79
Width: 191
GlyphClass: 2
Flags: W
LayerCount: 2
Fore
SplineSet
58 86.5 m 128,-1,1
 91 171 91 171 132 251 c 128,-1,2
 173 331 173 331 243 448 c 0,3,4
 347 621 347 621 457 791 c 0,5,6
 474 818 474 818 510 835 c 128,-1,7
 546 852 546 852 575 852 c 128,-1,8
 604 852 604 852 605 836 c 0,9,10
 605 831 605 831 599 825 c 0,11,12
 565 794 565 794 485 681.5 c 128,-1,13
 405 569 405 569 315.5 424 c 128,-1,14
 226 279 226 279 158.5 118 c 128,-1,15
 91 -43 91 -43 91 -145 c 0,16,17
 91 -160 91 -160 82 -160 c 0,18,19
 65 -160 65 -160 53 -147.5 c 128,-1,20
 41 -135 41 -135 36 -116 c 0,21,22
 25 -78 25 -78 25 -38 c 128,-1,0
 25 2 25 2 58 86.5 c 128,-1,1
EndSplineSet
EndChar

StartChar: m
Encoding: 109 109 80
Width: 702
GlyphClass: 2
Flags: W
LayerCount: 2
Fore
SplineSet
551 -50 m 0,0,1
 534 -50 534 -50 525 -29.5 c 128,-1,2
 516 -9 516 -9 516 5 c 0,3,4
 516 58 516 58 597 188 c 0,5,6
 624 232 624 232 624 247 c 128,-1,7
 624 262 624 262 610 262 c 0,8,9
 573 262 573 262 513 205.5 c 128,-1,10
 453 149 453 149 411 92 c 2,11,-1
 369 36 l 2,12,13
 352 12 352 12 316.5 12 c 128,-1,14
 281 12 281 12 281 25 c 0,15,16
 281 45 281 45 329.5 124.5 c 128,-1,17
 378 204 378 204 378 231 c 0,18,19
 378 239 378 239 373.5 243.5 c 128,-1,20
 369 248 369 248 364 248 c 0,21,22
 332 248 332 248 293 222.5 c 128,-1,23
 254 197 254 197 220 160 c 0,24,25
 153 87 153 87 112 24 c 2,26,-1
 96 -1 l 1,27,28
 75 -31 75 -31 20 -31 c 0,29,30
 -5 -31 -5 -31 -5 -18 c 0,31,32
 -5 9 -5 9 98 192 c 128,-1,33
 201 375 201 375 232 387 c 1,34,35
 249 397 249 397 278.5 397 c 128,-1,36
 308 397 308 397 308 387.5 c 128,-1,37
 308 378 308 378 273.5 326.5 c 128,-1,38
 239 275 239 275 239 258 c 1,39,40
 242 251 242 251 249 251 c 128,-1,41
 256 251 256 251 264 258 c 128,-1,42
 272 265 272 265 290 280.5 c 128,-1,43
 308 296 308 296 356.5 321.5 c 128,-1,44
 405 347 405 347 444.5 347 c 128,-1,45
 484 347 484 347 484 313 c 0,46,47
 484 289 484 289 474 269 c 128,-1,48
 464 249 464 249 464 245 c 0,49,50
 464 237 464 237 472.5 237 c 128,-1,51
 481 237 481 237 488 246 c 1,52,53
 503 261 503 261 527.5 283 c 128,-1,54
 552 305 552 305 609.5 341.5 c 128,-1,55
 667 378 667 378 703 378 c 0,56,57
 752 378 752 378 752 335 c 0,58,59
 752 299 752 299 726.5 251.5 c 128,-1,60
 701 204 701 204 692 187.5 c 128,-1,61
 683 171 683 171 654.5 125 c 128,-1,62
 626 79 626 79 616 62.5 c 128,-1,63
 606 46 606 46 588.5 12.5 c 128,-1,64
 571 -21 571 -21 563 -35.5 c 128,-1,65
 555 -50 555 -50 551 -50 c 0,0,1
EndSplineSet
EndChar

StartChar: n
Encoding: 110 110 81
Width: 479
GlyphClass: 2
Flags: W
LayerCount: 2
Fore
SplineSet
285 -43 m 0,0,1
 257 -43 257 -43 257 -30 c 1,2,-1
 259 -24 l 1,3,4
 319 66 319 66 362 149.5 c 128,-1,5
 405 233 405 233 405 258 c 0,6,7
 405 266 405 266 401 270.5 c 128,-1,8
 397 275 397 275 389 276 c 1,9,10
 350 276 350 276 284.5 226 c 128,-1,11
 219 176 219 176 169.5 123 c 128,-1,12
 120 70 120 70 96 36.5 c 128,-1,13
 72 3 72 3 24 3 c 0,14,15
 -2 3 -2 3 -2 16 c 0,16,17
 -2 42 -2 42 96 199.5 c 128,-1,18
 194 357 194 357 226 369 c 1,19,20
 243 379 243 379 269.5 379 c 128,-1,21
 296 379 296 379 296 368.5 c 128,-1,22
 296 358 296 358 272 323 c 128,-1,23
 248 288 248 288 248 278 c 1,24,25
 250 270 250 270 256.5 270 c 128,-1,26
 263 270 263 270 268 274 c 0,27,28
 416 389 416 389 504 389 c 0,29,30
 541 389 541 389 541 346 c 0,31,32
 541 318 541 318 499.5 225 c 128,-1,33
 458 132 458 132 394.5 44.5 c 128,-1,34
 331 -43 331 -43 285 -43 c 0,0,1
EndSplineSet
EndChar

StartChar: o
Encoding: 111 111 82
Width: 426
GlyphClass: 2
Flags: W
LayerCount: 2
Fore
SplineSet
86 -13 m 0,0,1
 63 -2 63 -2 48.5 26 c 128,-1,2
 34 54 34 54 34 95 c 0,3,4
 34 159 34 159 75.5 229 c 128,-1,5
 117 299 117 299 192.5 349 c 128,-1,6
 268 399 268 399 352 399 c 0,7,8
 391 399 391 399 417 378 c 128,-1,9
 443 357 443 357 443 336.5 c 128,-1,10
 443 316 443 316 437 304 c 128,-1,11
 431 292 431 292 431 288 c 0,12,13
 431 276 431 276 450 276 c 128,-1,14
 469 276 469 276 479 281 c 128,-1,15
 489 286 489 286 491 286 c 0,16,17
 499 286 499 286 499 265.5 c 128,-1,18
 499 245 499 245 479 217.5 c 128,-1,19
 459 190 459 190 430 177 c 1,20,21
 426 169 426 169 419 154.5 c 128,-1,22
 412 140 412 140 386 104.5 c 128,-1,23
 360 69 360 69 330.5 41.5 c 128,-1,24
 301 14 301 14 252.5 -8.5 c 128,-1,25
 204 -31 204 -31 164 -31 c 128,-1,26
 124 -31 124 -31 86 -13 c 0,0,1
309 159 m 0,27,28
 309 167 309 167 300 167 c 0,29,30
 287 167 287 167 270.5 161 c 128,-1,31
 254 155 254 155 252 155 c 0,32,33
 246 155 246 155 246 164 c 0,34,35
 246 203 246 203 274 231 c 0,36,37
 285 243 285 243 306 251.5 c 128,-1,38
 327 260 327 260 338.5 271.5 c 128,-1,39
 350 283 350 283 350 311 c 0,40,41
 350 345 350 345 314 345 c 0,42,43
 250 345 250 345 192 254.5 c 128,-1,44
 134 164 134 164 134 93 c 0,45,46
 134 69 134 69 150.5 52 c 128,-1,47
 167 35 167 35 190 35 c 0,48,49
 242 35 242 35 275.5 78.5 c 128,-1,50
 309 122 309 122 309 159 c 0,27,28
EndSplineSet
EndChar

StartChar: p
Encoding: 112 112 83
Width: 408
GlyphClass: 2
Flags: W
LayerCount: 2
Fore
SplineSet
100 -37 m 0,0,1
 55 -37 55 -37 48 -46 c 0,2,3
 14 -90 14 -90 -92.5 -294 c 128,-1,4
 -199 -498 -199 -498 -228 -581 c 0,5,6
 -232 -593 -232 -593 -247 -593 c 128,-1,7
 -262 -593 -262 -593 -282 -571 c 128,-1,8
 -302 -549 -302 -549 -302 -524 c 0,9,10
 -302 -489 -302 -489 -202 -311.5 c 128,-1,11
 -102 -134 -102 -134 35.5 98 c 128,-1,12
 173 330 173 330 196.5 374.5 c 128,-1,13
 220 419 220 419 221 421.5 c 128,-1,14
 222 424 222 424 228 431.5 c 128,-1,15
 234 439 234 439 242 444 c 0,16,17
 265 459 265 459 303 459 c 0,18,19
 324 459 324 459 324 446 c 0,20,21
 324 440 324 440 296.5 398 c 128,-1,22
 269 356 269 356 269 346 c 128,-1,23
 269 336 269 336 276 336 c 128,-1,24
 283 336 283 336 302 348 c 0,25,26
 361 385 361 385 411 385 c 0,27,28
 431 385 431 385 447 369 c 128,-1,29
 463 353 463 353 463 316 c 0,30,31
 463 235 463 235 415 153.5 c 128,-1,32
 367 72 367 72 281.5 17.5 c 128,-1,33
 196 -37 196 -37 100 -37 c 0,0,1
358 264 m 0,34,35
 358 278 358 278 352 286.5 c 128,-1,36
 346 295 346 295 337 295 c 0,37,38
 301 295 301 295 258 261 c 128,-1,39
 215 227 215 227 183.5 184 c 128,-1,40
 152 141 152 141 130.5 105 c 128,-1,41
 109 69 109 69 109 59 c 128,-1,42
 109 49 109 49 123.5 39 c 128,-1,43
 138 29 138 29 158 29 c 0,44,45
 221 29 221 29 289.5 115 c 128,-1,46
 358 201 358 201 358 264 c 0,34,35
EndSplineSet
EndChar

StartChar: q
Encoding: 113 113 84
Width: 423
GlyphClass: 2
Flags: W
LayerCount: 2
Fore
SplineSet
299 -41 m 2,0,-1
 329 -39 l 1,1,2
 379 -39 379 -39 379 -67 c 0,3,4
 379 -76 379 -76 358.5 -85.5 c 128,-1,5
 338 -95 338 -95 309.5 -106 c 128,-1,6
 281 -117 281 -117 243 -147 c 128,-1,7
 205 -177 205 -177 177.5 -220.5 c 128,-1,8
 150 -264 150 -264 74 -409 c 128,-1,9
 -2 -554 -2 -554 -28 -629 c 0,10,11
 -32 -641 -32 -641 -48 -641 c 128,-1,12
 -64 -641 -64 -641 -84.5 -619.5 c 128,-1,13
 -105 -598 -105 -598 -105 -572 c 128,-1,14
 -105 -546 -105 -546 -58 -467.5 c 128,-1,15
 -11 -389 -11 -389 36 -315.5 c 128,-1,16
 83 -242 83 -242 83 -229 c 128,-1,17
 83 -216 83 -216 75.5 -204.5 c 128,-1,18
 68 -193 68 -193 59 -186.5 c 128,-1,19
 50 -180 50 -180 50 -176 c 0,20,21
 50 -160 50 -160 87.5 -127.5 c 128,-1,22
 125 -95 125 -95 170 -70 c 0,23,24
 182 -63 182 -63 203.5 -29.5 c 128,-1,25
 225 4 225 4 240 34 c 2,26,-1
 255 64 l 2,27,28
 256 66 256 66 256 70 c 0,29,30
 256 78 256 78 248 78 c 128,-1,31
 240 78 240 78 221.5 64.5 c 128,-1,32
 203 51 203 51 183.5 35.5 c 128,-1,33
 164 20 164 20 133.5 6.5 c 128,-1,34
 103 -7 103 -7 73 -7 c 0,35,36
 32 -7 32 -7 32 54 c 0,37,38
 32 103 32 103 57 162 c 128,-1,39
 82 221 82 221 127 276 c 128,-1,40
 172 331 172 331 245.5 368 c 128,-1,41
 319 405 319 405 405 405 c 0,42,43
 441 405 441 405 479.5 388 c 128,-1,44
 518 371 518 371 518 340 c 128,-1,45
 518 309 518 309 502 309 c 0,46,47
 498 309 498 309 489.5 316.5 c 128,-1,48
 481 324 481 324 451.5 332 c 128,-1,49
 422 340 422 340 367 340 c 0,50,51
 286 340 286 340 219 269.5 c 128,-1,52
 152 199 152 199 152 128 c 0,53,54
 152 103 152 103 173 103 c 0,55,56
 206 103 206 103 260 145 c 128,-1,57
 314 187 314 187 370 275 c 0,58,59
 379 289 379 289 422.5 289 c 128,-1,60
 466 289 466 289 466 272 c 0,61,62
 466 267 466 267 436 225 c 0,63,64
 336 82 336 82 289 -17 c 0,65,66
 285 -24 285 -24 285 -30 c 0,67,68
 285 -41 285 -41 299 -41 c 2,0,-1
EndSplineSet
EndChar

StartChar: r
Encoding: 114 114 85
Width: 401
GlyphClass: 2
Flags: W
LayerCount: 2
Fore
SplineSet
330 146.5 m 128,-1,1
 320 166 320 166 320 184.5 c 128,-1,2
 320 203 320 203 332 227 c 1,3,4
 332 240 332 240 322 240 c 0,5,6
 283 240 283 240 233 193.5 c 128,-1,7
 183 147 183 147 149 97.5 c 128,-1,8
 115 48 115 48 87 -2 c 0,9,10
 70 -32 70 -32 17 -32 c 0,11,12
 -10 -32 -10 -32 -10 -20 c 0,13,14
 -10 7 -10 7 88.5 181.5 c 128,-1,15
 187 356 187 356 219 368 c 1,16,17
 241 379 241 379 268.5 379 c 128,-1,18
 296 379 296 379 296 367.5 c 128,-1,19
 296 356 296 356 273 323 c 128,-1,20
 250 290 250 290 250 281 c 128,-1,21
 250 272 250 272 257 272 c 0,22,23
 261 272 261 272 279 284 c 1,24,25
 323 317 323 317 387 352 c 1,26,-1
 396 364 l 1,27,28
 420 394 420 394 465.5 394 c 128,-1,29
 511 394 511 394 511 376 c 1,30,31
 509 371 509 371 501 360 c 0,32,33
 422 252 422 252 368 134 c 0,34,35
 364 127 364 127 359 127 c 0,36,0
 340 127 340 127 330 146.5 c 128,-1,1
EndSplineSet
EndChar

StartChar: s
Encoding: 115 115 86
Width: 346
GlyphClass: 2
Flags: W
LayerCount: 2
Fore
SplineSet
-50 -47 m 1,0,1
 -50 -39 -50 -39 -39 -37 c 1,2,3
 31 -37 31 -37 110.5 8 c 128,-1,4
 190 53 190 53 190 102 c 0,5,6
 190 138 190 138 142 171.5 c 128,-1,7
 94 205 94 205 94 242 c 0,8,9
 94 297 94 297 164 337.5 c 128,-1,10
 234 378 234 378 323 378 c 0,11,12
 339 378 339 378 344 377.5 c 128,-1,13
 349 377 349 377 353.5 383.5 c 128,-1,14
 358 390 358 390 364 398 c 128,-1,15
 370 406 370 406 386 412.5 c 128,-1,16
 402 419 402 419 424 419 c 0,17,18
 475 419 475 419 475 404 c 0,19,20
 475 401 475 401 474 399 c 0,21,22
 458 385 458 385 417 330 c 128,-1,23
 376 275 376 275 357 227 c 0,24,25
 353 218 353 218 339.5 218 c 128,-1,26
 326 218 326 218 313 233.5 c 128,-1,27
 300 249 300 249 300 263.5 c 128,-1,28
 300 278 300 278 305 294.5 c 128,-1,29
 310 311 310 311 310 314 c 0,30,31
 310 327 310 327 294 327 c 0,32,33
 263 327 263 327 229.5 308.5 c 128,-1,34
 196 290 196 290 196 255 c 0,35,36
 196 221 196 221 246 186 c 0,37,38
 265 172 265 172 280.5 150 c 128,-1,39
 296 128 296 128 296 104 c 0,40,41
 296 36 296 36 207 -19.5 c 128,-1,42
 118 -75 118 -75 14 -75 c 0,43,44
 -45 -75 -45 -75 -50 -47 c 1,0,1
EndSplineSet
EndChar

StartChar: t
Encoding: 116 116 87
Width: 210
GlyphClass: 2
Flags: W
LayerCount: 2
Fore
SplineSet
545 639 m 1,0,-1
 594 641 l 2,1,2
 604 641 604 641 604 637 c 128,-1,3
 604 633 604 633 602 627 c 128,-1,4
 600 621 600 621 593.5 612 c 128,-1,5
 587 603 587 603 578 596 c 0,6,7
 554 577 554 577 518.5 577 c 128,-1,8
 483 577 483 577 466.5 575 c 128,-1,9
 450 573 450 573 438 565 c 128,-1,10
 426 557 426 557 422 553 c 128,-1,11
 418 549 418 549 408 533 c 128,-1,12
 398 517 398 517 394 511 c 0,13,14
 341 437 341 437 222.5 232 c 128,-1,15
 104 27 104 27 75 -85 c 0,16,17
 72 -95 72 -95 56.5 -95 c 128,-1,18
 41 -95 41 -95 14 -69 c 128,-1,19
 -13 -43 -13 -43 -13 -16 c 128,-1,20
 -13 11 -13 11 68.5 145 c 128,-1,21
 150 279 150 279 232 408.5 c 128,-1,22
 314 538 314 538 314 552.5 c 128,-1,23
 314 567 314 567 302 570.5 c 128,-1,24
 290 574 290 574 260 574 c 2,25,-1
 227 574 l 2,26,27
 214 574 214 574 214 586 c 128,-1,28
 214 598 214 598 225.5 611.5 c 128,-1,29
 237 625 237 625 260.5 635 c 128,-1,30
 284 645 284 645 308.5 655 c 128,-1,31
 333 665 333 665 372.5 700 c 128,-1,32
 412 735 412 735 452 790 c 0,33,34
 477 824 477 824 538 824 c 0,35,36
 559 824 559 824 559 811 c 0,37,38
 559 803 559 803 514 738 c 128,-1,39
 469 673 469 673 469 656.5 c 128,-1,40
 469 640 469 640 499 640 c 1,41,42
 511 639 511 639 545 639 c 1,0,-1
EndSplineSet
EndChar

StartChar: u
Encoding: 117 117 88
Width: 444
GlyphClass: 2
Flags: W
LayerCount: 2
Fore
SplineSet
295 90 m 2,0,1
 295 97 295 97 290 97 c 2,2,-1
 288 97 l 1,3,-1
 273 90 l 1,4,5
 208 27 208 27 167 3.5 c 128,-1,6
 126 -20 126 -20 82 -20 c 0,7,8
 62 -20 62 -20 46 -8 c 128,-1,9
 30 4 30 4 30 38 c 128,-1,10
 30 72 30 72 65 158 c 128,-1,11
 100 244 100 244 152 322.5 c 128,-1,12
 204 401 204 401 243 411 c 0,13,14
 256 415 256 415 278 415 c 128,-1,15
 300 415 300 415 300 403 c 0,16,17
 300 399 300 399 264 347.5 c 128,-1,18
 228 296 228 296 192.5 230 c 128,-1,19
 157 164 157 164 157 131 c 128,-1,20
 157 98 157 98 180 98 c 0,21,22
 223 98 223 98 279 154 c 128,-1,23
 335 210 335 210 426 331 c 1,24,25
 451 367 451 367 506 367 c 0,26,27
 536 367 536 367 536 355 c 0,28,29
 536 352 536 352 533 347 c 0,30,31
 376 105 376 105 344 0 c 0,32,33
 340 -12 340 -12 334 -12 c 2,34,-1
 331 -12 l 2,35,36
 291 -12 291 -12 291 52 c 1,37,-1
 295 90 l 2,0,1
EndSplineSet
EndChar

StartChar: v
Encoding: 118 118 89
Width: 392
GlyphClass: 2
Flags: W
LayerCount: 2
Fore
SplineSet
79 -44 m 0,0,1
 59 -44 59 -44 50.5 -29.5 c 128,-1,2
 42 -15 42 -15 42 1 c 0,3,4
 42 62 42 62 68 145 c 128,-1,5
 94 228 94 228 120 281 c 2,6,-1
 146 334 l 1,7,8
 142 334 142 334 149.5 341.5 c 128,-1,9
 157 349 157 349 164 354 c 1,10,11
 184 365 184 365 207.5 365 c 128,-1,12
 231 365 231 365 231 357 c 0,13,14
 231 355 231 355 222 338 c 128,-1,15
 213 321 213 321 186.5 238 c 128,-1,16
 160 155 160 155 160 114 c 128,-1,17
 160 73 160 73 180 73 c 0,18,19
 225 73 225 73 287.5 159 c 128,-1,20
 350 245 350 245 350 295 c 1,21,22
 324 305 324 305 324 329.5 c 128,-1,23
 324 354 324 354 343.5 379.5 c 128,-1,24
 363 405 363 405 374 405 c 0,25,26
 375 405 375 405 389.5 400.5 c 128,-1,27
 404 396 404 396 429.5 396 c 128,-1,28
 455 396 455 396 475 402 c 128,-1,29
 495 408 495 408 505.5 413.5 c 128,-1,30
 516 419 516 419 519 419 c 0,31,32
 527 419 527 419 527 409 c 0,33,34
 527 404 527 404 520 386 c 128,-1,35
 513 368 513 368 506 356 c 0,36,37
 486 324 486 324 452 311 c 0,38,39
 444 307 444 307 444 302 c 0,40,41
 444 277 444 277 429 250 c 0,42,43
 384 163 384 163 264.5 59.5 c 128,-1,44
 145 -44 145 -44 79 -44 c 0,0,1
EndSplineSet
EndChar

StartChar: w
Encoding: 119 119 90
Width: 612
GlyphClass: 2
Flags: W
LayerCount: 2
Fore
SplineSet
287 41 m 1,0,-1
 289 86 l 2,1,2
 289 103 289 103 282 103 c 0,3,4
 265 103 265 103 199 28 c 0,5,6
 174 -1 174 -1 141 -24.5 c 128,-1,7
 108 -48 108 -48 85.5 -48 c 128,-1,8
 63 -48 63 -48 54.5 -33.5 c 128,-1,9
 46 -19 46 -19 46 -3 c 0,10,11
 46 65 46 65 75 159 c 128,-1,12
 104 253 104 253 134 312 c 1,13,-1
 163 372 l 1,14,15
 184 403 184 403 236 403 c 0,16,17
 253 403 253 403 253 395 c 0,18,19
 253 393 253 393 244 376 c 128,-1,20
 235 359 235 359 206 270.5 c 128,-1,21
 177 182 177 182 177 145.5 c 128,-1,22
 177 109 177 109 192 109 c 128,-1,23
 207 109 207 109 229 127 c 128,-1,24
 251 145 251 145 272 172 c 0,25,26
 317 230 317 230 340 268 c 2,27,-1
 351 286 l 1,28,-1
 363 298 l 1,29,30
 388 317 388 317 427 317 c 0,31,32
 444 317 444 317 444 309 c 0,33,34
 444 307 444 307 436 292 c 128,-1,35
 428 277 428 277 408.5 215.5 c 128,-1,36
 389 154 389 154 389 115 c 128,-1,37
 389 76 389 76 412 76 c 0,38,39
 454 76 454 76 508 157 c 128,-1,40
 562 238 562 238 562 285 c 1,41,42
 536 295 536 295 536 319.5 c 128,-1,43
 536 344 536 344 555.5 369.5 c 128,-1,44
 575 395 575 395 586 395 c 0,45,46
 587 395 587 395 601.5 390.5 c 128,-1,47
 616 386 616 386 641 386 c 128,-1,48
 666 386 666 386 686.5 392 c 128,-1,49
 707 398 707 398 717.5 403.5 c 128,-1,50
 728 409 728 409 730 409 c 0,51,52
 739 409 739 409 739 400 c 128,-1,53
 739 391 739 391 736 379 c 128,-1,54
 733 367 733 367 714.5 340.5 c 128,-1,55
 696 314 696 314 664 301 c 0,56,57
 656 297 656 297 656 292 c 0,58,59
 656 267 656 267 641 240 c 0,60,61
 599 160 599 160 498 68 c 128,-1,62
 397 -24 397 -24 336 -24 c 0,63,64
 287 -24 287 -24 287 41 c 1,0,-1
EndSplineSet
EndChar

StartChar: x
Encoding: 120 120 91
Width: 406
GlyphClass: 2
Flags: W
LayerCount: 2
Fore
SplineSet
309 293 m 0,0,1
 343 293 343 293 424 381 c 1,2,3
 424 383 424 383 431 389.5 c 128,-1,4
 438 396 438 396 465 404.5 c 128,-1,5
 492 413 492 413 532 413 c 128,-1,6
 572 413 572 413 572 399 c 0,7,8
 572 391 572 391 529 365 c 128,-1,9
 486 339 486 339 434 309.5 c 128,-1,10
 382 280 382 280 339 239.5 c 128,-1,11
 296 199 296 199 296 166 c 0,12,13
 296 112 296 112 302 66 c 128,-1,14
 308 20 308 20 314 1 c 2,15,-1
 320 -18 l 1,16,17
 320 -32 320 -32 304 -32 c 0,18,19
 213 -32 213 -32 213 5 c 2,20,-1
 213 18 l 2,21,22
 213 138 213 138 193.5 138 c 128,-1,23
 174 138 174 138 137.5 100 c 128,-1,24
 101 62 101 62 75 24 c 2,25,-1
 49 -13 l 1,26,27
 28 -39 28 -39 -27 -39 c 0,28,29
 -45 -39 -45 -39 -55 -35.5 c 128,-1,30
 -65 -32 -65 -32 -66 -28 c 1,31,-1
 -66 -25 l 2,32,33
 -66 -10 -66 -10 24 70 c 128,-1,34
 114 150 114 150 169 192 c 0,35,36
 198 214 198 214 198 246.5 c 128,-1,37
 198 279 198 279 194 304 c 128,-1,38
 190 329 190 329 184.5 337.5 c 128,-1,39
 179 346 179 346 175 352 c 128,-1,40
 171 358 171 358 171 362 c 0,41,42
 171 377 171 377 202.5 389 c 128,-1,43
 234 401 234 401 253.5 401 c 128,-1,44
 273 401 273 401 280 398 c 0,45,46
 292 394 292 394 292 343.5 c 128,-1,47
 292 293 292 293 309 293 c 0,0,1
EndSplineSet
EndChar

StartChar: y
Encoding: 121 121 92
Width: 429
GlyphClass: 2
Flags: W
LayerCount: 2
Fore
SplineSet
-207 -627 m 0,0,1
 -249 -627 -249 -627 -249 -557 c 128,-1,2
 -249 -487 -249 -487 -208 -401.5 c 128,-1,3
 -167 -316 -167 -316 -109.5 -244.5 c 128,-1,4
 -52 -173 -52 -173 13 -123 c 128,-1,5
 78 -73 78 -73 122 -73 c 0,6,7
 137 -73 137 -73 137 -80 c 128,-1,8
 137 -87 137 -87 125 -93 c 0,9,10
 87 -113 87 -113 28.5 -178.5 c 128,-1,11
 -30 -244 -30 -244 -77.5 -328.5 c 128,-1,12
 -125 -413 -125 -413 -125 -471 c 0,13,14
 -125 -496 -125 -496 -107 -496 c 0,15,16
 -72 -496 -72 -496 -1 -398 c 0,17,18
 114 -241 114 -241 234 2 c 0,19,20
 270 74 270 74 270 88 c 128,-1,21
 270 102 270 102 262 102 c 0,22,23
 252 102 252 102 242 92 c 1,24,25
 130 -4 130 -4 68 -4 c 0,26,27
 23 -4 23 -4 23 44.5 c 128,-1,28
 23 93 23 93 76.5 194.5 c 128,-1,29
 130 296 130 296 185 351 c 0,30,31
 197 363 197 363 218 370.5 c 128,-1,32
 239 378 239 378 261.5 378 c 128,-1,33
 284 378 284 378 284 368 c 0,34,35
 284 364 284 364 252 322 c 0,36,37
 155 193 155 193 155 138 c 0,38,39
 155 114 155 114 176 114 c 0,40,41
 213 114 213 114 290.5 186 c 128,-1,42
 368 258 368 258 426 355 c 1,43,44
 444 391 444 391 506 391 c 0,45,46
 536 391 536 391 536 379 c 0,47,48
 536 376 536 376 533 371 c 0,49,50
 436 211 436 211 356 62.5 c 128,-1,51
 276 -86 276 -86 227.5 -166.5 c 128,-1,52
 179 -247 179 -247 119.5 -334 c 128,-1,53
 60 -421 60 -421 5.5 -483.5 c 128,-1,54
 -49 -546 -49 -546 -105.5 -586.5 c 128,-1,55
 -162 -627 -162 -627 -207 -627 c 0,0,1
EndSplineSet
EndChar

StartChar: z
Encoding: 122 122 93
Width: 364
GlyphClass: 2
Flags: W
LayerCount: 2
Fore
SplineSet
272 -29 m 0,0,1
 272 -86 272 -86 218.5 -188 c 128,-1,2
 165 -290 165 -290 90.5 -387 c 128,-1,3
 16 -484 16 -484 -71 -555.5 c 128,-1,4
 -158 -627 -158 -627 -218 -627 c 0,5,6
 -260 -627 -260 -627 -260 -557 c 128,-1,7
 -260 -487 -260 -487 -219 -401.5 c 128,-1,8
 -178 -316 -178 -316 -120.5 -244.5 c 128,-1,9
 -63 -173 -63 -173 2 -123 c 128,-1,10
 67 -73 67 -73 111 -73 c 0,11,12
 126 -73 126 -73 126 -80 c 128,-1,13
 126 -87 126 -87 114 -93 c 0,14,15
 76 -113 76 -113 17.5 -178.5 c 128,-1,16
 -41 -244 -41 -244 -88.5 -328.5 c 128,-1,17
 -136 -413 -136 -413 -136 -471 c 0,18,19
 -136 -496 -136 -496 -118 -496 c 0,20,21
 -81 -496 -81 -496 -9.5 -419 c 128,-1,22
 62 -342 62 -342 120 -237.5 c 128,-1,23
 178 -133 178 -133 178 -67 c 0,24,25
 178 -21 178 -21 154.5 5.5 c 128,-1,26
 131 32 131 32 86 32 c 0,27,28
 53 32 53 32 31 26.5 c 128,-1,29
 9 21 9 21 4.5 21 c 128,-1,30
 0 21 0 21 0 29.5 c 128,-1,31
 0 38 0 38 0.5 41.5 c 128,-1,32
 1 45 1 45 4.5 54 c 128,-1,33
 8 63 8 63 12.5 71 c 128,-1,34
 17 79 17 79 26.5 87.5 c 128,-1,35
 36 96 36 96 48 100 c 128,-1,36
 60 104 60 104 79 111 c 128,-1,37
 98 118 98 118 146.5 139.5 c 128,-1,38
 195 161 195 161 232.5 182.5 c 128,-1,39
 270 204 270 204 300.5 233.5 c 128,-1,40
 331 263 331 263 331 288 c 0,41,42
 331 323 331 323 253 323 c 0,43,44
 219 323 219 323 188 314 c 1,45,-1
 156 306 l 1,46,47
 149 306 149 306 149 316 c 0,48,49
 149 341 149 341 204 366 c 128,-1,50
 259 391 259 391 332 391 c 0,51,52
 359 391 359 391 393 382 c 0,53,54
 458 366 458 366 458 325 c 0,55,56
 458 291 458 291 416 251 c 128,-1,57
 374 211 374 211 323 182 c 0,58,59
 188 107 188 107 188 91 c 0,60,61
 188 82 188 82 201 73.5 c 128,-1,62
 214 65 214 65 230 56.5 c 128,-1,63
 246 48 246 48 259 26 c 128,-1,64
 272 4 272 4 272 -29 c 0,0,1
EndSplineSet
EndChar

StartChar: braceleft
Encoding: 123 123 94
Width: 268
GlyphClass: 2
Flags: W
LayerCount: 2
Fore
SplineSet
98 -76 m 0,0,1
 83 -76 83 -76 66 -37.5 c 128,-1,2
 49 1 49 1 49 38.5 c 128,-1,3
 49 76 49 76 111 173.5 c 128,-1,4
 173 271 173 271 173 288 c 0,5,6
 173 321 173 321 147 351 c 0,7,8
 142 358 142 358 142 362 c 0,9,10
 142 374 142 374 164 378 c 1,11,12
 185 378 185 378 211 395 c 0,13,14
 261 428 261 428 288 476 c 1,15,16
 367 623 367 623 378 641 c 128,-1,17
 389 659 389 659 406.5 678.5 c 128,-1,18
 424 698 424 698 444.5 713 c 128,-1,19
 465 728 465 728 500 740.5 c 128,-1,20
 535 753 535 753 575 753 c 1,21,22
 585 750 585 750 585 743.5 c 128,-1,23
 585 737 585 737 566 727.5 c 128,-1,24
 547 718 547 718 536.5 711 c 128,-1,25
 526 704 526 704 506 684 c 1,26,27
 469 644 469 644 417.5 546 c 128,-1,28
 366 448 366 448 336 417 c 128,-1,29
 306 386 306 386 235 362 c 0,30,31
 215 355 215 355 215 344 c 0,32,33
 215 339 215 339 220 327 c 1,34,35
 245 289 245 289 245 258 c 0,36,37
 245 244 245 244 210.5 186.5 c 128,-1,38
 176 129 176 129 141 64 c 128,-1,39
 106 -1 106 -1 106 -32 c 2,40,-1
 106 -41 l 2,41,42
 106 -76 106 -76 98 -76 c 0,0,1
EndSplineSet
EndChar

StartChar: bar
Encoding: 124 124 95
Width: 322
GlyphClass: 2
Flags: W
LayerCount: 2
Fore
SplineSet
125 -34 m 0,0,1
 112 -59 112 -59 70 -59 c 128,-1,2
 28 -59 28 -59 28 -44 c 0,3,4
 28 -40 28 -40 31 -34 c 2,5,-1
 53 -2 l 1,6,7
 418 632 418 632 456 703 c 0,8,9
 470 729 470 729 521 729 c 2,10,-1
 523 729 l 2,11,12
 553 729 553 729 553 714 c 0,13,14
 553 710 553 710 550 704 c 2,15,-1
 529 671 l 1,16,17
 160 35 160 35 125 -34 c 0,0,1
EndSplineSet
EndChar

StartChar: braceright
Encoding: 125 125 96
Width: 309
GlyphClass: 2
Flags: W
LayerCount: 2
Fore
SplineSet
425 753 m 0,0,1
 440 753 440 753 457 714.5 c 128,-1,2
 474 676 474 676 474 638.5 c 128,-1,3
 474 601 474 601 411.5 503.5 c 128,-1,4
 349 406 349 406 349 392 c 128,-1,5
 349 378 349 378 351 368.5 c 128,-1,6
 353 359 353 359 356.5 352 c 128,-1,7
 360 345 360 345 363 340 c 0,8,9
 368 333 368 333 375 326 c 1,10,11
 380 319 380 319 380 315 c 0,12,13
 380 305 380 305 359 299 c 1,14,15
 318 299 318 299 268 246 c 0,16,17
 249 226 249 226 235 201 c 0,18,19
 149 45 149 45 141 31.5 c 128,-1,20
 133 18 133 18 116 -1.5 c 128,-1,21
 99 -21 99 -21 78.5 -36 c 128,-1,22
 58 -51 58 -51 22.5 -63.5 c 128,-1,23
 -13 -76 -13 -76 -53 -76 c 1,24,25
 -63 -73 -63 -73 -63 -66.5 c 128,-1,26
 -63 -60 -63 -60 -44 -50.5 c 128,-1,27
 -25 -41 -25 -41 -14.5 -33.5 c 128,-1,28
 -4 -26 -4 -26 16 -6 c 0,29,30
 56 35 56 35 117 156 c 1,31,32
 155 229 155 229 185.5 260 c 128,-1,33
 216 291 216 291 287 316 c 0,34,35
 307 323 307 323 307 334 c 0,36,37
 307 340 307 340 292.5 369 c 128,-1,38
 278 398 278 398 278 416 c 128,-1,39
 278 434 278 434 347.5 551 c 128,-1,40
 417 668 417 668 417 709 c 2,41,-1
 417 718 l 2,42,43
 417 753 417 753 425 753 c 0,0,1
EndSplineSet
EndChar

StartChar: asciitilde
Encoding: 126 126 97
Width: 283
GlyphClass: 2
Flags: W
LayerCount: 2
Fore
SplineSet
221 148.5 m 128,-1,1
 185 135 185 135 125 135 c 128,-1,2
 65 135 65 135 65 156 c 0,3,4
 65 169 65 169 87.5 193 c 128,-1,5
 110 217 110 217 123 217 c 1,6,7
 153 201 153 201 196 201 c 128,-1,8
 239 201 239 201 276 207 c 1,9,-1
 278 207 l 2,10,11
 283 207 283 207 283 199 c 128,-1,12
 283 191 283 191 270 176.5 c 128,-1,0
 257 162 257 162 221 148.5 c 128,-1,1
EndSplineSet
EndChar

StartChar: exclamdown
Encoding: 161 161 98
Width: 299
GlyphClass: 2
Flags: W
LayerCount: 2
Fore
SplineSet
243 380 m 0,0,1
 243 410 243 410 272.5 430 c 128,-1,2
 302 450 302 450 326.5 450 c 128,-1,3
 351 450 351 450 364 440.5 c 128,-1,4
 377 431 377 431 377 415 c 0,5,6
 377 384 377 384 348 364.5 c 128,-1,7
 319 345 319 345 294 345 c 128,-1,8
 269 345 269 345 256 354.5 c 128,-1,9
 243 364 243 364 243 380 c 0,0,1
-93 -201 m 0,10,11
 -117 -201 -117 -201 -117 -188 c 128,-1,12
 -117 -175 -117 -175 -54 -85.5 c 128,-1,13
 9 4 9 4 89 117 c 128,-1,14
 169 230 169 230 197 280 c 0,15,16
 211 305 211 305 246.5 305 c 128,-1,17
 282 305 282 305 282 297 c 1,18,-1
 276 282 l 1,19,20
 124 46 124 46 26 -170 c 1,21,22
 -1 -201 -1 -201 -93 -201 c 0,10,11
EndSplineSet
EndChar

StartChar: cent
Encoding: 162 162 99
Width: 355
GlyphClass: 2
Flags: W
LayerCount: 2
Fore
SplineSet
215 70 m 0,0,1
 258 70 258 70 287 88 c 0,2,3
 300 96 300 96 305 96 c 0,4,5
 313 96 313 96 315 85 c 1,6,7
 315 59 315 59 268 24.5 c 128,-1,8
 221 -10 221 -10 151 -10 c 2,9,-1
 150 -10 l 1,10,-1
 132 -41 l 2,11,12
 120 -62 120 -62 95.5 -62 c 128,-1,13
 71 -62 71 -62 71 -55 c 1,14,-1
 76 -45 l 2,15,16
 78 -42 78 -42 83 -34 c 128,-1,17
 88 -26 88 -26 93 -18 c 128,-1,18
 98 -10 98 -10 102 -2 c 1,19,20
 43 21 43 21 43 101 c 0,21,22
 43 140 43 140 62 188 c 128,-1,23
 81 236 81 236 115.5 282 c 128,-1,24
 150 328 150 328 207.5 361.5 c 128,-1,25
 265 395 265 395 332 400 c 1,26,-1
 340 412 l 2,27,28
 346 421 346 421 348 426 c 0,29,30
 361 448 361 448 385 448 c 128,-1,31
 409 448 409 448 409 441 c 1,32,-1
 404 431 l 2,33,34
 402 428 402 428 384 399 c 1,35,36
 446 392 446 392 446 374 c 0,37,38
 446 371 446 371 436 360 c 0,39,40
 397 320 397 320 377 278 c 0,41,42
 375 272 375 272 365.5 272 c 128,-1,43
 356 272 356 272 351.5 278 c 128,-1,44
 347 284 347 284 343 296 c 128,-1,45
 339 308 339 308 334 314 c 1,46,-1
 196 71 l 1,47,48
 202 70 202 70 215 70 c 0,0,1
292 331 m 2,49,50
 235 331 235 331 189 263.5 c 128,-1,51
 143 196 143 196 143 141 c 0,52,53
 143 106 143 106 156 90 c 1,54,-1
 293 331 l 1,55,-1
 292 331 l 2,49,50
EndSplineSet
EndChar

StartChar: sterling
Encoding: 163 163 100
Width: 558
GlyphClass: 2
Flags: W
LayerCount: 2
Fore
SplineSet
328 0 m 1,0,-1
 189 3 l 2,1,2
 177 3 177 3 169 -5 c 0,3,4
 136 -34 136 -34 81 -34 c 0,5,6
 52 -34 52 -34 52 -21 c 2,7,-1
 52 -18 l 2,8,9
 52 -5 52 -5 106 86 c 0,10,11
 194 235 194 235 248 329 c 1,12,13
 173 329 173 329 146 327 c 1,14,-1
 141 327 l 2,15,16
 129 327 129 327 129 334 c 0,17,18
 129 346 129 346 144.5 365.5 c 128,-1,19
 160 385 160 385 185 385 c 0,20,21
 250 385 250 385 280 384 c 1,22,23
 350 509 350 509 372.5 560 c 128,-1,24
 395 611 395 611 395 649 c 2,25,-1
 395 657 l 2,26,27
 395 682 395 682 497 682 c 0,28,29
 549 682 549 682 549 663 c 0,30,31
 549 655 549 655 541 647 c 1,32,33
 496 582 496 582 388 382 c 1,34,-1
 427 382 l 2,35,36
 470 382 470 382 522 385 c 1,37,-1
 527 385 l 2,38,39
 539 385 539 385 539 377 c 0,40,41
 539 366 539 366 523 346.5 c 128,-1,42
 507 327 507 327 482 327 c 2,43,-1
 370 328 l 1,44,-1
 358 328 l 1,45,-1
 350 311 l 2,46,47
 344 300 344 300 342.5 298 c 128,-1,48
 341 296 341 296 321.5 261 c 128,-1,49
 302 226 302 226 290 203 c 128,-1,50
 278 180 278 180 266 146.5 c 128,-1,51
 254 113 254 113 254 92 c 0,52,53
 254 56 254 56 323 56 c 0,54,55
 360 56 360 56 408 72 c 0,56,57
 501 103 501 103 560 197 c 1,58,59
 561 206 561 206 580 206 c 128,-1,60
 599 206 599 206 599 186.5 c 128,-1,61
 599 167 599 167 568.5 108 c 128,-1,62
 538 49 538 49 513 19 c 0,63,64
 501 4 501 4 464 2 c 0,65,66
 400 0 400 0 328 0 c 1,0,-1
EndSplineSet
EndChar

StartChar: yen
Encoding: 165 165 101
Width: 539
GlyphClass: 2
Flags: W
LayerCount: 2
Fore
SplineSet
274 350 m 1,0,-1
 163 347 l 2,1,2
 153 347 153 347 153 355 c 0,3,4
 153 366 153 366 168.5 385.5 c 128,-1,5
 184 405 184 405 209 405 c 2,6,-1
 279 405 l 1,7,8
 283 460 283 460 283 521 c 1,9,-1
 282 569 l 1,10,11
 282 625 282 625 271 652 c 1,12,13
 265 658 265 658 265 668 c 0,14,15
 265 687 265 687 338 687 c 128,-1,16
 411 687 411 687 411 643 c 1,17,-1
 388 439 l 1,18,19
 388 410 388 410 407 410 c 0,20,21
 418 410 418 410 432 422 c 0,22,23
 491 473 491 473 556 540 c 128,-1,24
 621 607 621 607 633.5 623 c 128,-1,25
 646 639 646 639 649 643.5 c 128,-1,26
 652 648 652 648 653.5 649.5 c 128,-1,27
 655 651 655 651 658 654.5 c 128,-1,28
 661 658 661 658 663.5 659.5 c 128,-1,29
 666 661 666 661 670 663.5 c 128,-1,30
 674 666 674 666 684 670 c 0,31,32
 709 681 709 681 758 682 c 1,33,-1
 774 683 l 1,34,35
 827 683 827 683 827 667 c 0,36,37
 827 657 827 657 811 648 c 0,38,39
 768 623 768 623 675 550.5 c 128,-1,40
 582 478 582 478 497 403 c 1,41,42
 544 403 544 403 567 405 c 1,43,-1
 572 405 l 2,44,45
 584 405 584 405 584 398 c 0,46,47
 584 386 584 386 568.5 366.5 c 128,-1,48
 553 347 553 347 528 347 c 2,49,-1
 436 347 l 1,50,51
 399 312 399 312 380 285 c 1,52,-1
 415 285 l 1,53,-1
 506 287 l 2,54,55
 518 287 518 287 518 280 c 0,56,57
 518 268 518 268 502 248.5 c 128,-1,58
 486 229 486 229 461 229 c 2,59,-1
 347 230 l 1,60,61
 335 209 335 209 303 148.5 c 128,-1,62
 271 88 271 88 252 57 c 128,-1,63
 233 26 233 26 219 17 c 1,64,65
 197 -2 197 -2 166 -2 c 0,66,67
 114 -2 114 -2 114 17 c 0,68,69
 114 24 114 24 165.5 111.5 c 128,-1,70
 217 199 217 199 235 232 c 1,71,-1
 215 232 l 1,72,-1
 97 229 l 2,73,74
 87 229 87 229 87 237 c 0,75,76
 87 248 87 248 102.5 267.5 c 128,-1,77
 118 287 118 287 143 287 c 2,78,-1
 260 286 l 1,79,80
 268 305 268 305 274 350 c 1,0,-1
EndSplineSet
EndChar

StartChar: brokenbar
Encoding: 166 166 102
Width: 322
GlyphClass: 2
Flags: W
LayerCount: 2
Fore
SplineSet
127 -30 m 0,0,1
 114 -55 114 -55 72 -55 c 128,-1,2
 30 -55 30 -55 30 -40 c 0,3,4
 30 -36 30 -36 33 -30 c 2,5,-1
 55 2 l 1,6,7
 173 203 173 203 211 274 c 0,8,9
 225 300 225 300 276 300 c 2,10,-1
 278 300 l 2,11,12
 308 300 308 300 308 285 c 0,13,14
 308 281 308 281 305 275 c 2,15,-1
 284 242 l 1,16,17
 162 39 162 39 127 -30 c 0,0,1
372 399 m 0,18,19
 359 374 359 374 317 374 c 128,-1,20
 275 374 275 374 275 389 c 0,21,22
 275 393 275 393 278 399 c 2,23,-1
 300 431 l 1,24,25
 418 632 418 632 456 703 c 0,26,27
 470 729 470 729 521 729 c 2,28,-1
 523 729 l 2,29,30
 553 729 553 729 553 714 c 0,31,32
 553 710 553 710 550 704 c 2,33,-1
 529 671 l 1,34,35
 407 468 407 468 372 399 c 0,18,19
EndSplineSet
EndChar

StartChar: section
Encoding: 167 167 103
Width: 515
GlyphClass: 2
Flags: W
LayerCount: 2
Fore
SplineSet
107 -4 m 0,0,1
 74 -4 74 -4 53.5 5 c 128,-1,2
 33 14 33 14 33 25.5 c 128,-1,3
 33 37 33 37 51 37 c 0,4,5
 130 37 130 37 192.5 72 c 128,-1,6
 255 107 255 107 255 151 c 0,7,8
 255 173 255 173 235 195 c 128,-1,9
 215 217 215 217 191.5 231.5 c 128,-1,10
 168 246 168 246 148 267 c 128,-1,11
 128 288 128 288 128 313 c 128,-1,12
 128 338 128 338 145.5 364 c 128,-1,13
 163 390 163 390 185.5 406 c 128,-1,14
 208 422 208 422 244 438 c 1,15,16
 293 458 293 458 351 474 c 1,17,-1
 363 477 l 1,18,19
 381 483 381 483 381 491 c 128,-1,20
 381 499 381 499 369 508 c 0,21,22
 333 533 333 533 333 561 c 0,23,24
 333 610 333 610 415.5 645.5 c 128,-1,25
 498 681 498 681 587 681 c 128,-1,26
 676 681 676 681 676 650 c 0,27,28
 676 639 676 639 662 639 c 2,29,-1
 652 639 l 2,30,31
 574 639 574 639 519.5 612 c 128,-1,32
 465 585 465 585 465 556 c 0,33,34
 465 516 465 516 534 478 c 1,35,36
 559 463 559 463 580.5 437.5 c 128,-1,37
 602 412 602 412 602 375 c 128,-1,38
 602 338 602 338 563 306 c 128,-1,39
 524 274 524 274 476.5 259 c 128,-1,40
 429 244 429 244 390 228.5 c 128,-1,41
 351 213 351 213 351 202 c 128,-1,42
 351 191 351 191 367.5 172 c 128,-1,43
 384 153 384 153 384 135 c 0,44,45
 384 86 384 86 293 41 c 128,-1,46
 202 -4 202 -4 107 -4 c 0,0,1
481 376 m 0,47,48
 481 402 481 402 458 418.5 c 128,-1,49
 435 435 435 435 411 435 c 0,50,51
 365 435 365 435 306 400.5 c 128,-1,52
 247 366 247 366 247 327 c 0,53,54
 247 311 247 311 266 290 c 128,-1,55
 285 269 285 269 315 269 c 0,56,57
 376 269 376 269 428.5 303 c 128,-1,58
 481 337 481 337 481 376 c 0,47,48
EndSplineSet
EndChar

StartChar: dieresis
Encoding: 168 168 104
Width: 400
GlyphClass: 2
Flags: W
LayerCount: 2
Fore
SplineSet
338 528 m 0,0,1
 375 528 375 528 375 496 c 0,2,3
 375 480 375 480 354 462 c 128,-1,4
 333 444 333 444 311 444 c 0,5,6
 268 444 268 444 268 473 c 0,7,8
 268 493 268 493 289.5 510.5 c 128,-1,9
 311 528 311 528 338 528 c 0,0,1
523 528 m 0,10,11
 560 528 560 528 560 496 c 0,12,13
 560 480 560 480 539.5 462 c 128,-1,14
 519 444 519 444 496 444 c 0,15,16
 453 444 453 444 453 473 c 0,17,18
 453 493 453 493 474.5 510.5 c 128,-1,19
 496 528 496 528 523 528 c 0,10,11
EndSplineSet
EndChar

StartChar: copyright
Encoding: 169 169 105
Width: 340
GlyphClass: 2
Flags: W
LayerCount: 2
Fore
SplineSet
137 -20 m 0,0,1
 81 -20 81 -20 53 6.5 c 128,-1,2
 25 33 25 33 25 75 c 0,3,4
 25 149 25 149 94 218.5 c 128,-1,5
 163 288 163 288 259 288 c 0,6,7
 315 288 315 288 342.5 262.5 c 128,-1,8
 370 237 370 237 370 196 c 0,9,10
 370 122 370 122 300.5 51 c 128,-1,11
 231 -20 231 -20 137 -20 c 0,0,1
249 261 m 0,12,13
 179 261 179 261 125 201.5 c 128,-1,14
 71 142 71 142 71 82 c 0,15,16
 71 50 71 50 91 30.5 c 128,-1,17
 111 11 111 11 151 11 c 0,18,19
 222 11 222 11 273.5 69 c 128,-1,20
 325 127 325 127 325 188 c 0,21,22
 325 221 325 221 306 241 c 128,-1,23
 287 261 287 261 249 261 c 0,12,13
236 225 m 1,24,-1
 244 224 l 2,25,26
 248 224 248 224 256 229 c 128,-1,27
 264 234 264 234 279.5 233.5 c 128,-1,28
 295 233 295 233 295 224 c 0,29,30
 295 223 295 223 288 214 c 0,31,32
 260 183 260 183 247 153 c 0,33,34
 246 150 246 150 242 150 c 0,35,36
 227 150 227 150 227 169 c 1,37,-1
 230 186 l 1,38,39
 230 195 230 195 221 195 c 0,40,41
 195 195 195 195 175 165.5 c 128,-1,42
 155 136 155 136 155 111 c 0,43,44
 155 79 155 79 186 79 c 0,45,46
 206 79 206 79 214.5 84.5 c 128,-1,47
 223 90 223 90 227 90 c 128,-1,48
 231 90 231 90 231 82 c 128,-1,49
 231 74 231 74 210 58.5 c 128,-1,50
 189 43 189 43 159.5 43 c 128,-1,51
 130 43 130 43 119 57.5 c 128,-1,52
 108 72 108 72 108 91 c 0,53,54
 108 129 108 129 146 177 c 128,-1,55
 184 225 184 225 236 225 c 1,24,-1
EndSplineSet
EndChar

StartChar: ordfeminine
Encoding: 170 170 106
Width: 326
GlyphClass: 2
Flags: W
LayerCount: 2
Fore
SplineSet
301 575 m 1,0,-1
 285 571 l 1,1,2
 278 571 278 571 278 579 c 128,-1,3
 278 587 278 587 289 598 c 128,-1,4
 300 609 300 609 326 618.5 c 128,-1,5
 352 628 352 628 374.5 628 c 128,-1,6
 397 628 397 628 408.5 626.5 c 128,-1,7
 420 625 420 625 437 620 c 0,8,9
 475 607 475 607 475 566 c 0,10,11
 475 527 475 527 449.5 479 c 128,-1,12
 424 431 424 431 412 411 c 0,13,14
 388 371 388 371 356 323 c 1,15,16
 350 316 350 316 342 316 c 128,-1,17
 334 316 334 316 324.5 327 c 128,-1,18
 315 338 315 338 309 348.5 c 128,-1,19
 303 359 303 359 302 359 c 0,20,21
 299 359 299 359 270 342 c 128,-1,22
 241 325 241 325 215.5 325 c 128,-1,23
 190 325 190 325 178 338 c 0,24,25
 160 356 160 356 160 378 c 128,-1,26
 160 400 160 400 170 423.5 c 128,-1,27
 180 447 180 447 202.5 474 c 128,-1,28
 225 501 225 501 272 519.5 c 128,-1,29
 319 538 319 538 382 540 c 1,30,-1
 384 540 l 2,31,32
 395 540 395 540 395 553 c 0,33,34
 395 582 395 582 340 582 c 0,35,36
 318 582 318 582 301 575 c 1,0,-1
264 298 m 1,37,-1
 330 300 l 2,38,39
 337 300 337 300 337 291 c 128,-1,40
 337 282 337 282 326 263.5 c 128,-1,41
 315 245 315 245 299 245 c 1,42,43
 256 248 256 248 193 248 c 1,44,-1
 79 244 l 2,45,46
 72 244 72 244 72 252.5 c 128,-1,47
 72 261 72 261 83 280.5 c 128,-1,48
 94 300 94 300 110 300 c 2,49,-1
 264 298 l 1,37,-1
374 484 m 0,50,51
 374 490 374 490 364 493.5 c 128,-1,52
 354 497 354 497 346 497 c 0,53,54
 295 497 295 497 267 465.5 c 128,-1,55
 239 434 239 434 239 410 c 128,-1,56
 239 386 239 386 261 386 c 0,57,58
 297 386 297 386 335.5 425 c 128,-1,59
 374 464 374 464 374 484 c 0,50,51
EndSplineSet
EndChar

StartChar: guillemotleft
Encoding: 171 171 107
Width: 592
GlyphClass: 2
Flags: W
LayerCount: 2
Fore
SplineSet
474 -34 m 0,0,1
 474 -45 474 -45 451 -47 c 1,2,3
 403 -47 403 -47 384 -28 c 0,4,5
 348 8 348 8 317 71.5 c 128,-1,6
 286 135 286 135 286 166 c 0,7,8
 286 190 286 190 369.5 247.5 c 128,-1,9
 453 305 453 305 544 352.5 c 128,-1,10
 635 400 635 400 658 400 c 1,11,12
 670 401 670 401 685 401 c 0,13,14
 734 401 734 401 734 387 c 0,15,16
 734 381 734 381 725 376 c 2,17,-1
 704 365 l 1,18,19
 389 195 389 195 389 157 c 0,20,21
 389 136 389 136 409.5 90.5 c 128,-1,22
 430 45 430 45 450 10 c 1,23,-1
 471 -24 l 2,24,25
 474 -30 474 -30 474 -34 c 0,0,1
265 -38 m 0,26,27
 265 -50 265 -50 241 -52 c 1,28,29
 192 -52 192 -52 174 -34 c 0,30,31
 141 -2 141 -2 104.5 78.5 c 128,-1,32
 68 159 68 159 68 184.5 c 128,-1,33
 68 210 68 210 139.5 263 c 128,-1,34
 211 316 211 316 291.5 358.5 c 128,-1,35
 372 401 372 401 398 401 c 1,36,37
 411 402 411 402 425 402 c 0,38,39
 472 402 472 402 472 388 c 0,40,41
 472 382 472 382 463 377 c 0,42,43
 170 220 170 220 170 177 c 0,44,45
 170 150 170 150 193 98.5 c 128,-1,46
 216 47 216 47 239 9 c 2,47,-1
 262 -29 l 2,48,49
 265 -35 265 -35 265 -38 c 0,26,27
EndSplineSet
EndChar

StartChar: logicalnot
Encoding: 172 172 108
Width: 538
GlyphClass: 2
Flags: W
LayerCount: 2
Fore
SplineSet
643 389 m 1,0,-1
 642 383 l 1,1,-1
 620 332 l 1,2,3
 599 290 599 290 536 185 c 0,4,5
 516 151 516 151 466 151 c 0,6,7
 438 151 438 151 438 162 c 1,8,-1
 445 177 l 1,9,10
 479 231 479 231 534 325 c 1,11,12
 459 328 459 328 367 328 c 1,13,-1
 147 323 l 2,14,15
 134 323 134 323 134 333 c 0,16,17
 134 346 134 346 155.5 372 c 128,-1,18
 177 398 177 398 207 398 c 2,19,-1
 501 396 l 1,20,-1
 629 398 l 2,21,22
 643 398 643 398 643 389 c 1,0,-1
EndSplineSet
EndChar

StartChar: registered
Encoding: 174 174 109
Width: 340
GlyphClass: 2
Flags: W
LayerCount: 2
Fore
SplineSet
199 159 m 0,0,1
 143 159 143 159 115 185.5 c 128,-1,2
 87 212 87 212 87 254 c 0,3,4
 87 328 87 328 156 397.5 c 128,-1,5
 225 467 225 467 321 467 c 0,6,7
 377 467 377 467 404.5 441.5 c 128,-1,8
 432 416 432 416 432 375 c 0,9,10
 432 301 432 301 362.5 230 c 128,-1,11
 293 159 293 159 199 159 c 0,0,1
311 440 m 0,12,13
 241 440 241 440 187 380.5 c 128,-1,14
 133 321 133 321 133 261 c 0,15,16
 133 229 133 229 153 209.5 c 128,-1,17
 173 190 173 190 213 190 c 0,18,19
 284 190 284 190 335.5 248 c 128,-1,20
 387 306 387 306 387 367 c 0,21,22
 387 400 387 400 368 420 c 128,-1,23
 349 440 349 440 311 440 c 0,12,13
168 233 m 0,24,25
 161 233 161 233 161 236 c 2,26,-1
 161 237 l 2,27,28
 161 239 161 239 178 267 c 0,29,30
 233 361 233 361 239.5 376.5 c 128,-1,31
 246 392 246 392 246 400 c 2,32,-1
 246 402 l 2,33,34
 246 409 246 409 278 409 c 128,-1,35
 310 409 310 409 323 407.5 c 128,-1,36
 336 406 336 406 347 398 c 128,-1,37
 358 390 358 390 358 371 c 128,-1,38
 358 352 358 352 330 338 c 0,39,40
 323 334 323 334 313 332 c 0,41,42
 292 328 292 328 292 325 c 128,-1,43
 292 322 292 322 301 316 c 128,-1,44
 310 310 310 310 310 305 c 128,-1,45
 310 300 310 300 302 279 c 128,-1,46
 294 258 294 258 294 246 c 2,47,-1
 294 239 l 2,48,49
 294 235 294 235 274.5 235 c 128,-1,50
 255 235 255 235 255 243 c 128,-1,51
 255 251 255 251 265 273.5 c 128,-1,52
 275 296 275 296 275 302 c 0,53,54
 275 314 275 314 263 314 c 2,55,-1
 260 314 l 2,56,57
 257 314 257 314 257 318 c 128,-1,58
 257 322 257 322 261 329 c 128,-1,59
 265 336 265 336 270 336 c 0,60,61
 292 336 292 336 306.5 347 c 128,-1,62
 321 358 321 358 321 373 c 0,63,64
 321 391 321 391 297 391 c 0,65,66
 286 391 286 391 276.5 379 c 128,-1,67
 267 367 267 367 238 313 c 128,-1,68
 209 259 209 259 205 245 c 0,69,70
 201 233 201 233 168 233 c 0,24,25
EndSplineSet
EndChar

StartChar: macron
Encoding: 175 175 110
Width: 400
GlyphClass: 2
Flags: W
LayerCount: 2
Fore
SplineSet
455 496 m 1,0,-1
 522 498 l 2,1,2
 530 498 530 498 530 488.5 c 128,-1,3
 530 479 530 479 518.5 458 c 128,-1,4
 507 437 507 437 491 437 c 1,5,6
 447 440 447 440 384 440 c 1,7,-1
 268 436 l 2,8,9
 261 436 261 436 261 445.5 c 128,-1,10
 261 455 261 455 272 476.5 c 128,-1,11
 283 498 283 498 299 498 c 2,12,-1
 455 496 l 1,0,-1
EndSplineSet
EndChar

StartChar: degree
Encoding: 176 176 111
Width: 252
GlyphClass: 2
Flags: W
LayerCount: 2
Fore
SplineSet
243 470 m 0,0,1
 243 449 243 449 265 449 c 128,-1,2
 287 449 287 449 304.5 468.5 c 128,-1,3
 322 488 322 488 322 506 c 0,4,5
 322 527 322 527 300 527 c 128,-1,6
 278 527 278 527 260.5 507.5 c 128,-1,7
 243 488 243 488 243 470 c 0,0,1
255 417 m 0,8,9
 194 417 194 417 194 463 c 0,10,11
 194 498 194 498 228.5 530.5 c 128,-1,12
 263 563 263 563 311 563 c 0,13,14
 372 563 372 563 372 520 c 0,15,16
 372 486 372 486 335.5 451.5 c 128,-1,17
 299 417 299 417 255 417 c 0,8,9
EndSplineSet
EndChar

StartChar: plusminus
Encoding: 177 177 112
Width: 566
GlyphClass: 2
Flags: W
LayerCount: 2
Fore
SplineSet
425 220 m 1,0,-1
 553 222 l 2,1,2
 567 222 567 222 567 213 c 0,3,4
 567 198 567 198 546 173 c 128,-1,5
 525 148 525 148 494 148 c 1,6,7
 419 152 419 152 291 152 c 1,8,-1
 71 147 l 2,9,10
 58 147 58 147 58 157 c 0,11,12
 58 170 58 170 79.5 196 c 128,-1,13
 101 222 101 222 131 222 c 2,14,-1
 425 220 l 1,0,-1
480 447 m 1,15,-1
 553 446 l 2,16,17
 604 446 604 446 631 448 c 128,-1,18
 658 450 658 450 659 450 c 0,19,20
 673 450 673 450 673 440 c 0,21,22
 673 427 673 427 651.5 401 c 128,-1,23
 630 375 630 375 600 375 c 2,24,-1
 439 376 l 1,25,26
 409 320 409 320 389.5 287 c 128,-1,27
 370 254 370 254 320 254 c 0,28,29
 292 254 292 254 292 265 c 1,30,-1
 299 280 l 1,31,32
 328 325 328 325 358 377 c 1,33,-1
 304 377 l 1,34,-1
 178 374 l 2,35,36
 164 374 164 374 164 384 c 0,37,38
 164 397 164 397 185.5 423 c 128,-1,39
 207 449 207 449 237 449 c 2,40,-1
 398 448 l 1,41,42
 434 515 434 515 447 537 c 0,43,44
 467 571 467 571 516 571 c 0,45,46
 545 571 545 571 545 560 c 1,47,-1
 538 545 l 1,48,49
 508 499 508 499 480 447 c 1,15,-1
EndSplineSet
EndChar

StartChar: twosuperior
Encoding: 178 178 113
Width: 367
GlyphClass: 2
Flags: W
LayerCount: 2
Fore
SplineSet
228 213 m 1,0,-1
 110 210 l 2,1,2
 85 210 85 210 85 219 c 0,3,4
 85 221 85 221 86 223 c 0,5,6
 101 275 101 275 158 330 c 128,-1,7
 215 385 215 385 274.5 422.5 c 128,-1,8
 334 460 334 460 382 498.5 c 128,-1,9
 430 537 430 537 430 561 c 128,-1,10
 430 585 430 585 399.5 585 c 128,-1,11
 369 585 369 585 338 569.5 c 128,-1,12
 307 554 307 554 292 539 c 2,13,-1
 277 524 l 1,14,15
 262 513 262 513 249.5 513 c 128,-1,16
 237 513 237 513 237 519 c 0,17,18
 238 529 238 529 274 581.5 c 128,-1,19
 310 634 310 634 326 635 c 1,20,21
 357 635 357 635 376 621 c 1,22,23
 400 630 400 630 427 630 c 128,-1,24
 454 630 454 630 458.5 629.5 c 128,-1,25
 463 629 463 629 474.5 625.5 c 128,-1,26
 486 622 486 622 495 617 c 0,27,28
 519 604 519 604 519 579 c 0,29,30
 519 544 519 544 471 499.5 c 128,-1,31
 423 455 423 455 365.5 419.5 c 128,-1,32
 308 384 308 384 260 342 c 128,-1,33
 212 300 212 300 212 269 c 0,34,35
 212 251 212 251 239.5 251 c 128,-1,36
 267 251 267 251 289.5 260 c 128,-1,37
 312 269 312 269 329 282 c 0,38,39
 360 304 360 304 380 329 c 1,40,-1
 388 338 l 2,41,42
 398 348 398 348 410.5 348 c 128,-1,43
 423 348 423 348 423 342 c 0,44,45
 421 326 421 326 385 268 c 128,-1,46
 349 210 349 210 332 210 c 2,47,-1
 228 213 l 1,0,-1
EndSplineSet
EndChar

StartChar: threesuperior
Encoding: 179 179 114
Width: 367
GlyphClass: 2
Flags: W
LayerCount: 2
Fore
SplineSet
351 380 m 0,0,1
 351 429 351 429 263 429 c 0,2,3
 256 429 256 429 256 437.5 c 128,-1,4
 256 446 256 446 266.5 456.5 c 128,-1,5
 277 467 277 467 287 467 c 0,6,7
 360 467 360 467 400.5 496 c 128,-1,8
 441 525 441 525 444 555 c 1,9,10
 444 588 444 588 408 588 c 0,11,12
 380 588 380 588 354 575.5 c 128,-1,13
 328 563 328 563 316 550 c 2,14,-1
 304 538 l 1,15,16
 297 528 297 528 283.5 528 c 128,-1,17
 270 528 270 528 270 534 c 2,18,-1
 270 535 l 1,19,20
 271 544 271 544 299.5 588 c 128,-1,21
 328 632 328 632 342 633 c 1,22,23
 374 633 374 633 389 620 c 1,24,25
 399 630 399 630 450 630 c 0,26,27
 480 630 480 630 498 609.5 c 128,-1,28
 516 589 516 589 516 561.5 c 128,-1,29
 516 534 516 534 495 509.5 c 128,-1,30
 474 485 474 485 448.5 474.5 c 128,-1,31
 423 464 423 464 401.5 455.5 c 128,-1,32
 380 447 380 447 380 442 c 0,33,34
 380 439 380 439 390.5 433.5 c 128,-1,35
 401 428 401 428 411.5 413.5 c 128,-1,36
 422 399 422 399 422 373 c 0,37,38
 422 304 422 304 360 255 c 128,-1,39
 298 206 298 206 228 206 c 0,40,41
 104 206 104 206 104 233 c 2,42,-1
 104 234 l 1,43,44
 105 252 105 252 140 310.5 c 128,-1,45
 175 369 175 369 200 369 c 0,46,47
 212 369 212 369 212 364 c 2,48,-1
 212 363 l 1,49,50
 189 320 189 320 189 280.5 c 128,-1,51
 189 241 189 241 229.5 241 c 128,-1,52
 270 241 270 241 310.5 284.5 c 128,-1,53
 351 328 351 328 351 380 c 0,0,1
EndSplineSet
EndChar

StartChar: acute
Encoding: 180 180 115
Width: 400
GlyphClass: 2
Flags: W
LayerCount: 2
Fore
SplineSet
495 504 m 128,-1,1
 495 488 495 488 441.5 463.5 c 128,-1,2
 388 439 388 439 367.5 439 c 128,-1,3
 347 439 347 439 347 447 c 0,4,5
 347 451 347 451 377 481 c 128,-1,6
 407 511 407 511 414 520 c 128,-1,7
 421 529 421 529 424.5 534 c 128,-1,8
 428 539 428 539 430 541.5 c 128,-1,9
 432 544 432 544 434 546 c 0,10,11
 439 551 439 551 447.5 551 c 128,-1,12
 456 551 456 551 475.5 535.5 c 128,-1,0
 495 520 495 520 495 504 c 128,-1,1
EndSplineSet
EndChar

StartChar: mu
Encoding: 181 181 116
Width: 444
GlyphClass: 2
Flags: W
LayerCount: 2
Fore
SplineSet
295 90 m 2,0,1
 295 97 295 97 290 97 c 2,2,-1
 288 97 l 1,3,-1
 273 90 l 1,4,5
 208 27 208 27 167 3.5 c 128,-1,6
 126 -20 126 -20 82 -20 c 0,7,8
 65 -20 65 -20 53 -12 c 1,9,10
 -55 -206 -55 -206 -105 -349 c 0,11,12
 -110 -361 -110 -361 -124.5 -361 c 128,-1,13
 -139 -361 -139 -361 -159 -339 c 128,-1,14
 -179 -317 -179 -317 -179 -292 c 0,15,16
 -179 -268 -179 -268 -157 -224 c 128,-1,17
 -135 -180 -135 -180 -118 -148.5 c 128,-1,18
 -101 -117 -101 -117 -87.5 -93 c 128,-1,19
 -74 -69 -74 -69 -50 -27.5 c 128,-1,20
 -26 14 -26 14 -9.5 42 c 128,-1,21
 7 70 7 70 36.5 120.5 c 128,-1,22
 66 171 66 171 85 203 c 1,23,24
 122 282 122 282 165.5 342.5 c 128,-1,25
 209 403 209 403 243 411 c 0,26,27
 256 415 256 415 278 415 c 128,-1,28
 300 415 300 415 300 403 c 0,29,30
 300 399 300 399 264 347.5 c 128,-1,31
 228 296 228 296 192.5 230 c 128,-1,32
 157 164 157 164 157 131 c 128,-1,33
 157 98 157 98 180 98 c 0,34,35
 223 98 223 98 279 154 c 128,-1,36
 335 210 335 210 426 331 c 1,37,38
 451 367 451 367 506 367 c 0,39,40
 536 367 536 367 536 355 c 0,41,42
 536 352 536 352 533 347 c 0,43,44
 376 105 376 105 344 0 c 0,45,46
 340 -12 340 -12 334 -12 c 2,47,-1
 331 -12 l 2,48,49
 291 -12 291 -12 291 52 c 1,50,-1
 295 90 l 2,0,1
EndSplineSet
EndChar

StartChar: paragraph
Encoding: 182 182 117
Width: 356
GlyphClass: 2
Flags: W
LayerCount: 2
Fore
SplineSet
164 -6 m 0,0,1
 147 -6 147 -6 147 3 c 1,2,-1
 154 18 l 1,3,-1
 496 601 l 2,4,5
 499 607 499 607 499 610 c 0,6,7
 499 622 499 622 484 622 c 0,8,9
 453 622 453 622 435.5 604.5 c 128,-1,10
 418 587 418 587 333 441.5 c 128,-1,11
 248 296 248 296 172 160 c 2,12,-1
 96 23 l 1,13,14
 73 -12 73 -12 18 -12 c 0,15,16
 1 -12 1 -12 1 -2 c 1,17,-1
 8 14 l 1,18,19
 14 23 14 23 29.5 47.5 c 128,-1,20
 45 72 45 72 55 87 c 128,-1,21
 65 102 65 102 81 127.5 c 128,-1,22
 97 153 97 153 108 170.5 c 128,-1,23
 119 188 119 188 132.5 210.5 c 128,-1,24
 146 233 146 233 155 249 c 128,-1,25
 164 265 164 265 172 281 c 0,26,27
 188 313 188 313 188 323.5 c 128,-1,28
 188 334 188 334 169 341.5 c 128,-1,29
 150 349 150 349 126.5 355.5 c 128,-1,30
 103 362 103 362 84 386 c 128,-1,31
 65 410 65 410 65 440.5 c 128,-1,32
 65 471 65 471 73.5 498.5 c 128,-1,33
 82 526 82 526 106 560 c 128,-1,34
 130 594 130 594 166 621.5 c 128,-1,35
 202 649 202 649 264.5 668 c 128,-1,36
 327 687 327 687 403.5 687 c 128,-1,37
 480 687 480 687 514 677 c 1,38,39
 537 695 537 695 601 695 c 0,40,41
 618 695 618 695 618 687 c 0,42,43
 618 683 618 683 614 676 c 0,44,45
 522 534 522 534 401 321 c 128,-1,46
 280 108 280 108 244 32 c 0,47,48
 226 -6 226 -6 164 -6 c 0,0,1
EndSplineSet
EndChar

StartChar: periodcentered
Encoding: 183 183 118
Width: 197
GlyphClass: 2
Flags: W
LayerCount: 2
Fore
SplineSet
96 219.5 m 128,-1,1
 122 242 122 242 150 242 c 0,2,3
 205 242 205 242 205 207 c 0,4,5
 205 181 205 181 179 159 c 128,-1,6
 153 137 153 137 124 137 c 0,7,8
 70 137 70 137 70 173 c 0,9,0
 70 197 70 197 96 219.5 c 128,-1,1
EndSplineSet
EndChar

StartChar: cedilla
Encoding: 184 184 119
Width: 340
GlyphClass: 2
Flags: W
LayerCount: 2
Fore
SplineSet
129 -71 m 128,-1,1
 129 -80 129 -80 139.5 -89.5 c 128,-1,2
 150 -99 150 -99 150 -113.5 c 128,-1,3
 150 -128 150 -128 133.5 -142 c 128,-1,4
 117 -156 117 -156 91.5 -156 c 128,-1,5
 66 -156 66 -156 54 -146 c 128,-1,6
 42 -136 42 -136 42 -128 c 128,-1,7
 42 -120 42 -120 48 -120 c 0,8,9
 50 -120 50 -120 57 -124.5 c 128,-1,10
 64 -129 64 -129 77.5 -129 c 128,-1,11
 91 -129 91 -129 101.5 -122.5 c 128,-1,12
 112 -116 112 -116 112 -105.5 c 128,-1,13
 112 -95 112 -95 103 -87 c 128,-1,14
 94 -79 94 -79 94 -75 c 2,15,-1
 94 -74 l 1,16,17
 95 -60 95 -60 120 -48 c 0,18,19
 123 -46 123 -46 123 -45 c 2,20,-1
 119 -41 l 1,21,22
 119 -38 119 -38 128 -38 c 1,23,-1
 157 -42 l 1,24,25
 147 -43 147 -43 138 -52.5 c 128,-1,0
 129 -62 129 -62 129 -71 c 128,-1,1
EndSplineSet
EndChar

StartChar: onesuperior
Encoding: 185 185 120
Width: 246
GlyphClass: 2
Flags: W
LayerCount: 2
Fore
SplineSet
195 230 m 2,0,-1
 195 223 l 2,1,2
 195 204 195 204 141.5 204 c 128,-1,3
 88 204 88 204 88 218 c 1,4,-1
 91 225 l 1,5,6
 110 239 110 239 159 317 c 128,-1,7
 208 395 208 395 264 502 c 0,8,9
 269 512 269 512 269 522 c 0,10,11
 269 538 269 538 247 541 c 128,-1,12
 225 544 225 544 225 547 c 0,13,14
 225 567 225 567 284 594 c 128,-1,15
 343 621 343 621 373 621 c 128,-1,16
 403 621 403 621 403 611 c 1,17,-1
 396 596 l 1,18,19
 372 566 372 566 288 423 c 0,20,21
 195 263 195 263 195 230 c 2,0,-1
EndSplineSet
EndChar

StartChar: ordmasculine
Encoding: 186 186 121
Width: 326
GlyphClass: 2
Flags: W
LayerCount: 2
Fore
SplineSet
221 340 m 0,0,1
 177 361 177 361 177 422 c 0,2,3
 177 469 177 469 207 520 c 128,-1,4
 237 571 237 571 292 607.5 c 128,-1,5
 347 644 347 644 408 644 c 0,6,7
 427 644 427 644 451 632.5 c 128,-1,8
 475 621 475 621 475 595 c 0,9,10
 475 583 475 583 471 574.5 c 128,-1,11
 467 566 467 566 467 563 c 0,12,13
 467 554 467 554 480.5 554 c 128,-1,14
 494 554 494 554 501.5 558 c 128,-1,15
 509 562 509 562 511 562 c 0,16,17
 516 562 516 562 516 546.5 c 128,-1,18
 516 531 516 531 501.5 511 c 128,-1,19
 487 491 487 491 466 482 c 1,20,21
 463 476 463 476 458 465.5 c 128,-1,22
 453 455 453 455 434 428.5 c 128,-1,23
 415 402 415 402 393 382 c 128,-1,24
 371 362 371 362 335.5 345.5 c 128,-1,25
 300 329 300 329 271.5 329 c 128,-1,26
 243 329 243 329 221 340 c 0,0,1
378 468 m 0,27,28
 378 474 378 474 369 474 c 1,29,-1
 342 468 l 1,30,31
 339 466 339 466 335.5 466 c 128,-1,32
 332 466 332 466 332 473 c 0,33,34
 332 498 332 498 351 521 c 1,35,36
 359 529 359 529 375 535.5 c 128,-1,37
 391 542 391 542 399 551 c 128,-1,38
 407 560 407 560 407 580 c 0,39,40
 407 604 407 604 381 604 c 0,41,42
 334 604 334 604 292 538 c 128,-1,43
 250 472 250 472 250 420 c 0,44,45
 250 403 250 403 262 390.5 c 128,-1,46
 274 378 274 378 291 378 c 0,47,48
 329 378 329 378 353.5 409.5 c 128,-1,49
 378 441 378 441 378 468 c 0,27,28
264 298 m 1,50,-1
 330 300 l 2,51,52
 337 300 337 300 337 291 c 128,-1,53
 337 282 337 282 326 263.5 c 128,-1,54
 315 245 315 245 299 245 c 1,55,56
 256 248 256 248 193 248 c 1,57,-1
 79 244 l 2,58,59
 72 244 72 244 72 252.5 c 128,-1,60
 72 261 72 261 83 280.5 c 128,-1,61
 94 300 94 300 110 300 c 2,62,-1
 264 298 l 1,50,-1
EndSplineSet
EndChar

StartChar: guillemotright
Encoding: 187 187 122
Width: 651
GlyphClass: 2
Flags: W
LayerCount: 2
Fore
SplineSet
233 382 m 0,0,1
 233 393 233 393 256 395 c 1,2,3
 305 395 305 395 323 377 c 0,4,5
 359 342 359 342 390 277.5 c 128,-1,6
 421 213 421 213 421 183 c 0,7,8
 421 159 421 159 337.5 101 c 128,-1,9
 254 43 254 43 163 -4 c 128,-1,10
 72 -51 72 -51 49 -51 c 1,11,12
 35 -52 35 -52 19 -52 c 0,13,14
 -27 -52 -27 -52 -27 -38 c 0,15,16
 -27 -33 -27 -33 -18 -28 c 2,17,-1
 8 -14 l 1,18,19
 318 155 318 155 318 192 c 0,20,21
 318 213 318 213 297.5 258 c 128,-1,22
 277 303 277 303 256 338 c 2,23,-1
 236 372 l 2,24,25
 233 378 233 378 233 382 c 0,0,1
442 387 m 0,26,27
 442 399 442 399 465 401 c 1,28,29
 513 401 513 401 532 382 c 1,30,31
 566 351 566 351 602.5 271 c 128,-1,32
 639 191 639 191 639 165 c 128,-1,33
 639 139 639 139 567.5 86 c 128,-1,34
 496 33 496 33 415 -9.5 c 128,-1,35
 334 -52 334 -52 308 -52 c 1,36,37
 294 -53 294 -53 279 -53 c 0,38,39
 235 -53 235 -53 235 -39 c 0,40,41
 235 -33 235 -33 244 -29 c 2,42,-1
 259 -21 l 1,43,44
 537 131 537 131 537 172 c 0,45,46
 537 199 537 199 514 250.5 c 128,-1,47
 491 302 491 302 468 340 c 2,48,-1
 445 377 l 2,49,50
 442 383 442 383 442 387 c 0,26,27
EndSplineSet
EndChar

StartChar: onequarter
Encoding: 188 188 123
Width: 697
GlyphClass: 2
Flags: W
LayerCount: 2
Fore
SplineSet
654 142 m 128,-1,1
 654 134 654 134 643.5 120 c 128,-1,2
 633 106 633 106 617 106 c 2,3,-1
 592 106 l 1,4,5
 568 63 568 63 558 38 c 1,6,-1
 549 12 l 1,7,8
 542 -5 542 -5 501.5 -5 c 128,-1,9
 461 -5 461 -5 461 8 c 0,10,11
 461 12 461 12 482 42.5 c 128,-1,12
 503 73 503 73 522 104 c 1,13,-1
 508 104 l 2,14,15
 369 104 369 104 369 130 c 0,16,17
 369 167 369 167 483.5 268.5 c 128,-1,18
 598 370 598 370 658 401 c 0,19,20
 681 413 681 413 723 413 c 128,-1,21
 765 413 765 413 765 403 c 1,22,-1
 757 388 l 1,23,24
 724 345 724 345 615 148 c 1,25,26
 642 148 642 148 648 150 c 1,27,0
 654 150 654 150 654 142 c 128,-1,1
80 -5 m 0,28,29
 57 -5 57 -5 57 5 c 0,30,31
 57 8 57 8 63 16 c 1,32,33
 82 31 82 31 632 599 c 0,34,35
 653 620 653 620 700 620 c 0,36,37
 724 620 724 620 724 610 c 0,38,39
 724 608 724 608 718 600 c 1,40,41
 678 558 678 558 467.5 345 c 128,-1,42
 257 132 257 132 149 16 c 0,43,44
 129 -5 129 -5 80 -5 c 0,28,29
195 230 m 2,45,-1
 195 223 l 2,46,47
 195 204 195 204 141.5 204 c 128,-1,48
 88 204 88 204 88 218 c 1,49,-1
 91 225 l 1,50,51
 110 239 110 239 159 317 c 128,-1,52
 208 395 208 395 264 502 c 0,53,54
 269 512 269 512 269 522 c 0,55,56
 269 538 269 538 247 541 c 128,-1,57
 225 544 225 544 225 547 c 0,58,59
 225 567 225 567 284 594 c 128,-1,60
 343 621 343 621 373 621 c 128,-1,61
 403 621 403 621 403 611 c 1,62,-1
 396 596 l 1,63,64
 372 566 372 566 288 423 c 0,65,66
 195 263 195 263 195 230 c 2,45,-1
642 321 m 0,67,68
 642 329 642 329 635 329 c 0,69,70
 605 329 605 329 534.5 262.5 c 128,-1,71
 464 196 464 196 464 169 c 0,72,73
 464 151 464 151 548 147 c 1,74,75
 587 212 587 212 640 313 c 0,76,77
 642 317 642 317 642 321 c 0,67,68
EndSplineSet
EndChar

StartChar: onehalf
Encoding: 189 189 124
Width: 727
GlyphClass: 2
Flags: W
LayerCount: 2
Fore
SplineSet
516 0 m 1,0,-1
 398 -3 l 2,1,2
 373 -3 373 -3 373 6 c 0,3,4
 373 8 373 8 374 10 c 0,5,6
 389 62 389 62 446 117 c 128,-1,7
 503 172 503 172 562.5 209.5 c 128,-1,8
 622 247 622 247 670 285.5 c 128,-1,9
 718 324 718 324 718 348 c 128,-1,10
 718 372 718 372 687.5 372 c 128,-1,11
 657 372 657 372 626 357 c 128,-1,12
 595 342 595 342 580 326 c 2,13,-1
 565 311 l 1,14,15
 550 300 550 300 537.5 300 c 128,-1,16
 525 300 525 300 525 306 c 0,17,18
 526 316 526 316 562 368.5 c 128,-1,19
 598 421 598 421 614 422 c 1,20,21
 645 422 645 422 664 408 c 1,22,23
 688 417 688 417 715 417 c 128,-1,24
 742 417 742 417 746.5 416.5 c 128,-1,25
 751 416 751 416 762.5 412.5 c 128,-1,26
 774 409 774 409 783 404 c 0,27,28
 807 391 807 391 807 366 c 0,29,30
 807 331 807 331 759 286.5 c 128,-1,31
 711 242 711 242 653.5 206.5 c 128,-1,32
 596 171 596 171 548 129 c 128,-1,33
 500 87 500 87 500 56 c 0,34,35
 500 38 500 38 527.5 38 c 128,-1,36
 555 38 555 38 577.5 47 c 128,-1,37
 600 56 600 56 617 69 c 0,38,39
 651 95 651 95 668 116 c 1,40,-1
 676 125 l 2,41,42
 686 135 686 135 698.5 135 c 128,-1,43
 711 135 711 135 711 129 c 0,44,45
 709 113 709 113 673 55 c 128,-1,46
 637 -3 637 -3 620 -3 c 2,47,-1
 516 0 l 1,0,-1
80 -5 m 0,48,49
 57 -5 57 -5 57 5 c 0,50,51
 57 8 57 8 63 16 c 1,52,53
 82 31 82 31 632 599 c 0,54,55
 653 620 653 620 700 620 c 0,56,57
 724 620 724 620 724 610 c 0,58,59
 724 608 724 608 718 600 c 1,60,61
 678 558 678 558 467.5 345 c 128,-1,62
 257 132 257 132 149 16 c 0,63,64
 129 -5 129 -5 80 -5 c 0,48,49
195 230 m 2,65,-1
 195 223 l 2,66,67
 195 204 195 204 141.5 204 c 128,-1,68
 88 204 88 204 88 218 c 1,69,-1
 91 225 l 1,70,71
 110 239 110 239 159 317 c 128,-1,72
 208 395 208 395 264 502 c 0,73,74
 269 512 269 512 269 522 c 0,75,76
 269 538 269 538 247 541 c 128,-1,77
 225 544 225 544 225 547 c 0,78,79
 225 567 225 567 284 594 c 128,-1,80
 343 621 343 621 373 621 c 128,-1,81
 403 621 403 621 403 611 c 1,82,-1
 396 596 l 1,83,84
 372 566 372 566 288 423 c 0,85,86
 195 263 195 263 195 230 c 2,65,-1
EndSplineSet
EndChar

StartChar: threequarters
Encoding: 190 190 125
Width: 821
GlyphClass: 2
Flags: W
LayerCount: 2
Fore
SplineSet
778 142 m 128,-1,1
 778 134 778 134 767.5 120 c 128,-1,2
 757 106 757 106 741 106 c 2,3,-1
 716 106 l 1,4,5
 692 63 692 63 682 38 c 1,6,-1
 673 12 l 1,7,8
 666 -5 666 -5 625.5 -5 c 128,-1,9
 585 -5 585 -5 585 8 c 0,10,11
 585 12 585 12 606 42.5 c 128,-1,12
 627 73 627 73 646 104 c 1,13,-1
 632 104 l 2,14,15
 493 104 493 104 493 130 c 0,16,17
 493 167 493 167 607.5 268.5 c 128,-1,18
 722 370 722 370 782 401 c 0,19,20
 805 413 805 413 847 413 c 128,-1,21
 889 413 889 413 889 403 c 1,22,-1
 881 388 l 1,23,24
 848 345 848 345 739 148 c 1,25,26
 766 148 766 148 772 150 c 1,27,0
 778 150 778 150 778 142 c 128,-1,1
351 380 m 0,28,29
 351 429 351 429 263 429 c 0,30,31
 256 429 256 429 256 437.5 c 128,-1,32
 256 446 256 446 266.5 456.5 c 128,-1,33
 277 467 277 467 287 467 c 0,34,35
 360 467 360 467 400.5 496 c 128,-1,36
 441 525 441 525 444 555 c 1,37,38
 444 588 444 588 408 588 c 0,39,40
 380 588 380 588 354 575.5 c 128,-1,41
 328 563 328 563 316 550 c 2,42,-1
 304 538 l 1,43,44
 297 528 297 528 283.5 528 c 128,-1,45
 270 528 270 528 270 534 c 2,46,-1
 270 535 l 1,47,48
 271 544 271 544 299.5 588 c 128,-1,49
 328 632 328 632 342 633 c 1,50,51
 374 633 374 633 389 620 c 1,52,53
 399 630 399 630 450 630 c 0,54,55
 480 630 480 630 498 609.5 c 128,-1,56
 516 589 516 589 516 561.5 c 128,-1,57
 516 534 516 534 495 509.5 c 128,-1,58
 474 485 474 485 448.5 474.5 c 128,-1,59
 423 464 423 464 401.5 455.5 c 128,-1,60
 380 447 380 447 380 442 c 0,61,62
 380 439 380 439 390.5 433.5 c 128,-1,63
 401 428 401 428 411.5 413.5 c 128,-1,64
 422 399 422 399 422 373 c 0,65,66
 422 304 422 304 360 255 c 128,-1,67
 298 206 298 206 228 206 c 0,68,69
 104 206 104 206 104 233 c 2,70,-1
 104 234 l 1,71,72
 105 252 105 252 140 310.5 c 128,-1,73
 175 369 175 369 200 369 c 0,74,75
 212 369 212 369 212 364 c 2,76,-1
 212 363 l 1,77,78
 189 320 189 320 189 280.5 c 128,-1,79
 189 241 189 241 229.5 241 c 128,-1,80
 270 241 270 241 310.5 284.5 c 128,-1,81
 351 328 351 328 351 380 c 0,28,29
204 -5 m 0,82,83
 181 -5 181 -5 181 5 c 0,84,85
 181 8 181 8 187 16 c 1,86,87
 206 31 206 31 756 599 c 0,88,89
 777 620 777 620 824 620 c 0,90,91
 848 620 848 620 848 610 c 0,92,93
 848 608 848 608 842 600 c 1,94,95
 802 558 802 558 591.5 345 c 128,-1,96
 381 132 381 132 273 16 c 0,97,98
 253 -5 253 -5 204 -5 c 0,82,83
766 321 m 0,99,100
 766 329 766 329 759 329 c 0,101,102
 729 329 729 329 658.5 262.5 c 128,-1,103
 588 196 588 196 588 169 c 0,104,105
 588 151 588 151 672 147 c 1,106,107
 711 212 711 212 764 313 c 0,108,109
 766 317 766 317 766 321 c 0,99,100
EndSplineSet
EndChar

StartChar: questiondown
Encoding: 191 191 126
Width: 439
GlyphClass: 2
Flags: W
LayerCount: 2
Fore
SplineSet
412 432 m 128,-1,1
 442 452 442 452 466.5 452 c 128,-1,2
 491 452 491 452 504 442.5 c 128,-1,3
 517 433 517 433 517 417 c 0,4,5
 517 387 517 387 487.5 367 c 128,-1,6
 458 347 458 347 434 347 c 0,7,8
 384 347 384 347 382 382 c 1,9,0
 382 412 382 412 412 432 c 128,-1,1
-15.5 -161 m 128,-1,11
 -36 -138 -36 -138 -36 -92 c 128,-1,12
 -36 -46 -36 -46 -5 -5 c 128,-1,13
 26 36 26 36 73.5 62.5 c 128,-1,14
 121 89 121 89 171.5 113 c 128,-1,15
 222 137 222 137 267.5 174.5 c 128,-1,16
 313 212 313 212 333 261 c 0,17,18
 342 285 342 285 393 285 c 0,19,20
 423 285 423 285 424 268 c 1,21,22
 402 213 402 213 359 170 c 128,-1,23
 316 127 316 127 271.5 100 c 128,-1,24
 227 73 227 73 185 48 c 0,25,26
 90 -10 90 -10 90 -86 c 0,27,28
 90 -111 90 -111 111 -120.5 c 128,-1,29
 132 -130 132 -130 160.5 -130 c 128,-1,30
 189 -130 189 -130 223 -113.5 c 128,-1,31
 257 -97 257 -97 276 -80 c 2,32,-1
 294 -63 l 2,33,34
 319 -40 319 -40 338 -40 c 128,-1,35
 357 -40 357 -40 357 -50 c 128,-1,36
 357 -60 357 -60 309 -129 c 128,-1,37
 261 -198 261 -198 241.5 -198 c 128,-1,38
 222 -198 222 -198 206 -188 c 128,-1,39
 190 -178 190 -178 185.5 -178 c 128,-1,40
 181 -178 181 -178 172 -183 c 0,41,42
 149 -197 149 -197 77 -197 c 0,43,44
 51 -197 51 -197 28 -190.5 c 128,-1,10
 5 -184 5 -184 -15.5 -161 c 128,-1,11
EndSplineSet
EndChar

StartChar: Agrave
Encoding: 192 192 127
Width: 579
GlyphClass: 2
Flags: W
LayerCount: 2
Fore
SplineSet
107 252 m 0,0,1
 100 252 100 252 98 261 c 1,2,3
 98 278 98 278 122 300 c 128,-1,4
 146 322 146 322 160.5 328 c 128,-1,5
 175 334 175 334 257 336 c 1,6,-1
 271 352 l 1,7,8
 575 703 575 703 693 703 c 1,9,10
 703 704 703 704 716 704 c 0,11,12
 785 704 785 704 785 671 c 0,13,14
 785 665 785 665 772 639 c 2,15,-1
 727 549 l 2,16,17
 695 485 695 485 665 419 c 0,18,19
 503 62 503 62 477 -49 c 1,20,21
 477 -57 477 -57 456.5 -57 c 128,-1,22
 436 -57 436 -57 407 -34.5 c 128,-1,23
 378 -12 378 -12 378 5 c 0,24,25
 378 36 378 36 427 122 c 128,-1,26
 476 208 476 208 476 234 c 0,27,28
 476 269 476 269 340 269 c 0,29,30
 320 269 320 269 278 267 c 1,31,-1
 240 217 l 1,32,33
 170 123 170 123 106 -16 c 0,34,35
 95 -41 95 -41 39 -41 c 128,-1,36
 -17 -41 -17 -41 -17 -25 c 0,37,38
 -17 -14 -17 -14 45.5 71.5 c 128,-1,39
 108 157 108 157 194 261 c 1,40,41
 179 259 179 259 156 257 c 128,-1,42
 133 255 133 255 120.5 253.5 c 128,-1,43
 108 252 108 252 107 252 c 0,0,1
580.5 476 m 128,-1,45
 600 524 600 524 600 541 c 128,-1,46
 600 558 600 558 583 558 c 0,47,48
 553 558 553 558 484 494.5 c 128,-1,49
 415 431 415 431 334 336 c 1,50,-1
 443 334 l 2,51,52
 483 334 483 334 522 381 c 128,-1,44
 561 428 561 428 580.5 476 c 128,-1,45
683 840 m 128,-1,54
 704 852 704 852 712.5 852 c 128,-1,55
 721 852 721 852 724.5 849.5 c 128,-1,56
 728 847 728 847 729.5 844.5 c 128,-1,57
 731 842 731 842 734 835 c 2,58,-1
 740 824 l 2,59,60
 750 806 750 806 765 784 c 0,61,62
 798 737 798 737 798 733 c 128,-1,63
 798 729 798 729 788 729 c 2,64,-1
 781 729 l 1,65,66
 757 733 757 733 709.5 764.5 c 128,-1,67
 662 796 662 796 662 812 c 128,-1,53
 662 828 662 828 683 840 c 128,-1,54
EndSplineSet
EndChar

StartChar: Aacute
Encoding: 193 193 128
Width: 579
GlyphClass: 2
Flags: W
LayerCount: 2
Fore
SplineSet
477 -49 m 0,0,1
 475 -57 475 -57 455.5 -57 c 128,-1,2
 436 -57 436 -57 407 -34.5 c 128,-1,3
 378 -12 378 -12 378 5 c 0,4,5
 378 36 378 36 427 122 c 128,-1,6
 476 208 476 208 476 234 c 0,7,8
 476 269 476 269 340 269 c 0,9,10
 320 269 320 269 278 267 c 1,11,-1
 240 217 l 1,12,13
 170 123 170 123 106 -16 c 0,14,15
 95 -41 95 -41 39 -41 c 128,-1,16
 -17 -41 -17 -41 -17 -25 c 0,17,18
 -17 -14 -17 -14 45.5 71.5 c 128,-1,19
 108 157 108 157 194 261 c 1,20,21
 179 259 179 259 156 257 c 128,-1,22
 133 255 133 255 120.5 253.5 c 128,-1,23
 108 252 108 252 107 252 c 0,24,25
 99 252 99 252 98.5 265 c 128,-1,26
 98 278 98 278 122 300 c 128,-1,27
 146 322 146 322 160.5 328 c 128,-1,28
 175 334 175 334 257 336 c 1,29,-1
 271 352 l 1,30,31
 575 703 575 703 693 703 c 1,32,-1
 716 704 l 1,33,34
 785 704 785 704 785 671 c 0,35,36
 785 665 785 665 772 639 c 2,37,-1
 727 549 l 2,38,39
 695 485 695 485 665 419 c 0,40,41
 503 62 503 62 477 -49 c 0,0,1
583 558 m 0,42,43
 553 558 553 558 484 494.5 c 128,-1,44
 415 431 415 431 334 336 c 1,45,46
 392 335 392 335 443 334 c 0,47,48
 483 334 483 334 522 381 c 128,-1,49
 561 428 561 428 580.5 476 c 128,-1,50
 600 524 600 524 600 541 c 128,-1,51
 600 558 600 558 583 558 c 0,42,43
833 802 m 128,-1,53
 833 786 833 786 779.5 761.5 c 128,-1,54
 726 737 726 737 705.5 737 c 128,-1,55
 685 737 685 737 685 745 c 0,56,57
 685 749 685 749 715 779 c 128,-1,58
 745 809 745 809 752 818 c 128,-1,59
 759 827 759 827 762.5 832 c 128,-1,60
 766 837 766 837 768 839.5 c 128,-1,61
 770 842 770 842 772 844 c 0,62,63
 777 849 777 849 785.5 849 c 128,-1,64
 794 849 794 849 813.5 833.5 c 128,-1,52
 833 818 833 818 833 802 c 128,-1,53
EndSplineSet
EndChar

StartChar: Acircumflex
Encoding: 194 194 129
Width: 579
GlyphClass: 2
Flags: W
LayerCount: 2
Fore
SplineSet
477 -49 m 0,0,1
 475 -57 475 -57 455.5 -57 c 128,-1,2
 436 -57 436 -57 407 -34.5 c 128,-1,3
 378 -12 378 -12 378 5 c 0,4,5
 378 36 378 36 427 122 c 128,-1,6
 476 208 476 208 476 234 c 0,7,8
 476 269 476 269 340 269 c 0,9,10
 320 269 320 269 278 267 c 1,11,-1
 240 217 l 1,12,13
 170 123 170 123 106 -16 c 0,14,15
 95 -41 95 -41 39 -41 c 128,-1,16
 -17 -41 -17 -41 -17 -25 c 0,17,18
 -17 -14 -17 -14 45.5 71.5 c 128,-1,19
 108 157 108 157 194 261 c 1,20,21
 179 259 179 259 156 257 c 128,-1,22
 133 255 133 255 120.5 253.5 c 128,-1,23
 108 252 108 252 107 252 c 0,24,25
 99 252 99 252 98.5 265 c 128,-1,26
 98 278 98 278 122 300 c 128,-1,27
 146 322 146 322 160.5 328 c 128,-1,28
 175 334 175 334 257 336 c 1,29,-1
 271 352 l 1,30,31
 575 703 575 703 693 703 c 1,32,-1
 716 704 l 1,33,34
 785 704 785 704 785 671 c 0,35,36
 785 665 785 665 772 639 c 2,37,-1
 727 549 l 2,38,39
 695 485 695 485 665 419 c 0,40,41
 503 62 503 62 477 -49 c 0,0,1
583 558 m 0,42,43
 553 558 553 558 484 494.5 c 128,-1,44
 415 431 415 431 334 336 c 1,45,46
 392 335 392 335 443 334 c 0,47,48
 483 334 483 334 522 381 c 128,-1,49
 561 428 561 428 580.5 476 c 128,-1,50
 600 524 600 524 600 541 c 128,-1,51
 600 558 600 558 583 558 c 0,42,43
843 827 m 1,52,-1
 820 737 l 1,53,54
 820 724 820 724 811 724 c 0,55,56
 791 724 791 724 770 765 c 0,57,58
 767 771 767 771 762 771 c 128,-1,59
 757 771 757 771 751 767 c 0,60,61
 697 731 697 731 667 731 c 128,-1,62
 637 731 637 731 637 739 c 0,63,64
 637 742 637 742 648 752 c 0,65,66
 694 799 694 799 705 814.5 c 128,-1,67
 716 830 716 830 721 833.5 c 128,-1,68
 726 837 726 837 738.5 837 c 128,-1,69
 751 837 751 837 765 823 c 0,70,71
 770 819 770 819 775 819 c 128,-1,72
 780 819 780 819 795.5 828.5 c 128,-1,73
 811 838 811 838 833 838 c 1,74,75
 843 837 843 837 843 827 c 1,52,-1
EndSplineSet
EndChar

StartChar: Atilde
Encoding: 195 195 130
Width: 579
GlyphClass: 2
Flags: W
LayerCount: 2
Fore
SplineSet
763 806 m 1,0,-1
 849 812 l 2,1,2
 856 812 856 812 856 806.5 c 128,-1,3
 856 801 856 801 850 793 c 128,-1,4
 844 785 844 785 829.5 776 c 128,-1,5
 815 767 815 767 794 759 c 0,6,7
 746 740 746 740 662 740 c 128,-1,8
 578 740 578 740 578 761 c 0,9,10
 578 774 578 774 606.5 798 c 128,-1,11
 635 822 635 822 652 822 c 1,12,13
 688 806 688 806 763 806 c 1,0,-1
107 252 m 0,14,15
 100 252 100 252 98 261 c 1,16,17
 98 278 98 278 122 300 c 128,-1,18
 146 322 146 322 160.5 328 c 128,-1,19
 175 334 175 334 257 336 c 1,20,-1
 271 352 l 1,21,22
 575 703 575 703 693 703 c 1,23,24
 703 704 703 704 716 704 c 0,25,26
 785 704 785 704 785 671 c 0,27,28
 785 665 785 665 772 639 c 2,29,-1
 727 549 l 2,30,31
 695 485 695 485 665 419 c 0,32,33
 503 62 503 62 477 -49 c 1,34,35
 477 -57 477 -57 456.5 -57 c 128,-1,36
 436 -57 436 -57 407 -34.5 c 128,-1,37
 378 -12 378 -12 378 5 c 0,38,39
 378 36 378 36 427 122 c 128,-1,40
 476 208 476 208 476 234 c 0,41,42
 476 269 476 269 340 269 c 0,43,44
 320 269 320 269 278 267 c 1,45,-1
 240 217 l 1,46,47
 170 123 170 123 106 -16 c 0,48,49
 95 -41 95 -41 39 -41 c 128,-1,50
 -17 -41 -17 -41 -17 -25 c 0,51,52
 -17 -14 -17 -14 45.5 71.5 c 128,-1,53
 108 157 108 157 194 261 c 1,54,55
 179 259 179 259 156 257 c 128,-1,56
 133 255 133 255 120.5 253.5 c 128,-1,57
 108 252 108 252 107 252 c 0,14,15
580.5 476 m 128,-1,59
 600 524 600 524 600 541 c 128,-1,60
 600 558 600 558 583 558 c 0,61,62
 553 558 553 558 484 494.5 c 128,-1,63
 415 431 415 431 334 336 c 1,64,-1
 443 334 l 2,65,66
 483 334 483 334 522 381 c 128,-1,58
 561 428 561 428 580.5 476 c 128,-1,59
EndSplineSet
EndChar

StartChar: Adieresis
Encoding: 196 196 131
Width: 579
GlyphClass: 2
Flags: W
LayerCount: 2
Fore
SplineSet
107 252 m 0,0,1
 100 252 100 252 98 261 c 1,2,3
 98 278 98 278 122 300 c 128,-1,4
 146 322 146 322 160.5 328 c 128,-1,5
 175 334 175 334 257 336 c 1,6,-1
 271 352 l 1,7,8
 575 703 575 703 693 703 c 1,9,10
 703 704 703 704 716 704 c 0,11,12
 785 704 785 704 785 671 c 0,13,14
 785 665 785 665 772 639 c 2,15,-1
 727 549 l 2,16,17
 695 485 695 485 665 419 c 0,18,19
 503 62 503 62 477 -49 c 1,20,21
 477 -57 477 -57 456.5 -57 c 128,-1,22
 436 -57 436 -57 407 -34.5 c 128,-1,23
 378 -12 378 -12 378 5 c 0,24,25
 378 36 378 36 427 122 c 128,-1,26
 476 208 476 208 476 234 c 0,27,28
 476 269 476 269 340 269 c 0,29,30
 320 269 320 269 278 267 c 1,31,-1
 240 217 l 1,32,33
 170 123 170 123 106 -16 c 0,34,35
 95 -41 95 -41 39 -41 c 128,-1,36
 -17 -41 -17 -41 -17 -25 c 0,37,38
 -17 -14 -17 -14 45.5 71.5 c 128,-1,39
 108 157 108 157 194 261 c 1,40,41
 179 259 179 259 156 257 c 128,-1,42
 133 255 133 255 120.5 253.5 c 128,-1,43
 108 252 108 252 107 252 c 0,0,1
580.5 476 m 128,-1,45
 600 524 600 524 600 541 c 128,-1,46
 600 558 600 558 583 558 c 0,47,48
 553 558 553 558 484 494.5 c 128,-1,49
 415 431 415 431 334 336 c 1,50,-1
 443 334 l 2,51,52
 483 334 483 334 522 381 c 128,-1,44
 561 428 561 428 580.5 476 c 128,-1,45
678 818 m 0,53,54
 715 818 715 818 715 786 c 0,55,56
 715 770 715 770 694 752 c 128,-1,57
 673 734 673 734 651 734 c 0,58,59
 608 734 608 734 608 763 c 0,60,61
 608 783 608 783 629.5 800.5 c 128,-1,62
 651 818 651 818 678 818 c 0,53,54
863 818 m 0,63,64
 900 818 900 818 900 786 c 0,65,66
 900 770 900 770 879.5 752 c 128,-1,67
 859 734 859 734 836 734 c 0,68,69
 793 734 793 734 793 763 c 0,70,71
 793 783 793 783 814.5 800.5 c 128,-1,72
 836 818 836 818 863 818 c 0,63,64
EndSplineSet
EndChar

StartChar: Aring
Encoding: 197 197 132
Width: 579
GlyphClass: 2
Flags: W
LayerCount: 2
Fore
SplineSet
477 -49 m 0,0,1
 475 -57 475 -57 455.5 -57 c 128,-1,2
 436 -57 436 -57 407 -34.5 c 128,-1,3
 378 -12 378 -12 378 5 c 0,4,5
 378 36 378 36 427 122 c 128,-1,6
 476 208 476 208 476 234 c 0,7,8
 476 269 476 269 340 269 c 0,9,10
 320 269 320 269 278 267 c 1,11,-1
 240 217 l 1,12,13
 170 123 170 123 106 -16 c 0,14,15
 95 -41 95 -41 39 -41 c 128,-1,16
 -17 -41 -17 -41 -17 -25 c 0,17,18
 -17 -14 -17 -14 45.5 71.5 c 128,-1,19
 108 157 108 157 194 261 c 1,20,21
 179 259 179 259 156 257 c 128,-1,22
 133 255 133 255 120.5 253.5 c 128,-1,23
 108 252 108 252 107 252 c 0,24,25
 99 252 99 252 98.5 265 c 128,-1,26
 98 278 98 278 122 300 c 128,-1,27
 146 322 146 322 160.5 328 c 128,-1,28
 175 334 175 334 257 336 c 1,29,-1
 271 352 l 1,30,31
 575 703 575 703 693 703 c 1,32,-1
 716 704 l 1,33,34
 785 704 785 704 785 671 c 0,35,36
 785 665 785 665 772 639 c 2,37,-1
 727 549 l 2,38,39
 695 485 695 485 665 419 c 0,40,41
 503 62 503 62 477 -49 c 0,0,1
583 558 m 0,42,43
 553 558 553 558 484 494.5 c 128,-1,44
 415 431 415 431 334 336 c 1,45,46
 392 335 392 335 443 334 c 0,47,48
 483 334 483 334 522 381 c 128,-1,49
 561 428 561 428 580.5 476 c 128,-1,50
 600 524 600 524 600 541 c 128,-1,51
 600 558 600 558 583 558 c 0,42,43
813 799 m 0,52,53
 813 815 813 815 794 815 c 128,-1,54
 775 815 775 815 762 804.5 c 128,-1,55
 749 794 749 794 749 782 c 0,56,57
 749 765 749 765 769 765 c 128,-1,58
 789 765 789 765 801 776 c 128,-1,59
 813 787 813 787 813 799 c 0,52,53
708 771 m 0,60,61
 708 803 708 803 738.5 825.5 c 128,-1,62
 769 848 769 848 797 848 c 128,-1,63
 825 848 825 848 840 837.5 c 128,-1,64
 855 827 855 827 855 804.5 c 128,-1,65
 855 782 855 782 826 757.5 c 128,-1,66
 797 733 797 733 767 733 c 128,-1,67
 737 733 737 733 722.5 743.5 c 128,-1,68
 708 754 708 754 708 771 c 0,60,61
EndSplineSet
EndChar

StartChar: AE
Encoding: 198 198 133
Width: 912
GlyphClass: 2
Flags: W
LayerCount: 2
Fore
SplineSet
195 260 m 1,0,1
 110 251 110 251 105 251 c 128,-1,2
 100 251 100 251 98 259 c 1,3,4
 98 277 98 277 121.5 298.5 c 128,-1,5
 145 320 145 320 167 329 c 0,6,7
 174 332 174 332 257 334 c 1,8,-1
 271 350 l 2,9,10
 395 493 395 493 523 597 c 128,-1,11
 651 701 651 701 719 701 c 1,12,13
 748 707 748 707 774 707 c 0,14,15
 818 707 818 707 818 686 c 1,16,-1
 979 689 l 2,17,18
 1014 689 1014 689 1026 688 c 1,19,20
 1041 705 1041 705 1103 705 c 0,21,22
 1129 705 1129 705 1129 692 c 0,23,24
 1129 665 1129 665 1071 582 c 128,-1,25
 1013 499 1013 499 985 496 c 1,26,-1
 975 496 l 2,27,28
 959 496 959 496 959 503 c 0,29,30
 959 506 959 506 962 511 c 0,31,32
 978 542 978 542 978 581 c 0,33,34
 978 636 978 636 901 636 c 0,35,36
 852 636 852 636 825.5 612 c 128,-1,37
 799 588 799 588 773.5 544.5 c 128,-1,38
 748 501 748 501 736.5 470.5 c 128,-1,39
 725 440 725 440 725 432 c 0,40,41
 725 399 725 399 775 399 c 1,42,43
 803 397 803 397 843 397 c 1,44,-1
 910 399 l 2,45,46
 913 400 913 400 917 400 c 0,47,48
 927 400 927 400 927 393 c 1,49,50
 914 355 914 355 893 341.5 c 128,-1,51
 872 328 872 328 827 328 c 1,52,-1
 742 331 l 1,53,54
 679 331 679 331 645 290 c 0,55,56
 621 260 621 260 581.5 192 c 128,-1,57
 542 124 542 124 542 84 c 0,58,59
 542 47 542 47 615 47 c 0,60,61
 660 47 660 47 711 64 c 0,62,63
 814 98 814 98 874 194 c 1,64,65
 875 203 875 203 895 203 c 128,-1,66
 915 203 915 203 915 187 c 0,67,68
 915 163 915 163 883 101 c 128,-1,69
 851 39 851 39 825 9 c 0,70,71
 812 -7 812 -7 775 -9 c 0,72,73
 709 -11 709 -11 636 -11 c 1,74,-1
 498 -8 l 2,75,76
 484 -8 484 -8 477 -17 c 1,77,78
 442 -46 442 -46 384 -46 c 0,79,80
 354 -46 354 -46 354 -30 c 0,81,82
 354 -9 354 -9 413.5 106 c 128,-1,83
 473 221 473 221 473 228 c 0,84,85
 473 251 473 251 440.5 259 c 128,-1,86
 408 267 408 267 363.5 267 c 128,-1,87
 319 267 319 267 279 265 c 1,88,89
 224 201 224 201 183 128 c 0,90,91
 129 33 129 33 107 -18 c 0,92,93
 102 -28 102 -28 83.5 -34.5 c 128,-1,94
 65 -41 65 -41 49 -42 c 2,95,-1
 33 -43 l 1,96,-1
 29 -43 l 2,97,98
 -17 -43 -17 -43 -17 -27 c 0,99,100
 -17 -16 -17 -16 46 70 c 128,-1,101
 109 156 109 156 195 260 c 1,0,1
649 559 m 2,102,103
 649 573 649 573 622.5 573 c 128,-1,104
 596 573 596 573 511 501 c 128,-1,105
 426 429 426 429 339 334 c 1,106,-1
 475 333 l 2,107,108
 515 333 515 333 557.5 383.5 c 128,-1,109
 600 434 600 434 624 486 c 128,-1,110
 648 538 648 538 649 558 c 1,111,-1
 649 559 l 2,102,103
EndSplineSet
EndChar

StartChar: Ccedilla
Encoding: 199 199 134
Width: 495
GlyphClass: 2
Flags: W
LayerCount: 2
Fore
SplineSet
209 -57 m 0,0,1
 209 -68 209 -68 221.5 -79 c 128,-1,2
 234 -90 234 -90 234 -107.5 c 128,-1,3
 234 -125 234 -125 214.5 -141 c 128,-1,4
 195 -157 195 -157 165.5 -157 c 128,-1,5
 136 -157 136 -157 121 -145.5 c 128,-1,6
 106 -134 106 -134 106 -124.5 c 128,-1,7
 106 -115 106 -115 113 -115 c 1,8,-1
 124 -120 l 2,9,10
 135 -125 135 -125 149.5 -125 c 128,-1,11
 164 -125 164 -125 176.5 -117 c 128,-1,12
 189 -109 189 -109 189 -97.5 c 128,-1,13
 189 -86 189 -86 178 -76.5 c 128,-1,14
 167 -67 167 -67 167 -60 c 0,15,16
 167 -45 167 -45 199 -29 c 0,17,18
 202 -28 202 -28 202 -26 c 128,-1,19
 202 -24 202 -24 199 -21 c 1,20,21
 69 -4 69 -4 69 144 c 0,22,23
 69 193 69 193 92.5 263 c 128,-1,24
 116 333 116 333 162 408.5 c 128,-1,25
 208 484 208 484 266 549 c 128,-1,26
 324 614 324 614 402 656 c 128,-1,27
 480 698 480 698 559 698 c 0,28,29
 596 698 596 698 616 689.5 c 128,-1,30
 636 681 636 681 637.5 681 c 128,-1,31
 639 681 639 681 662.5 691 c 128,-1,32
 686 701 686 701 718.5 701 c 128,-1,33
 751 701 751 701 751 682.5 c 128,-1,34
 751 664 751 664 712.5 602 c 128,-1,35
 674 540 674 540 620 483 c 128,-1,36
 566 426 566 426 534 426 c 1,37,38
 530 425 530 425 524 425 c 0,39,40
 505 425 505 425 505 436 c 0,41,42
 505 438 505 438 519 458.5 c 128,-1,43
 533 479 533 479 547 513.5 c 128,-1,44
 561 548 561 548 561 569 c 128,-1,45
 561 590 561 590 559 599 c 128,-1,46
 557 608 557 608 545.5 620 c 128,-1,47
 534 632 534 632 514 632 c 0,48,49
 460 632 460 632 385.5 550 c 128,-1,50
 311 468 311 468 257.5 357.5 c 128,-1,51
 204 247 204 247 204 170 c 0,52,53
 204 78 204 78 288 78 c 0,54,55
 388 78 388 78 482 207 c 1,56,57
 486 215 486 215 490.5 215 c 128,-1,58
 495 215 495 215 497.5 214.5 c 128,-1,59
 500 214 500 214 504.5 208.5 c 128,-1,60
 509 203 509 203 509 193 c 0,61,62
 509 144 509 144 431.5 64 c 128,-1,63
 354 -16 354 -16 250 -23 c 1,64,65
 209 -37 209 -37 209 -57 c 0,0,1
EndSplineSet
EndChar

StartChar: Egrave
Encoding: 200 200 135
Width: 551
GlyphClass: 2
Flags: W
LayerCount: 2
Fore
SplineSet
466 330 m 1,0,-1
 381 333 l 1,1,2
 318 333 318 333 284 292 c 0,3,4
 260 262 260 262 220.5 194 c 128,-1,5
 181 126 181 126 181 86 c 0,6,7
 181 49 181 49 254 49 c 0,8,9
 299 49 299 49 350 66 c 0,10,11
 453 100 453 100 513 196 c 1,12,13
 520 205 520 205 537 205 c 128,-1,14
 554 205 554 205 554 185.5 c 128,-1,15
 554 166 554 166 522 104 c 128,-1,16
 490 42 490 42 465 11 c 0,17,18
 452 -5 452 -5 414.5 -7 c 128,-1,19
 377 -9 377 -9 300 -9 c 2,20,-1
 202 -9 l 1,21,-1
 145 -8 l 1,22,-1
 118 -6 l 2,23,24
 117 -6 117 -6 111 -6 c 128,-1,25
 105 -6 105 -6 96 -15 c 0,26,27
 63 -44 63 -44 2 -44 c 0,28,29
 -27 -44 -27 -44 -27 -31 c 2,30,-1
 -27 -28 l 2,31,32
 -27 -17 -27 -17 42.5 102.5 c 128,-1,33
 112 222 112 222 197 369 c 128,-1,34
 282 516 282 516 306 570.5 c 128,-1,35
 330 625 330 625 330 664 c 2,36,-1
 330 675 l 2,37,38
 330 692 330 692 543 692 c 0,39,40
 613 692 613 692 665 690 c 1,41,42
 680 707 680 707 742 707 c 0,43,44
 768 707 768 707 768 694 c 0,45,46
 768 671 768 671 722.5 601.5 c 128,-1,47
 677 532 677 532 643 507 c 0,48,49
 632 498 632 498 615 498 c 128,-1,50
 598 498 598 498 598 505 c 0,51,52
 598 508 598 508 601 513 c 0,53,54
 617 544 617 544 617 583 c 0,55,56
 617 638 617 638 541 638 c 0,57,58
 495 638 495 638 468.5 614 c 128,-1,59
 442 590 442 590 416 547 c 128,-1,60
 390 504 390 504 377.5 473 c 128,-1,61
 365 442 365 442 365 434 c 0,62,63
 365 410 365 410 388.5 404.5 c 128,-1,64
 412 399 412 399 482 399 c 1,65,-1
 556 402 l 2,66,67
 566 402 566 402 566 394.5 c 128,-1,68
 566 387 566 387 555.5 369.5 c 128,-1,69
 545 352 545 352 534 345 c 0,70,71
 512 330 512 330 466 330 c 1,0,-1
531 843 m 128,-1,73
 552 855 552 855 560.5 855 c 128,-1,74
 569 855 569 855 572.5 852.5 c 128,-1,75
 576 850 576 850 577.5 847.5 c 128,-1,76
 579 845 579 845 582 838 c 2,77,-1
 588 827 l 2,78,79
 598 809 598 809 613 788 c 0,80,81
 646 740 646 740 646 736 c 128,-1,82
 646 732 646 732 636 732 c 2,83,-1
 629 732 l 1,84,85
 605 736 605 736 557.5 767.5 c 128,-1,86
 510 799 510 799 510 815 c 128,-1,72
 510 831 510 831 531 843 c 128,-1,73
EndSplineSet
EndChar

StartChar: Eacute
Encoding: 201 201 136
Width: 551
GlyphClass: 2
Flags: W
LayerCount: 2
Fore
SplineSet
466 330 m 1,0,-1
 381 333 l 1,1,2
 318 333 318 333 284 292 c 0,3,4
 260 262 260 262 220.5 194 c 128,-1,5
 181 126 181 126 181 86 c 0,6,7
 181 49 181 49 254 49 c 0,8,9
 299 49 299 49 350 66 c 0,10,11
 453 100 453 100 513 196 c 1,12,13
 520 205 520 205 537 205 c 128,-1,14
 554 205 554 205 554 185.5 c 128,-1,15
 554 166 554 166 522 104 c 128,-1,16
 490 42 490 42 465 11 c 0,17,18
 452 -5 452 -5 414.5 -7 c 128,-1,19
 377 -9 377 -9 300 -9 c 2,20,-1
 202 -9 l 1,21,-1
 145 -8 l 1,22,-1
 118 -6 l 2,23,24
 117 -6 117 -6 111 -6 c 128,-1,25
 105 -6 105 -6 96 -15 c 0,26,27
 63 -44 63 -44 2 -44 c 0,28,29
 -27 -44 -27 -44 -27 -31 c 2,30,-1
 -27 -28 l 2,31,32
 -27 -17 -27 -17 42.5 102.5 c 128,-1,33
 112 222 112 222 197 369 c 128,-1,34
 282 516 282 516 306 570.5 c 128,-1,35
 330 625 330 625 330 664 c 2,36,-1
 330 675 l 2,37,38
 330 692 330 692 543 692 c 0,39,40
 613 692 613 692 665 690 c 1,41,42
 680 707 680 707 742 707 c 0,43,44
 768 707 768 707 768 694 c 0,45,46
 768 671 768 671 722.5 601.5 c 128,-1,47
 677 532 677 532 643 507 c 0,48,49
 632 498 632 498 615 498 c 128,-1,50
 598 498 598 498 598 505 c 0,51,52
 598 508 598 508 601 513 c 0,53,54
 617 544 617 544 617 583 c 0,55,56
 617 638 617 638 541 638 c 0,57,58
 495 638 495 638 468.5 614 c 128,-1,59
 442 590 442 590 416 547 c 128,-1,60
 390 504 390 504 377.5 473 c 128,-1,61
 365 442 365 442 365 434 c 0,62,63
 365 410 365 410 388.5 404.5 c 128,-1,64
 412 399 412 399 482 399 c 1,65,-1
 556 402 l 2,66,67
 566 402 566 402 566 394.5 c 128,-1,68
 566 387 566 387 555.5 369.5 c 128,-1,69
 545 352 545 352 534 345 c 0,70,71
 512 330 512 330 466 330 c 1,0,-1
669 799 m 128,-1,73
 669 783 669 783 615.5 758.5 c 128,-1,74
 562 734 562 734 541.5 734 c 128,-1,75
 521 734 521 734 521 742 c 0,76,77
 521 746 521 746 551 776 c 128,-1,78
 581 806 581 806 588 815 c 128,-1,79
 595 824 595 824 598.5 829 c 128,-1,80
 602 834 602 834 604 836.5 c 128,-1,81
 606 839 606 839 608 842 c 1,82,83
 613 846 613 846 621.5 846 c 128,-1,84
 630 846 630 846 649.5 830.5 c 128,-1,72
 669 815 669 815 669 799 c 128,-1,73
EndSplineSet
EndChar

StartChar: Ecircumflex
Encoding: 202 202 137
Width: 551
GlyphClass: 2
Flags: W
LayerCount: 2
Fore
SplineSet
466 330 m 1,0,-1
 381 333 l 1,1,2
 318 333 318 333 284 292 c 0,3,4
 260 262 260 262 220.5 194 c 128,-1,5
 181 126 181 126 181 86 c 0,6,7
 181 49 181 49 254 49 c 0,8,9
 299 49 299 49 350 66 c 0,10,11
 453 100 453 100 513 196 c 1,12,13
 520 205 520 205 537 205 c 128,-1,14
 554 205 554 205 554 185.5 c 128,-1,15
 554 166 554 166 522 104 c 128,-1,16
 490 42 490 42 465 11 c 0,17,18
 452 -5 452 -5 414.5 -7 c 128,-1,19
 377 -9 377 -9 300 -9 c 2,20,-1
 202 -9 l 1,21,-1
 145 -8 l 1,22,-1
 118 -6 l 2,23,24
 117 -6 117 -6 111 -6 c 128,-1,25
 105 -6 105 -6 96 -15 c 0,26,27
 63 -44 63 -44 2 -44 c 0,28,29
 -27 -44 -27 -44 -27 -31 c 2,30,-1
 -27 -28 l 2,31,32
 -27 -17 -27 -17 42.5 102.5 c 128,-1,33
 112 222 112 222 197 369 c 128,-1,34
 282 516 282 516 306 570.5 c 128,-1,35
 330 625 330 625 330 664 c 2,36,-1
 330 675 l 2,37,38
 330 692 330 692 543 692 c 0,39,40
 613 692 613 692 665 690 c 1,41,42
 680 707 680 707 742 707 c 0,43,44
 768 707 768 707 768 694 c 0,45,46
 768 671 768 671 722.5 601.5 c 128,-1,47
 677 532 677 532 643 507 c 0,48,49
 632 498 632 498 615 498 c 128,-1,50
 598 498 598 498 598 505 c 0,51,52
 598 508 598 508 601 513 c 0,53,54
 617 544 617 544 617 583 c 0,55,56
 617 638 617 638 541 638 c 0,57,58
 495 638 495 638 468.5 614 c 128,-1,59
 442 590 442 590 416 547 c 128,-1,60
 390 504 390 504 377.5 473 c 128,-1,61
 365 442 365 442 365 434 c 0,62,63
 365 410 365 410 388.5 404.5 c 128,-1,64
 412 399 412 399 482 399 c 1,65,-1
 556 402 l 2,66,67
 566 402 566 402 566 394.5 c 128,-1,68
 566 387 566 387 555.5 369.5 c 128,-1,69
 545 352 545 352 534 345 c 0,70,71
 512 330 512 330 466 330 c 1,0,-1
674 837 m 1,72,-1
 651 747 l 1,73,74
 651 734 651 734 642 734 c 0,75,76
 622 734 622 734 601 775 c 0,77,78
 598 781 598 781 593 781 c 128,-1,79
 588 781 588 781 582 777 c 0,80,81
 528 741 528 741 498 741 c 128,-1,82
 468 741 468 741 468 749 c 0,83,84
 468 752 468 752 478 762 c 0,85,86
 524 808 524 808 535.5 824 c 128,-1,87
 547 840 547 840 552 843.5 c 128,-1,88
 557 847 557 847 569.5 847 c 128,-1,89
 582 847 582 847 596 833 c 0,90,91
 601 829 601 829 606.5 829 c 128,-1,92
 612 829 612 829 627 838.5 c 128,-1,93
 642 848 642 848 664 848 c 1,94,95
 674 847 674 847 674 837 c 1,72,-1
EndSplineSet
EndChar

StartChar: Edieresis
Encoding: 203 203 138
Width: 551
GlyphClass: 2
Flags: W
LayerCount: 2
Fore
SplineSet
466 330 m 1,0,-1
 381 333 l 1,1,2
 318 333 318 333 284 292 c 0,3,4
 260 262 260 262 220.5 194 c 128,-1,5
 181 126 181 126 181 86 c 0,6,7
 181 49 181 49 254 49 c 0,8,9
 299 49 299 49 350 66 c 0,10,11
 453 100 453 100 513 196 c 1,12,13
 520 205 520 205 537 205 c 128,-1,14
 554 205 554 205 554 185.5 c 128,-1,15
 554 166 554 166 522 104 c 128,-1,16
 490 42 490 42 465 11 c 0,17,18
 452 -5 452 -5 414.5 -7 c 128,-1,19
 377 -9 377 -9 300 -9 c 2,20,-1
 202 -9 l 1,21,-1
 145 -8 l 1,22,-1
 118 -6 l 2,23,24
 117 -6 117 -6 111 -6 c 128,-1,25
 105 -6 105 -6 96 -15 c 0,26,27
 63 -44 63 -44 2 -44 c 0,28,29
 -27 -44 -27 -44 -27 -31 c 2,30,-1
 -27 -28 l 2,31,32
 -27 -17 -27 -17 42.5 102.5 c 128,-1,33
 112 222 112 222 197 369 c 128,-1,34
 282 516 282 516 306 570.5 c 128,-1,35
 330 625 330 625 330 664 c 2,36,-1
 330 675 l 2,37,38
 330 692 330 692 543 692 c 0,39,40
 613 692 613 692 665 690 c 1,41,42
 680 707 680 707 742 707 c 0,43,44
 768 707 768 707 768 694 c 0,45,46
 768 671 768 671 722.5 601.5 c 128,-1,47
 677 532 677 532 643 507 c 0,48,49
 632 498 632 498 615 498 c 128,-1,50
 598 498 598 498 598 505 c 0,51,52
 598 508 598 508 601 513 c 0,53,54
 617 544 617 544 617 583 c 0,55,56
 617 638 617 638 541 638 c 0,57,58
 495 638 495 638 468.5 614 c 128,-1,59
 442 590 442 590 416 547 c 128,-1,60
 390 504 390 504 377.5 473 c 128,-1,61
 365 442 365 442 365 434 c 0,62,63
 365 410 365 410 388.5 404.5 c 128,-1,64
 412 399 412 399 482 399 c 1,65,-1
 556 402 l 2,66,67
 566 402 566 402 566 394.5 c 128,-1,68
 566 387 566 387 555.5 369.5 c 128,-1,69
 545 352 545 352 534 345 c 0,70,71
 512 330 512 330 466 330 c 1,0,-1
506 824 m 0,72,73
 543 824 543 824 543 792 c 0,74,75
 543 776 543 776 522 758 c 128,-1,76
 501 740 501 740 479 740 c 0,77,78
 436 740 436 740 436 769 c 0,79,80
 436 789 436 789 457.5 806.5 c 128,-1,81
 479 824 479 824 506 824 c 0,72,73
691 824 m 0,82,83
 728 824 728 824 728 792 c 0,84,85
 728 776 728 776 707.5 758 c 128,-1,86
 687 740 687 740 664 740 c 0,87,88
 621 740 621 740 621 769 c 0,89,90
 621 789 621 789 642.5 806.5 c 128,-1,91
 664 824 664 824 691 824 c 0,82,83
EndSplineSet
EndChar

StartChar: Igrave
Encoding: 204 204 139
Width: 247
GlyphClass: 2
Flags: W
LayerCount: 2
Fore
SplineSet
163 50 m 0,0,1
 163 30 163 30 165.5 20 c 128,-1,2
 168 10 168 10 168 5 c 0,3,4
 168 -18 168 -18 70.5 -18 c 128,-1,5
 -27 -18 -27 -18 -27 5 c 1,6,-1
 -21 17 l 1,7,8
 13 37 13 37 115 202.5 c 128,-1,9
 217 368 217 368 322 576 c 0,10,11
 344 620 344 620 344 659 c 2,12,-1
 344 675 l 2,13,14
 344 701 344 701 451 701 c 0,15,16
 505 701 505 701 505 681 c 0,17,18
 505 673 505 673 497 665 c 1,19,20
 429 577 429 577 296 335.5 c 128,-1,21
 163 94 163 94 163 50 c 0,0,1
411 851 m 128,-1,23
 432 863 432 863 440.5 863 c 128,-1,24
 449 863 449 863 452.5 860.5 c 128,-1,25
 456 858 456 858 457.5 855.5 c 128,-1,26
 459 853 459 853 462 846 c 2,27,-1
 468 835 l 2,28,29
 478 817 478 817 493 796 c 0,30,31
 526 748 526 748 526 744 c 128,-1,32
 526 740 526 740 516 740 c 2,33,-1
 509 740 l 1,34,35
 485 744 485 744 437.5 775.5 c 128,-1,36
 390 807 390 807 390 823 c 128,-1,22
 390 839 390 839 411 851 c 128,-1,23
EndSplineSet
EndChar

StartChar: Iacute
Encoding: 205 205 140
Width: 247
GlyphClass: 2
Flags: W
LayerCount: 2
Fore
SplineSet
163 50 m 128,-1,1
 163 30 163 30 165.5 20 c 128,-1,2
 168 10 168 10 168 5 c 0,3,4
 168 -18 168 -18 70.5 -18 c 128,-1,5
 -27 -18 -27 -18 -27 5 c 0,6,7
 -27 11 -27 11 -21 17 c 1,8,9
 13 37 13 37 115 202.5 c 128,-1,10
 217 368 217 368 322 576 c 0,11,12
 344 620 344 620 344 659 c 2,13,14
 344 659 344 659 344 675 c 0,15,16
 344 701 344 701 451 701 c 0,17,18
 505 701 505 701 505 681 c 0,19,20
 505 673 505 673 497 665 c 1,21,22
 429 577 429 577 275 297 c 1,23,-1
 247 245 l 2,24,25
 219 193 219 193 191 131.5 c 128,-1,0
 163 70 163 70 163 50 c 128,-1,1
563 800 m 128,-1,27
 563 784 563 784 509.5 759.5 c 128,-1,28
 456 735 456 735 435.5 735 c 128,-1,29
 415 735 415 735 415 743 c 0,30,31
 415 747 415 747 445 777 c 128,-1,32
 475 807 475 807 482 816 c 128,-1,33
 489 825 489 825 492.5 830 c 128,-1,34
 496 835 496 835 498 837.5 c 128,-1,35
 500 840 500 840 502 842 c 0,36,37
 507 847 507 847 515.5 847 c 128,-1,38
 524 847 524 847 543.5 831.5 c 128,-1,26
 563 816 563 816 563 800 c 128,-1,27
EndSplineSet
EndChar

StartChar: Icircumflex
Encoding: 206 206 141
Width: 247
GlyphClass: 2
Flags: W
LayerCount: 2
Fore
SplineSet
163 50 m 128,-1,1
 163 30 163 30 165.5 20 c 128,-1,2
 168 10 168 10 168 5 c 0,3,4
 168 -18 168 -18 70.5 -18 c 128,-1,5
 -27 -18 -27 -18 -27 5 c 0,6,7
 -27 11 -27 11 -21 17 c 1,8,9
 13 37 13 37 115 202.5 c 128,-1,10
 217 368 217 368 322 576 c 0,11,12
 344 620 344 620 344 659 c 2,13,14
 344 659 344 659 344 675 c 0,15,16
 344 701 344 701 451 701 c 0,17,18
 505 701 505 701 505 681 c 0,19,20
 505 673 505 673 497 665 c 1,21,22
 429 577 429 577 275 297 c 1,23,-1
 247 245 l 2,24,25
 219 193 219 193 191 131.5 c 128,-1,0
 163 70 163 70 163 50 c 128,-1,1
579 837 m 1,26,-1
 556 747 l 1,27,28
 556 734 556 734 547 734 c 0,29,30
 527 734 527 734 506 775 c 0,31,32
 503 781 503 781 498 781 c 128,-1,33
 493 781 493 781 487 777 c 0,34,35
 433 741 433 741 403 741 c 128,-1,36
 373 741 373 741 373 749 c 0,37,38
 373 752 373 752 384 762 c 0,39,40
 430 808 430 808 441 824 c 128,-1,41
 452 840 452 840 457 843.5 c 128,-1,42
 462 847 462 847 474.5 847 c 128,-1,43
 487 847 487 847 501 833 c 0,44,45
 506 829 506 829 511 829 c 128,-1,46
 516 829 516 829 531.5 838.5 c 128,-1,47
 547 848 547 848 569 848 c 1,48,49
 579 847 579 847 579 837 c 1,26,-1
EndSplineSet
EndChar

StartChar: Idieresis
Encoding: 207 207 142
Width: 247
GlyphClass: 2
Flags: W
LayerCount: 2
Fore
SplineSet
163 50 m 0,0,1
 163 30 163 30 165.5 20 c 128,-1,2
 168 10 168 10 168 5 c 0,3,4
 168 -18 168 -18 70.5 -18 c 128,-1,5
 -27 -18 -27 -18 -27 5 c 1,6,-1
 -21 17 l 1,7,8
 13 37 13 37 115 202.5 c 128,-1,9
 217 368 217 368 322 576 c 0,10,11
 344 620 344 620 344 659 c 2,12,-1
 344 675 l 2,13,14
 344 701 344 701 451 701 c 0,15,16
 505 701 505 701 505 681 c 0,17,18
 505 673 505 673 497 665 c 1,19,20
 429 577 429 577 296 335.5 c 128,-1,21
 163 94 163 94 163 50 c 0,0,1
397 824 m 0,22,23
 434 824 434 824 434 792 c 0,24,25
 434 776 434 776 413 758 c 128,-1,26
 392 740 392 740 370 740 c 0,27,28
 327 740 327 740 327 769 c 0,29,30
 327 789 327 789 348.5 806.5 c 128,-1,31
 370 824 370 824 397 824 c 0,22,23
582 824 m 0,32,33
 619 824 619 824 619 792 c 0,34,35
 619 776 619 776 598.5 758 c 128,-1,36
 578 740 578 740 556 740 c 0,37,38
 512 740 512 740 512 769 c 0,39,40
 512 789 512 789 533.5 806.5 c 128,-1,41
 555 824 555 824 582 824 c 0,32,33
EndSplineSet
EndChar

StartChar: Eth
Encoding: 208 208 143
Width: 598
GlyphClass: 2
Flags: W
LayerCount: 2
Fore
SplineSet
92 328 m 2,0,1
 78 328 78 328 78 338 c 0,2,3
 78 351 78 351 97 374 c 128,-1,4
 116 397 116 397 146 397 c 2,5,-1
 211 397 l 1,6,7
 277 511 277 511 303 569 c 128,-1,8
 329 627 329 627 329 667 c 2,9,-1
 329 675 l 2,10,11
 329 704 329 704 496 704 c 0,12,13
 744 704 744 704 744 535 c 0,14,15
 744 413 744 413 661 266 c 0,16,17
 618 189 618 189 560 125 c 128,-1,18
 502 61 502 61 415.5 19 c 128,-1,19
 329 -23 329 -23 232 -23 c 0,20,21
 179 -23 179 -23 164 -19.5 c 128,-1,22
 149 -16 149 -16 138.5 -13.5 c 128,-1,23
 128 -11 128 -11 125 -10 c 128,-1,24
 122 -9 122 -9 116 -9 c 0,25,26
 104 -9 104 -9 94 -15 c 1,27,28
 59 -44 59 -44 2 -44 c 0,29,30
 -28 -44 -28 -44 -28 -31 c 0,31,32
 -28 -14 -28 -14 60 135 c 0,33,34
 80 170 80 170 116 232 c 128,-1,35
 152 294 152 294 172 328 c 1,36,-1
 92 328 l 2,0,1
325 397 m 1,37,-1
 424 398 l 2,38,39
 438 398 438 398 438 388 c 0,40,41
 438 375 438 375 419 352 c 128,-1,42
 400 329 400 329 370 329 c 2,43,-1
 285 329 l 1,44,45
 165 113 165 113 165 77 c 0,46,47
 165 37 165 37 250 37 c 0,48,49
 310 37 310 37 371 79 c 128,-1,50
 432 121 432 121 478 184.5 c 128,-1,51
 524 248 524 248 561 319.5 c 128,-1,52
 598 391 598 391 617.5 453.5 c 128,-1,53
 637 516 637 516 637 558.5 c 128,-1,54
 637 601 637 601 612.5 623 c 128,-1,55
 588 645 588 645 530 645 c 0,56,57
 490 645 490 645 466 617 c 1,58,59
 413 549 413 549 325 397 c 1,37,-1
EndSplineSet
EndChar

StartChar: Ntilde
Encoding: 209 209 144
Width: 547
GlyphClass: 2
Flags: W
LayerCount: 2
Fore
SplineSet
322.5 246 m 128,-1,1
 355 425 355 425 355 443.5 c 128,-1,2
 355 462 355 462 344.5 462 c 128,-1,3
 334 462 334 462 316 441 c 128,-1,4
 298 420 298 420 286 400 c 2,5,-1
 273 379 l 2,6,7
 193 248 193 248 92 32 c 0,8,9
 72 -12 72 -12 54 -24.5 c 128,-1,10
 36 -37 36 -37 2.5 -37 c 128,-1,11
 -31 -37 -31 -37 -31 -22 c 2,12,-1
 -31 -19 l 2,13,14
 -31 -6 -31 -6 20 76 c 0,15,16
 215 389 215 389 305 571 c 0,17,18
 328 617 328 617 328 654 c 2,19,-1
 328 670 l 2,20,21
 328 677 328 677 333.5 684.5 c 128,-1,22
 339 692 339 692 368 700.5 c 128,-1,23
 397 709 397 709 448 709 c 0,24,25
 525 709 525 709 525 680 c 0,26,27
 525 671 525 671 484 486 c 128,-1,28
 443 301 443 301 443 262.5 c 128,-1,29
 443 224 443 224 451 224 c 0,30,31
 463 224 463 224 476 237 c 128,-1,32
 489 250 489 250 496 262 c 2,33,-1
 503 275 l 1,34,35
 567 380 567 380 618 483.5 c 128,-1,36
 669 587 669 587 693 636 c 128,-1,37
 717 685 717 685 735 698 c 1,38,39
 761 713 761 713 801 713 c 128,-1,40
 841 713 841 713 841 701 c 2,41,-1
 841 699 l 2,42,43
 841 692 841 692 788 615 c 128,-1,44
 735 538 735 538 647.5 398.5 c 128,-1,45
 560 259 560 259 495 132 c 1,46,47
 467 67 467 67 467 28 c 0,48,49
 467 16 467 16 462.5 10 c 128,-1,50
 458 4 458 4 431.5 -1.5 c 128,-1,51
 405 -7 405 -7 377 -7 c 2,52,-1
 345 -7 l 2,53,54
 334 -7 334 -7 318 -2 c 0,55,56
 290 6 290 6 290 23 c 0,57,0
 290 67 290 67 322.5 246 c 128,-1,1
676 806 m 1,58,-1
 762 812 l 2,59,60
 769 812 769 812 769 806.5 c 128,-1,61
 769 801 769 801 763 793 c 128,-1,62
 757 785 757 785 742.5 776 c 128,-1,63
 728 767 728 767 708 759 c 0,64,65
 659 740 659 740 575 740 c 128,-1,66
 491 740 491 740 491 761 c 0,67,68
 491 774 491 774 519.5 798 c 128,-1,69
 548 822 548 822 565 822 c 1,70,71
 601 806 601 806 676 806 c 1,58,-1
EndSplineSet
EndChar

StartChar: Ograve
Encoding: 210 210 145
Width: 602
GlyphClass: 2
Flags: W
LayerCount: 2
Fore
SplineSet
747 539 m 0,0,1
 747 483 747 483 724.5 411 c 128,-1,2
 702 339 702 339 658 264 c 128,-1,3
 614 189 614 189 556.5 125.5 c 128,-1,4
 499 62 499 62 420.5 21.5 c 128,-1,5
 342 -19 342 -19 258.5 -19 c 128,-1,6
 175 -19 175 -19 127 27.5 c 128,-1,7
 79 74 79 74 79 156 c 0,8,9
 79 212 79 212 101.5 284 c 128,-1,10
 124 356 124 356 168 431 c 128,-1,11
 212 506 212 506 269.5 569 c 128,-1,12
 327 632 327 632 405.5 672.5 c 128,-1,13
 484 713 484 713 567.5 713 c 128,-1,14
 651 713 651 713 699 667 c 128,-1,15
 747 621 747 621 747 539 c 0,0,1
629 548 m 0,16,17
 629 658 629 658 549 658 c 0,18,19
 482 658 482 658 399.5 573 c 128,-1,20
 317 488 317 488 259.5 367.5 c 128,-1,21
 202 247 202 247 202 152 c 0,22,23
 202 42 202 42 282 42 c 0,24,25
 348 42 348 42 431 127 c 128,-1,26
 514 212 514 212 571.5 332.5 c 128,-1,27
 629 453 629 453 629 548 c 0,16,17
545 854 m 128,-1,29
 566 866 566 866 574.5 866 c 128,-1,30
 583 866 583 866 586.5 863.5 c 128,-1,31
 590 861 590 861 591.5 858.5 c 128,-1,32
 593 856 593 856 596 849 c 2,33,34
 596 849 596 849 602 838 c 0,35,36
 612 820 612 820 627 798 c 0,37,38
 660 751 660 751 660 747 c 128,-1,39
 660 743 660 743 650 743 c 2,40,-1
 643 743 l 1,41,42
 619 747 619 747 571.5 778.5 c 128,-1,43
 524 810 524 810 524 826 c 128,-1,28
 524 842 524 842 545 854 c 128,-1,29
EndSplineSet
EndChar

StartChar: Oacute
Encoding: 211 211 146
Width: 602
GlyphClass: 2
Flags: W
LayerCount: 2
Fore
SplineSet
747 539 m 0,0,1
 747 483 747 483 724.5 411 c 128,-1,2
 702 339 702 339 658 264 c 128,-1,3
 614 189 614 189 556.5 125.5 c 128,-1,4
 499 62 499 62 420.5 21.5 c 128,-1,5
 342 -19 342 -19 258.5 -19 c 128,-1,6
 175 -19 175 -19 127 27.5 c 128,-1,7
 79 74 79 74 79 156 c 0,8,9
 79 212 79 212 101.5 284 c 128,-1,10
 124 356 124 356 168 431 c 128,-1,11
 212 506 212 506 269.5 569 c 128,-1,12
 327 632 327 632 405.5 672.5 c 128,-1,13
 484 713 484 713 567.5 713 c 128,-1,14
 651 713 651 713 699 667 c 128,-1,15
 747 621 747 621 747 539 c 0,0,1
629 548 m 0,16,17
 629 658 629 658 549 658 c 0,18,19
 482 658 482 658 399.5 573 c 128,-1,20
 317 488 317 488 259.5 367.5 c 128,-1,21
 202 247 202 247 202 152 c 0,22,23
 202 42 202 42 282 42 c 0,24,25
 348 42 348 42 431 127 c 128,-1,26
 514 212 514 212 571.5 332.5 c 128,-1,27
 629 453 629 453 629 548 c 0,16,17
692 805 m 128,-1,29
 692 789 692 789 638.5 764.5 c 128,-1,30
 585 740 585 740 564.5 740 c 128,-1,31
 544 740 544 740 544 748 c 0,32,33
 544 752 544 752 574 782 c 128,-1,34
 604 812 604 812 611 821 c 128,-1,35
 618 830 618 830 621.5 835 c 128,-1,36
 625 840 625 840 627 842.5 c 128,-1,37
 629 845 629 845 632 848 c 0,38,39
 636 852 636 852 644.5 852 c 128,-1,40
 653 852 653 852 672.5 836.5 c 128,-1,28
 692 821 692 821 692 805 c 128,-1,29
EndSplineSet
EndChar

StartChar: Ocircumflex
Encoding: 212 212 147
Width: 602
GlyphClass: 2
Flags: W
LayerCount: 2
Fore
SplineSet
747 539 m 0,0,1
 747 483 747 483 724.5 411 c 128,-1,2
 702 339 702 339 658 264 c 128,-1,3
 614 189 614 189 556.5 125.5 c 128,-1,4
 499 62 499 62 420.5 21.5 c 128,-1,5
 342 -19 342 -19 258.5 -19 c 128,-1,6
 175 -19 175 -19 127 27.5 c 128,-1,7
 79 74 79 74 79 156 c 0,8,9
 79 212 79 212 101.5 284 c 128,-1,10
 124 356 124 356 168 431 c 128,-1,11
 212 506 212 506 269.5 569 c 128,-1,12
 327 632 327 632 405.5 672.5 c 128,-1,13
 484 713 484 713 567.5 713 c 128,-1,14
 651 713 651 713 699 667 c 128,-1,15
 747 621 747 621 747 539 c 0,0,1
629 548 m 0,16,17
 629 658 629 658 549 658 c 0,18,19
 482 658 482 658 399.5 573 c 128,-1,20
 317 488 317 488 259.5 367.5 c 128,-1,21
 202 247 202 247 202 152 c 0,22,23
 202 42 202 42 282 42 c 0,24,25
 348 42 348 42 431 127 c 128,-1,26
 514 212 514 212 571.5 332.5 c 128,-1,27
 629 453 629 453 629 548 c 0,16,17
702 840 m 1,28,-1
 679 750 l 1,29,30
 679 737 679 737 670 737 c 0,31,32
 650 737 650 737 629 778 c 0,33,34
 626 784 626 784 621 784 c 128,-1,35
 616 784 616 784 610 780 c 0,36,37
 556 744 556 744 526 744 c 128,-1,38
 496 744 496 744 496 752 c 0,39,40
 496 755 496 755 506 766 c 0,41,42
 553 812 553 812 564 827.5 c 128,-1,43
 575 843 575 843 580 846.5 c 128,-1,44
 585 850 585 850 597.5 850 c 128,-1,45
 610 850 610 850 624 836 c 0,46,47
 629 832 629 832 634.5 832 c 128,-1,48
 640 832 640 832 655 841.5 c 128,-1,49
 670 851 670 851 692 851 c 1,50,51
 702 850 702 850 702 840 c 1,28,-1
EndSplineSet
EndChar

StartChar: Otilde
Encoding: 213 213 148
Width: 602
GlyphClass: 2
Flags: W
LayerCount: 2
Fore
SplineSet
676 806 m 1,0,-1
 762 812 l 2,1,2
 769 812 769 812 769 806.5 c 128,-1,3
 769 801 769 801 763 793 c 128,-1,4
 757 785 757 785 742.5 776 c 128,-1,5
 728 767 728 767 708 759 c 0,6,7
 659 740 659 740 575 740 c 128,-1,8
 491 740 491 740 491 761 c 0,9,10
 491 774 491 774 519.5 798 c 128,-1,11
 548 822 548 822 565 822 c 1,12,13
 601 806 601 806 676 806 c 1,0,-1
747 539 m 0,14,15
 747 483 747 483 724.5 411 c 128,-1,16
 702 339 702 339 658 264 c 128,-1,17
 614 189 614 189 556.5 125.5 c 128,-1,18
 499 62 499 62 420.5 21.5 c 128,-1,19
 342 -19 342 -19 258.5 -19 c 128,-1,20
 175 -19 175 -19 127 27.5 c 128,-1,21
 79 74 79 74 79 156 c 0,22,23
 79 212 79 212 101.5 284 c 128,-1,24
 124 356 124 356 168 431 c 128,-1,25
 212 506 212 506 269.5 569 c 128,-1,26
 327 632 327 632 405.5 672.5 c 128,-1,27
 484 713 484 713 567.5 713 c 128,-1,28
 651 713 651 713 699 667 c 128,-1,29
 747 621 747 621 747 539 c 0,14,15
629 548 m 0,30,31
 629 658 629 658 549 658 c 0,32,33
 482 658 482 658 399.5 573 c 128,-1,34
 317 488 317 488 259.5 367.5 c 128,-1,35
 202 247 202 247 202 152 c 0,36,37
 202 42 202 42 282 42 c 0,38,39
 348 42 348 42 431 127 c 128,-1,40
 514 212 514 212 571.5 332.5 c 128,-1,41
 629 453 629 453 629 548 c 0,30,31
EndSplineSet
EndChar

StartChar: Odieresis
Encoding: 214 214 149
Width: 602
GlyphClass: 2
Flags: W
LayerCount: 2
Fore
SplineSet
747 539 m 0,0,1
 747 483 747 483 724.5 411 c 128,-1,2
 702 339 702 339 658 264 c 128,-1,3
 614 189 614 189 556.5 125.5 c 128,-1,4
 499 62 499 62 420.5 21.5 c 128,-1,5
 342 -19 342 -19 258.5 -19 c 128,-1,6
 175 -19 175 -19 127 27.5 c 128,-1,7
 79 74 79 74 79 156 c 0,8,9
 79 212 79 212 101.5 284 c 128,-1,10
 124 356 124 356 168 431 c 128,-1,11
 212 506 212 506 269.5 569 c 128,-1,12
 327 632 327 632 405.5 672.5 c 128,-1,13
 484 713 484 713 567.5 713 c 128,-1,14
 651 713 651 713 699 667 c 128,-1,15
 747 621 747 621 747 539 c 0,0,1
629 548 m 0,16,17
 629 658 629 658 549 658 c 0,18,19
 482 658 482 658 399.5 573 c 128,-1,20
 317 488 317 488 259.5 367.5 c 128,-1,21
 202 247 202 247 202 152 c 0,22,23
 202 42 202 42 282 42 c 0,24,25
 348 42 348 42 431 127 c 128,-1,26
 514 212 514 212 571.5 332.5 c 128,-1,27
 629 453 629 453 629 548 c 0,16,17
549 826 m 0,28,29
 586 826 586 826 586 794 c 0,30,31
 586 778 586 778 565 760 c 128,-1,32
 544 742 544 742 522 742 c 0,33,34
 479 742 479 742 479 771 c 0,35,36
 479 791 479 791 500.5 808.5 c 128,-1,37
 522 826 522 826 549 826 c 0,28,29
734 826 m 0,38,39
 771 826 771 826 771 794 c 0,40,41
 771 778 771 778 750.5 760 c 128,-1,42
 730 742 730 742 708 742 c 0,43,44
 664 742 664 742 664 771 c 0,45,46
 664 791 664 791 685.5 808.5 c 128,-1,47
 707 826 707 826 734 826 c 0,38,39
EndSplineSet
EndChar

StartChar: multiply
Encoding: 215 215 150
Width: 476
GlyphClass: 2
Flags: W
LayerCount: 2
Fore
SplineSet
395 428 m 1,0,1
 493 509 493 509 528.5 540 c 128,-1,2
 564 571 564 571 610 571 c 128,-1,3
 656 571 656 571 656 561 c 0,4,5
 656 553 656 553 639 542 c 1,6,7
 563 482 563 482 407 353 c 1,8,9
 432 202 432 202 438.5 179 c 128,-1,10
 445 156 445 156 445 151 c 0,11,12
 445 134 445 134 413 134 c 0,13,14
 367 134 367 134 362 168 c 2,15,-1
 341 298 l 1,16,17
 265 235 265 235 183 164 c 0,18,19
 149 134 149 134 103.5 134 c 128,-1,20
 58 134 58 134 58 144 c 0,21,22
 58 151 58 151 74 163 c 0,23,24
 149 222 149 222 329 373 c 1,25,26
 317 450 317 450 297 547 c 1,27,28
 297 570 297 570 324 570 c 2,29,-1
 330 570 l 2,30,31
 357 570 357 570 365.5 565 c 128,-1,32
 374 560 374 560 378 537 c 2,33,-1
 395 428 l 1,0,1
EndSplineSet
EndChar

StartChar: Oslash
Encoding: 216 216 151
Width: 602
GlyphClass: 2
Flags: W
LayerCount: 2
Fore
SplineSet
695 671 m 1,0,1
 721 697 721 697 752 697 c 128,-1,2
 783 697 783 697 783 686 c 0,3,4
 783 681 783 681 776 674 c 2,5,-1
 728 627 l 1,6,7
 747 587 747 587 747 535 c 128,-1,8
 747 483 747 483 724.5 411 c 128,-1,9
 702 339 702 339 658 264 c 128,-1,10
 614 189 614 189 556.5 125.5 c 128,-1,11
 499 62 499 62 420.5 21.5 c 128,-1,12
 342 -19 342 -19 262.5 -19 c 128,-1,13
 183 -19 183 -19 137 18 c 1,14,15
 113 -6 113 -6 81 -6 c 128,-1,16
 49 -6 49 -6 49 4 c 0,17,18
 49 10 49 10 56 17 c 2,19,-1
 100 62 l 1,20,21
 79 101 79 101 79 156.5 c 128,-1,22
 79 212 79 212 101.5 284 c 128,-1,23
 124 356 124 356 168 431 c 128,-1,24
 212 506 212 506 269.5 569 c 128,-1,25
 327 632 327 632 405.5 672.5 c 128,-1,26
 484 713 484 713 565.5 713 c 128,-1,27
 647 713 647 713 695 671 c 1,0,1
624 596 m 1,28,29
 610 658 610 658 547 658 c 128,-1,30
 484 658 484 658 403 576 c 128,-1,31
 322 494 322 494 264 377 c 128,-1,32
 206 260 206 260 202 165 c 1,33,34
 457 422 457 422 624 596 c 1,28,29
209 94 m 1,35,36
 226 42 226 42 285.5 42 c 128,-1,37
 345 42 345 42 424.5 121.5 c 128,-1,38
 504 201 504 201 562 315 c 128,-1,39
 620 429 620 429 628 524 c 1,40,41
 417 310 417 310 209 94 c 1,35,36
EndSplineSet
EndChar

StartChar: Ugrave
Encoding: 217 217 152
Width: 503
GlyphClass: 2
Flags: W
LayerCount: 2
Fore
SplineSet
217 -25 m 0,0,1
 145 -25 145 -25 97.5 9 c 128,-1,2
 50 43 50 43 50 105 c 0,3,4
 50 145 50 145 89.5 223.5 c 128,-1,5
 129 302 129 302 197.5 416 c 128,-1,6
 266 530 266 530 295.5 588.5 c 128,-1,7
 325 647 325 647 325 684 c 0,8,9
 325 694 325 694 331 700 c 0,10,11
 345 714 345 714 427 714 c 0,12,13
 481 714 481 714 481 693 c 0,14,15
 481 683 481 683 474 676 c 1,16,17
 419 599 419 599 305 402 c 128,-1,18
 191 205 191 205 191 151 c 0,19,20
 191 72 191 72 263 72 c 0,21,22
 328 72 328 72 364 106 c 1,23,24
 391 133 391 133 409 162 c 0,25,26
 449 223 449 223 513 353.5 c 128,-1,27
 577 484 577 484 627.5 585.5 c 128,-1,28
 678 687 678 687 698.5 703.5 c 128,-1,29
 719 720 719 720 770.5 720 c 128,-1,30
 822 720 822 720 822 708 c 0,31,32
 822 700 822 700 804.5 679 c 128,-1,33
 787 658 787 658 753 606 c 128,-1,34
 719 554 719 554 674.5 482 c 128,-1,35
 630 410 630 410 597 355 c 128,-1,36
 564 300 564 300 519.5 224.5 c 128,-1,37
 475 149 475 149 467 136 c 0,38,39
 373 -25 373 -25 217 -25 c 0,0,1
543 851 m 128,-1,41
 564 863 564 863 572.5 863 c 128,-1,42
 581 863 581 863 584.5 860.5 c 128,-1,43
 588 858 588 858 589.5 855.5 c 128,-1,44
 591 853 591 853 594 846 c 2,45,-1
 600 835 l 2,46,47
 610 817 610 817 625 796 c 0,48,49
 658 748 658 748 658 744 c 128,-1,50
 658 740 658 740 648 740 c 2,51,-1
 641 740 l 1,52,53
 617 744 617 744 569.5 775.5 c 128,-1,54
 522 807 522 807 522 823 c 128,-1,40
 522 839 522 839 543 851 c 128,-1,41
EndSplineSet
EndChar

StartChar: Uacute
Encoding: 218 218 153
Width: 503
GlyphClass: 2
Flags: W
LayerCount: 2
Fore
SplineSet
217 -25 m 0,0,1
 145 -25 145 -25 97.5 9 c 128,-1,2
 50 43 50 43 50 105 c 0,3,4
 50 145 50 145 89.5 223.5 c 128,-1,5
 129 302 129 302 197.5 416 c 128,-1,6
 266 530 266 530 295.5 588.5 c 128,-1,7
 325 647 325 647 325 684 c 0,8,9
 325 694 325 694 331 700 c 128,-1,10
 337 706 337 706 360 710 c 128,-1,11
 383 714 383 714 432 714 c 128,-1,12
 481 714 481 714 481 693 c 0,13,14
 481 684 481 684 474 676 c 1,15,16
 419 599 419 599 305 402 c 128,-1,17
 191 205 191 205 191 151 c 0,18,19
 191 72 191 72 263 72 c 0,20,21
 295 72 295 72 325.5 82 c 128,-1,22
 356 92 356 92 390 134 c 0,23,24
 429 182 429 182 513 354 c 0,25,26
 577 484 577 484 627.5 585.5 c 128,-1,27
 678 687 678 687 698.5 703.5 c 128,-1,28
 719 720 719 720 770.5 720 c 128,-1,29
 822 720 822 720 822 708 c 0,30,31
 822 700 822 700 796.5 669 c 128,-1,32
 771 638 771 638 674 482 c 0,33,34
 630 410 630 410 597 355 c 128,-1,35
 564 300 564 300 519.5 224.5 c 128,-1,36
 475 149 475 149 467 136 c 0,37,38
 373 -25 373 -25 217 -25 c 0,0,1
699 811 m 128,-1,40
 699 795 699 795 645.5 770.5 c 128,-1,41
 592 746 592 746 571.5 746 c 128,-1,42
 551 746 551 746 551 754 c 0,43,44
 551 758 551 758 581 788 c 128,-1,45
 611 818 611 818 618 827 c 128,-1,46
 625 836 625 836 628.5 841 c 128,-1,47
 632 846 632 846 634 848.5 c 128,-1,48
 636 851 636 851 638 854 c 1,49,50
 643 858 643 858 651.5 858 c 128,-1,51
 660 858 660 858 679.5 842.5 c 128,-1,39
 699 827 699 827 699 811 c 128,-1,40
EndSplineSet
EndChar

StartChar: Ucircumflex
Encoding: 219 219 154
Width: 503
GlyphClass: 2
Flags: W
LayerCount: 2
Fore
SplineSet
217 -25 m 0,0,1
 145 -25 145 -25 97.5 9 c 128,-1,2
 50 43 50 43 50 105 c 0,3,4
 50 145 50 145 89.5 223.5 c 128,-1,5
 129 302 129 302 197.5 416 c 128,-1,6
 266 530 266 530 295.5 588.5 c 128,-1,7
 325 647 325 647 325 684 c 0,8,9
 325 694 325 694 331 700 c 128,-1,10
 337 706 337 706 360 710 c 128,-1,11
 383 714 383 714 432 714 c 128,-1,12
 481 714 481 714 481 693 c 0,13,14
 481 684 481 684 474 676 c 1,15,16
 419 599 419 599 305 402 c 128,-1,17
 191 205 191 205 191 151 c 0,18,19
 191 72 191 72 263 72 c 0,20,21
 295 72 295 72 325.5 82 c 128,-1,22
 356 92 356 92 390 134 c 0,23,24
 429 182 429 182 513 354 c 0,25,26
 577 484 577 484 627.5 585.5 c 128,-1,27
 678 687 678 687 698.5 703.5 c 128,-1,28
 719 720 719 720 770.5 720 c 128,-1,29
 822 720 822 720 822 708 c 0,30,31
 822 700 822 700 796.5 669 c 128,-1,32
 771 638 771 638 674 482 c 0,33,34
 630 410 630 410 597 355 c 128,-1,35
 564 300 564 300 519.5 224.5 c 128,-1,36
 475 149 475 149 467 136 c 0,37,38
 373 -25 373 -25 217 -25 c 0,0,1
709 845 m 1,39,-1
 686 755 l 1,40,41
 686 742 686 742 677 742 c 0,42,43
 657 742 657 742 636 783 c 0,44,45
 633 789 633 789 628 789 c 128,-1,46
 623 789 623 789 617 785 c 0,47,48
 563 749 563 749 533 749 c 128,-1,49
 503 749 503 749 503 757 c 0,50,51
 503 760 503 760 514 770 c 0,52,53
 560 816 560 816 571 832 c 128,-1,54
 582 848 582 848 587 851.5 c 128,-1,55
 592 855 592 855 604.5 855 c 128,-1,56
 617 855 617 855 631 841 c 0,57,58
 636 837 636 837 641 837 c 128,-1,59
 646 837 646 837 661.5 846.5 c 128,-1,60
 677 856 677 856 699 856 c 1,61,62
 709 855 709 855 709 845 c 1,39,-1
EndSplineSet
EndChar

